{"glyphs":{"0":{"ha":949,"x_min":28,"x_max":922,"o":"m 785 4 q 752 4 772 3 q 712 7 732 6 q 676 9 692 8 q 656 8 660 10 q 656 15 658 14 q 649 14 653 15 q 640 10 644 13 q 636 8 636 8 q 631 19 639 15 q 621 17 622 22 q 621 8 632 7 q 582 11 610 10 q 555 9 567 14 q 526 11 543 4 q 511 11 511 17 q 508 7 511 7 q 501 7 506 7 q 493 8 497 7 q 488 7 489 8 q 478 6 488 3 q 459 8 469 7 q 442 11 449 10 q 440 13 438 10 q 438 15 442 17 q 432 17 435 14 q 431 15 425 22 q 432 7 438 8 q 431 7 429 3 q 426 15 433 11 q 421 11 419 18 q 417 4 422 10 q 414 4 411 -1 q 412 8 414 7 q 401 8 410 8 q 336 8 364 6 q 276 18 308 11 q 270 22 275 21 q 258 24 265 22 q 246 25 251 22 q 235 31 240 28 q 226 38 231 35 q 214 40 221 40 q 198 47 204 39 q 185 56 192 56 q 178 58 178 56 q 172 61 178 61 q 167 67 167 61 q 161 71 163 71 q 154 76 156 72 q 146 83 153 81 q 135 93 139 86 q 126 101 132 100 q 125 108 122 101 q 125 112 126 113 q 120 110 124 111 q 113 109 117 108 q 110 118 110 110 q 104 126 110 121 q 101 135 99 131 q 100 140 104 140 q 98 144 97 140 q 101 150 99 149 q 99 152 103 151 q 92 154 96 153 q 87 157 89 156 q 89 161 85 158 q 92 168 92 163 q 89 174 92 174 q 90 176 82 174 q 89 179 93 179 q 86 189 85 179 q 88 200 92 196 q 86 207 83 204 q 90 210 90 207 q 85 211 89 213 q 78 213 81 210 q 73 223 71 214 q 72 235 75 232 q 68 240 69 233 q 64 244 67 247 q 56 249 57 239 q 53 265 56 260 q 51 273 49 274 q 56 271 53 272 q 62 269 60 269 q 60 278 64 269 q 58 289 51 289 q 59 286 61 289 q 60 283 57 283 q 64 287 64 282 q 67 292 64 292 q 68 294 68 292 q 59 296 65 299 q 50 300 53 293 q 53 306 50 306 q 53 313 56 306 q 55 322 49 322 q 58 325 61 322 q 48 333 53 326 q 43 342 43 339 q 49 346 42 347 q 51 351 57 344 q 51 360 49 354 q 44 364 54 367 q 37 365 38 363 q 43 368 36 367 q 47 378 50 369 q 50 390 44 388 q 54 394 53 390 q 53 396 56 399 q 44 391 53 394 q 39 392 36 388 q 42 398 40 393 q 45 408 44 403 q 45 418 46 414 q 43 421 44 422 q 40 421 40 418 q 44 428 40 424 q 47 431 47 431 q 44 429 47 432 q 40 433 40 428 q 44 438 40 438 q 48 440 47 438 q 46 443 49 443 q 43 448 43 443 q 39 453 43 453 q 39 449 38 451 q 41 443 40 446 q 41 440 42 440 q 35 443 40 439 q 32 451 31 449 q 37 456 33 454 q 43 462 40 458 q 44 472 46 465 q 43 485 43 483 q 40 481 43 486 q 37 476 39 478 q 33 475 35 475 q 31 476 31 475 q 33 483 31 478 q 39 490 36 490 q 44 496 42 490 q 39 499 44 500 q 35 501 35 496 q 38 507 35 507 q 44 514 40 507 q 44 522 46 521 q 39 520 42 522 q 33 515 36 518 q 28 510 29 511 q 35 523 31 517 q 43 535 40 529 q 39 533 43 538 q 34 530 33 528 q 38 537 35 532 q 43 547 40 542 q 44 553 46 551 q 39 549 43 553 q 34 547 36 542 q 35 554 32 551 q 34 569 39 560 q 36 585 29 578 q 40 603 39 592 q 38 618 40 615 q 35 623 35 621 q 42 636 35 625 q 47 649 47 646 q 44 652 47 651 q 40 655 42 653 q 40 668 38 657 q 40 679 43 678 q 42 692 36 681 q 45 706 44 700 q 43 713 46 713 q 44 722 40 714 q 50 726 47 729 q 56 742 56 728 q 54 761 56 756 q 48 790 50 772 q 56 807 46 807 q 61 807 58 803 q 61 808 64 811 q 58 813 57 806 q 56 822 60 819 q 51 832 51 825 q 53 853 49 840 q 63 863 58 865 q 68 871 65 863 q 72 883 67 878 q 76 892 76 889 q 79 899 74 893 q 88 903 85 904 q 94 906 92 900 q 97 908 97 907 q 96 910 97 910 q 99 914 94 910 q 108 922 103 918 q 122 935 114 928 q 148 944 129 942 q 175 949 167 946 q 185 952 176 951 q 194 956 193 953 q 197 958 194 958 q 199 956 200 958 q 204 952 196 953 q 210 954 213 951 q 228 956 210 956 q 243 956 233 954 q 262 958 253 957 q 278 960 271 960 q 290 956 286 960 q 297 959 293 958 q 315 960 301 960 q 340 957 340 960 q 357 956 338 954 q 365 958 364 953 q 374 957 367 963 q 376 958 379 953 q 382 961 372 963 q 392 960 392 961 q 398 957 389 957 q 419 958 407 957 q 442 960 431 960 q 456 960 453 961 q 458 955 456 956 q 460 957 461 954 q 476 961 460 961 q 524 962 499 957 q 574 961 550 967 q 588 963 578 961 q 608 965 597 964 q 628 965 618 965 q 642 963 638 965 q 645 954 644 961 q 649 949 646 947 q 651 954 653 951 q 649 960 650 957 q 651 963 649 963 q 669 963 654 964 q 678 960 676 963 q 681 956 681 958 q 683 951 682 954 q 689 949 683 949 q 696 954 699 949 q 699 959 694 958 q 707 956 704 960 q 717 951 711 951 q 728 944 722 951 q 744 937 735 936 q 754 926 754 938 q 757 919 753 919 q 764 915 761 919 q 772 912 765 911 q 778 906 779 913 q 783 899 778 903 q 795 890 789 894 q 806 883 801 886 q 808 879 810 879 q 813 874 807 876 q 818 865 818 871 q 831 854 821 857 q 853 834 846 846 q 867 813 860 822 q 908 676 900 749 q 914 524 917 603 q 903 364 911 446 q 896 201 896 282 q 894 156 893 174 q 906 122 896 138 q 920 103 922 111 q 910 90 918 96 q 897 81 903 85 q 899 74 890 76 q 906 69 904 74 q 903 63 907 65 q 898 58 901 61 q 892 51 894 54 q 890 46 890 47 q 896 49 890 44 q 906 63 904 50 q 911 83 908 76 q 913 75 914 83 q 910 58 913 67 q 913 58 908 56 q 917 58 918 63 q 902 44 913 51 q 885 35 892 36 q 867 22 876 32 q 849 10 857 11 q 829 8 844 7 q 810 6 814 8 q 798 3 800 0 q 785 4 796 7 m 799 881 q 795 885 799 883 q 793 882 792 886 q 794 879 792 879 q 799 881 797 879 m 43 601 q 46 599 43 599 q 49 601 49 599 q 46 604 49 604 q 43 601 43 604 m 43 618 q 46 613 43 613 q 49 619 49 614 q 46 624 49 626 q 43 618 43 621 m 65 258 q 67 256 61 256 q 71 257 74 256 q 65 258 69 258 m 92 776 q 98 774 92 774 q 101 778 104 775 q 96 779 101 779 q 92 776 90 779 m 142 696 q 139 705 144 701 q 136 694 133 708 q 138 687 138 681 q 142 696 139 693 m 110 132 q 114 132 118 125 q 108 135 113 135 q 110 132 104 135 m 122 471 q 119 475 124 472 q 116 470 113 476 q 122 471 119 464 m 136 642 q 146 658 146 651 q 135 656 138 665 q 128 639 132 646 q 122 628 117 626 q 136 642 126 629 m 160 121 q 163 113 160 115 q 164 119 165 111 q 162 126 164 125 q 160 121 160 126 m 711 929 q 714 925 704 925 q 725 919 721 924 q 742 914 729 915 q 740 919 742 915 q 733 926 738 925 q 726 927 729 926 q 721 931 724 928 q 717 944 718 933 q 714 938 714 946 q 711 929 714 931 m 688 943 q 683 946 688 946 q 679 943 679 946 q 683 940 679 940 q 688 943 688 940 m 440 957 q 433 956 438 960 q 436 954 429 951 q 438 955 438 954 q 439 956 438 956 l 440 957 m 193 414 q 197 416 199 411 q 191 425 194 421 q 185 431 188 429 q 185 422 182 432 q 185 415 186 421 q 188 413 185 408 q 193 414 188 417 m 193 292 q 190 293 193 296 q 186 290 182 290 q 193 292 190 289 m 189 315 q 193 323 188 318 q 196 331 199 328 q 188 333 193 333 q 182 331 182 333 q 188 330 183 328 q 186 322 192 332 q 185 313 182 319 q 189 315 188 307 m 186 353 q 188 350 185 350 q 192 353 192 350 q 188 356 192 356 q 186 353 185 356 m 193 358 q 197 357 194 356 q 197 361 200 358 q 193 363 196 364 q 193 358 190 361 m 231 74 q 229 78 231 78 q 226 73 225 79 q 231 74 228 67 m 243 90 q 249 87 246 86 q 249 92 251 88 q 243 95 246 94 q 243 90 240 96 m 321 56 q 324 52 324 47 q 322 60 325 57 q 321 56 319 61 m 336 35 q 339 32 336 32 q 342 35 342 32 q 339 38 342 38 q 336 35 336 38 m 353 39 q 359 31 349 31 q 371 35 369 32 q 367 39 371 36 q 361 44 364 42 q 356 45 358 46 q 353 39 353 44 m 379 25 q 383 24 381 22 q 388 28 386 25 q 383 30 389 32 q 379 25 376 28 m 411 28 q 414 33 417 32 q 408 31 411 35 q 404 26 403 26 q 411 28 406 25 m 440 172 q 442 178 444 176 q 437 179 440 179 q 431 177 433 179 q 431 172 428 175 q 440 172 435 167 m 481 176 q 476 179 482 183 q 475 174 471 175 q 481 176 478 174 m 499 22 q 503 26 506 22 q 499 26 501 29 q 492 29 494 24 q 485 29 488 35 q 486 21 478 19 q 499 22 494 22 m 500 165 q 504 171 504 171 q 501 169 504 171 q 496 163 499 167 q 493 158 493 160 q 500 165 496 158 m 517 24 q 524 19 518 21 q 525 24 531 17 q 517 28 522 26 q 517 24 511 31 m 528 29 q 538 21 532 28 q 547 22 543 14 q 540 26 543 25 q 533 32 538 26 q 525 35 526 39 q 528 29 522 33 m 592 18 q 592 21 594 15 q 588 25 592 25 q 581 25 585 25 q 575 26 578 25 q 572 29 572 26 q 568 34 569 35 q 564 31 567 33 q 558 26 561 28 q 549 29 554 25 q 547 30 546 32 q 551 25 549 28 q 563 19 556 19 q 574 19 569 18 q 581 22 574 22 q 592 18 589 21 m 600 24 q 597 23 594 25 q 603 18 599 21 q 612 15 607 15 q 617 18 617 14 q 608 22 614 21 q 600 24 603 22 m 646 186 q 677 183 657 183 q 717 181 697 182 q 750 181 736 181 q 764 185 764 182 q 757 217 758 186 q 758 282 756 247 q 763 483 760 382 q 746 676 767 583 q 718 740 739 708 q 664 782 697 771 q 636 788 653 785 q 604 785 619 792 q 588 786 596 781 q 551 788 568 793 q 513 782 535 783 q 481 783 500 782 q 440 783 461 783 q 398 784 418 783 q 365 786 378 785 q 328 785 351 786 q 281 783 304 783 q 240 781 258 782 q 218 778 221 779 q 211 768 210 775 q 203 757 213 761 q 196 750 194 751 q 203 753 200 750 q 208 757 207 756 q 210 756 210 758 q 210 742 211 753 q 208 719 208 733 q 206 693 207 706 q 202 671 204 681 q 199 661 200 661 q 200 652 196 658 q 200 643 204 646 q 196 631 196 636 q 197 622 196 626 q 199 614 199 618 q 194 604 199 610 q 190 594 189 594 q 195 579 196 588 q 192 561 194 571 q 190 542 190 551 q 193 525 189 532 q 197 521 197 522 q 194 518 196 519 q 190 515 192 517 q 192 511 189 514 q 192 507 193 507 q 188 501 189 507 q 189 492 186 494 q 192 488 192 489 q 189 490 192 488 q 188 476 182 488 q 186 458 193 465 q 193 433 179 451 q 200 410 196 426 q 201 396 204 393 q 193 394 199 399 q 190 400 188 390 q 187 406 192 407 q 185 400 182 404 q 185 384 190 390 q 172 375 181 378 q 185 369 179 372 q 192 381 190 367 q 194 388 194 388 q 196 385 194 388 q 207 322 206 353 q 224 263 208 290 q 230 248 224 260 q 242 232 236 236 q 250 217 244 224 q 269 208 256 211 q 276 205 274 210 q 282 203 279 200 q 285 200 282 206 q 290 197 285 199 q 301 192 294 194 q 312 188 307 190 q 317 185 317 186 q 322 185 315 182 q 332 186 329 189 q 339 186 339 183 q 346 189 339 189 q 351 185 351 189 q 358 183 351 182 q 365 181 365 183 q 369 178 365 178 q 376 175 374 182 q 385 175 379 168 q 392 185 392 182 q 399 186 390 190 q 406 186 407 182 q 418 187 410 188 q 435 185 426 186 q 451 183 444 183 q 460 186 458 183 q 469 189 463 189 q 476 186 476 189 q 482 185 476 183 q 490 186 483 186 q 503 186 496 186 q 516 187 510 186 q 524 188 522 188 q 530 191 525 190 q 539 189 535 192 q 556 187 542 186 q 575 190 571 188 q 588 192 578 193 q 610 188 599 190 q 619 188 617 188 q 625 189 622 189 q 632 189 628 189 q 646 186 636 189 m 761 904 q 763 901 760 901 q 767 904 767 901 q 763 907 767 907 q 761 904 760 907 m 196 447 q 200 450 200 451 q 198 446 200 449 q 194 441 196 443 q 192 442 192 439 l 193 443 q 196 447 193 444 m 69 207 q 85 197 86 208 q 76 174 85 186 l 71 183 q 69 193 65 193 q 74 201 76 199 q 69 207 71 204 m 64 233 q 67 231 67 233 q 65 225 67 228 q 63 222 64 222 q 61 226 61 221 q 64 233 61 232 m 197 476 q 193 478 194 474 q 192 483 190 482 q 195 484 193 485 q 199 481 197 483 q 197 476 200 478 z "},"1":{"ha":453,"x_min":26,"x_max":426,"o":"m 36 747 q 29 753 32 749 q 29 760 26 757 q 36 760 31 764 q 43 761 42 756 q 44 760 44 763 q 44 753 44 757 q 44 747 44 750 q 43 746 43 744 q 40 747 42 746 q 36 747 39 747 m 51 744 q 53 751 50 751 q 54 744 57 751 q 52 738 53 738 q 51 744 51 738 m 46 794 q 42 792 46 792 q 39 794 39 792 q 42 797 39 797 q 46 794 46 797 m 92 810 q 93 813 92 817 q 93 806 94 808 q 92 805 93 803 q 92 810 92 807 m 63 783 q 56 781 60 783 q 50 782 53 779 q 49 786 49 782 q 49 793 49 790 q 49 797 49 796 q 51 790 50 797 q 52 785 51 786 q 53 786 53 783 q 58 791 54 793 q 63 792 61 789 q 67 791 67 799 q 63 783 67 783 m 60 718 q 65 719 60 725 q 63 714 69 714 q 60 718 60 714 m 49 804 q 42 805 43 803 q 42 821 42 807 q 46 826 42 829 q 50 821 50 825 q 53 821 50 817 q 61 822 56 824 q 69 821 67 821 q 59 828 63 824 q 68 832 56 833 q 69 837 67 832 q 74 847 71 842 q 104 875 85 868 q 139 892 124 882 q 190 920 161 907 q 243 946 219 933 q 257 954 246 951 q 269 961 268 957 q 293 973 281 968 q 321 975 306 978 q 364 964 340 971 q 394 939 388 957 q 399 924 393 932 q 401 910 404 917 q 404 896 399 903 q 406 885 410 889 q 409 876 401 879 q 414 865 417 872 q 415 858 411 858 q 418 854 417 858 q 419 844 419 850 q 420 834 419 839 q 424 829 421 829 q 421 824 426 826 q 417 823 414 817 q 415 831 421 829 q 413 828 411 833 q 411 824 414 824 q 411 817 410 824 q 413 813 414 813 q 409 813 411 813 q 406 811 407 813 q 410 803 406 810 q 414 789 413 799 q 418 783 414 783 q 423 775 424 785 q 419 765 422 765 q 419 764 417 765 q 422 755 422 761 q 420 741 422 749 q 416 726 418 733 q 413 715 414 719 q 413 707 415 713 q 407 703 410 701 q 413 694 410 704 q 410 683 417 683 q 398 681 403 683 q 407 675 393 678 q 413 674 413 675 q 414 661 414 672 q 418 642 414 646 q 422 632 424 635 q 418 628 421 629 q 413 623 415 626 q 417 611 411 619 q 419 595 422 599 q 413 592 417 592 q 409 591 410 592 q 419 582 408 590 q 419 575 422 579 q 414 574 417 571 q 413 572 411 574 q 410 567 414 568 q 414 563 407 565 q 420 553 422 560 q 414 543 418 546 q 408 539 408 543 q 411 529 407 535 q 413 519 418 522 q 410 513 408 515 q 404 507 411 510 q 403 503 396 506 q 408 495 408 500 q 413 488 408 490 q 416 475 417 485 q 407 468 415 465 l 399 469 q 413 446 411 454 q 412 433 414 438 q 406 425 410 429 q 407 414 403 421 q 408 403 407 413 q 403 397 408 393 q 400 399 400 400 q 401 395 400 397 q 401 390 401 393 q 399 389 401 388 q 395 387 396 390 q 396 368 394 383 q 401 363 396 363 q 404 356 408 363 q 397 353 400 350 q 394 351 394 360 q 399 340 393 343 q 400 336 401 339 q 396 335 399 333 q 392 331 393 338 q 388 324 390 324 q 385 319 385 325 q 383 315 386 313 q 380 310 376 317 q 385 310 383 304 q 388 309 389 315 q 383 293 386 303 q 376 274 379 283 q 372 264 372 265 q 370 252 369 261 q 368 244 371 243 q 365 238 365 246 q 363 226 365 229 q 358 219 358 224 q 354 211 358 214 q 349 197 350 208 q 342 181 347 185 q 333 151 339 168 q 322 124 328 133 q 319 116 322 119 q 311 110 315 113 q 304 104 307 107 q 306 99 301 101 q 303 90 308 99 q 296 83 299 81 q 288 81 292 83 q 288 78 285 79 q 289 60 292 67 q 281 49 286 54 q 271 40 276 44 q 265 31 265 36 q 263 28 267 28 q 261 25 258 28 q 260 17 264 22 q 254 11 257 11 q 242 -1 244 8 q 232 -17 239 -10 q 222 -23 226 -21 q 210 -25 218 -25 q 182 -24 190 -24 q 169 -26 174 -25 q 160 -26 164 -26 q 147 -21 157 -25 q 141 -8 136 -15 q 155 6 146 -1 q 173 20 164 14 q 179 33 182 26 q 165 28 176 47 q 157 17 158 13 q 149 15 154 19 q 142 13 144 11 q 133 6 136 10 q 122 6 129 1 q 117 10 117 8 q 119 21 117 11 q 127 35 124 32 q 136 47 131 38 q 124 37 132 44 q 118 40 117 29 q 117 47 118 44 q 115 51 115 49 q 115 55 114 53 q 121 60 115 57 q 136 69 132 67 q 153 86 140 71 q 150 90 156 92 q 138 83 143 88 q 135 78 132 79 q 127 72 138 74 q 114 65 117 69 q 106 63 106 60 q 114 71 106 65 q 121 81 122 76 q 126 89 119 85 q 131 96 132 92 q 136 104 129 99 q 146 113 143 110 q 135 123 139 115 q 139 135 131 131 q 142 142 142 138 q 149 153 143 146 q 168 182 163 168 q 178 203 174 196 q 198 252 190 224 q 217 303 206 281 q 219 313 221 313 q 220 319 217 313 q 222 325 224 326 q 227 338 224 328 q 229 350 231 347 q 231 353 228 353 q 235 357 233 354 q 233 360 235 360 q 231 360 232 360 q 229 361 229 360 q 232 367 229 363 q 237 377 233 374 q 238 389 240 381 q 241 401 235 396 q 239 410 247 407 q 240 415 238 410 q 246 427 243 421 q 249 438 249 433 q 246 439 250 442 q 243 440 246 435 q 246 453 240 444 q 246 467 251 463 q 246 475 243 472 q 250 494 249 482 q 251 520 251 507 q 251 545 251 533 q 251 564 251 557 q 256 580 254 571 q 254 589 257 589 q 254 592 249 589 q 253 606 257 599 q 254 622 250 613 q 254 631 258 629 q 254 636 250 632 q 257 647 257 639 q 258 697 257 656 q 258 724 258 717 q 254 733 257 732 q 254 742 251 735 q 256 749 258 749 q 249 747 254 750 q 238 742 243 744 q 229 739 232 739 q 222 736 222 739 q 213 733 221 733 q 203 729 204 732 q 197 725 203 725 q 190 722 190 725 q 178 711 188 719 q 163 703 168 703 q 149 701 156 703 q 135 703 142 700 q 121 701 126 704 q 111 695 115 697 q 106 697 107 693 q 107 719 104 701 q 87 717 99 717 q 79 731 75 718 q 76 736 81 736 q 74 735 74 738 q 74 728 74 732 q 73 720 74 724 q 71 719 72 717 q 70 728 71 721 q 68 740 69 735 q 65 747 67 746 q 63 739 64 749 q 61 736 63 733 q 58 745 60 739 q 55 757 57 751 q 50 763 53 763 q 43 776 39 769 q 53 772 47 782 q 57 769 57 767 q 60 769 57 772 q 69 772 63 765 q 75 785 75 778 q 78 792 75 792 q 79 794 79 792 q 80 801 79 797 q 81 808 81 806 q 82 807 81 810 q 84 797 85 804 q 89 797 83 790 q 102 804 92 804 q 110 815 113 804 q 99 826 110 826 q 79 828 88 825 q 76 829 78 828 q 79 828 76 828 q 90 822 85 825 q 85 818 96 818 q 81 815 79 818 q 81 811 83 813 q 78 808 79 811 q 78 803 78 806 q 77 799 78 800 q 75 800 76 797 q 65 803 74 804 q 54 803 56 801 q 49 804 54 807 m 153 146 q 156 150 156 150 q 153 149 156 150 l 147 143 q 153 146 147 140 m 192 68 q 188 56 188 58 q 192 56 189 54 q 197 63 194 58 q 197 69 199 67 q 192 68 193 71 m 201 219 q 203 217 197 217 q 207 218 210 217 q 201 219 206 219 m 360 424 q 367 426 364 424 q 365 429 367 429 q 360 428 363 429 q 357 425 358 426 q 360 424 356 424 m 357 476 q 360 475 357 472 q 360 480 363 478 q 357 476 357 482 m 367 513 q 365 519 372 518 q 360 514 357 521 q 367 513 360 501 m 381 563 q 369 562 375 564 q 362 558 364 560 q 362 555 360 556 q 374 558 364 554 l 381 563 m 368 675 q 369 672 367 672 q 374 674 372 672 q 370 678 374 676 q 368 675 367 679 m 378 625 q 369 625 372 628 q 373 624 365 624 q 378 625 381 624 m 375 704 q 378 701 376 701 q 379 704 379 701 q 376 708 381 707 q 375 704 372 708 m 399 768 q 391 774 397 776 q 392 765 385 771 q 399 768 399 760 m 375 843 q 378 835 374 838 q 381 828 383 833 q 378 813 374 813 q 385 824 382 813 q 388 835 385 835 q 390 844 393 838 q 383 843 388 851 q 379 844 382 838 q 375 843 376 850 m 378 764 q 374 767 379 768 q 372 763 369 765 q 378 764 375 760 m 376 693 q 367 697 374 696 q 368 692 361 697 q 376 690 371 689 q 376 693 381 690 m 368 575 q 362 574 368 581 q 363 569 356 568 q 368 575 368 572 m 357 544 q 357 538 356 543 q 361 533 358 532 q 361 539 367 533 q 360 541 360 540 q 358 543 360 542 l 357 544 m 364 490 q 359 493 365 493 q 353 490 353 493 q 358 487 354 486 q 364 490 361 488 m 125 831 q 122 824 122 829 q 122 814 121 818 q 125 809 124 810 q 126 817 126 808 q 128 826 124 822 q 125 831 133 831 m 111 800 q 108 801 111 804 q 105 798 101 799 q 111 800 108 797 m 79 828 q 76 829 76 828 q 79 828 76 829 m 419 506 q 417 501 419 501 q 414 506 414 501 q 417 510 414 510 q 419 506 419 510 m 400 318 q 394 316 399 315 q 392 319 390 317 q 395 322 390 324 q 400 318 400 321 z "},"2":{"ha":883,"x_min":24,"x_max":856,"o":"m 51 161 q 49 158 53 158 q 47 161 44 157 q 50 164 49 164 q 51 161 51 164 m 782 11 q 763 13 779 13 q 728 14 747 14 q 694 13 710 14 q 675 11 678 11 q 582 16 633 15 q 472 16 531 17 q 347 15 413 15 q 215 15 282 14 q 177 15 203 17 q 125 15 151 14 q 78 22 99 17 q 58 43 58 28 q 57 53 61 53 q 50 49 53 54 q 43 49 47 42 q 43 61 39 56 q 48 82 49 78 q 40 92 47 86 q 37 93 39 94 q 33 90 35 92 q 30 90 31 89 q 29 96 29 90 q 33 106 28 103 q 35 115 39 110 q 39 126 24 124 q 46 134 43 126 q 51 149 49 142 q 56 163 54 157 q 61 167 58 168 q 63 172 64 167 q 60 178 63 178 q 54 183 54 179 q 57 190 54 186 q 63 199 60 194 q 67 204 65 203 q 71 207 65 207 q 83 218 75 207 q 128 251 106 240 q 135 253 133 253 q 135 251 136 253 q 135 247 135 249 q 138 246 135 246 q 142 253 140 246 q 142 264 144 261 q 145 272 139 267 q 154 274 151 276 q 160 273 157 271 q 160 278 163 275 q 165 288 158 281 q 175 292 172 294 q 181 289 178 289 q 181 293 183 289 q 184 299 178 297 q 192 304 190 300 q 193 304 192 306 q 202 305 200 301 q 204 313 204 308 q 205 320 204 318 q 210 315 206 322 q 212 312 208 311 q 219 319 215 313 q 224 330 226 326 q 232 339 222 333 q 240 342 236 343 q 244 338 243 340 q 247 335 246 335 q 249 343 249 335 q 253 365 246 356 q 272 381 261 374 q 293 397 282 389 q 311 413 304 404 q 354 447 326 426 q 401 482 382 467 q 423 499 413 489 q 443 514 433 508 q 464 531 438 521 q 476 540 475 535 q 488 549 478 544 q 495 554 494 550 q 499 561 496 558 q 510 563 504 560 q 526 578 515 567 q 544 591 538 590 q 557 600 550 592 q 582 618 568 614 q 607 633 596 622 q 622 644 617 644 q 639 654 628 643 q 652 664 647 663 q 664 669 657 665 q 664 704 667 686 q 654 740 661 722 q 638 772 647 757 q 615 797 628 788 q 554 827 588 819 q 483 838 521 835 q 428 835 453 836 q 380 833 403 835 q 334 828 357 831 q 283 824 311 826 q 262 822 271 824 q 246 817 253 819 q 230 810 239 814 q 208 800 221 806 q 217 790 211 796 q 217 781 224 783 q 214 775 215 779 q 212 765 213 771 q 212 756 211 760 q 214 754 213 753 q 219 751 218 757 q 217 738 219 744 q 215 729 213 731 q 219 728 217 728 q 224 726 222 728 q 219 717 225 725 q 215 708 215 710 q 215 705 214 706 q 217 704 215 704 q 221 701 219 704 q 219 694 224 699 q 221 688 214 689 q 224 686 224 690 q 217 684 219 682 q 211 675 214 686 q 215 671 208 672 q 219 665 221 668 q 210 664 217 663 q 206 666 206 667 q 211 661 206 665 q 215 645 218 658 q 214 625 213 632 q 208 615 213 619 q 201 607 203 610 q 198 597 200 604 q 193 586 196 589 q 180 601 192 597 q 164 592 168 606 q 160 584 163 585 q 156 581 158 583 q 151 580 154 578 q 143 585 147 582 q 135 589 139 588 q 131 588 132 590 q 122 585 128 583 q 110 592 117 588 q 98 601 104 596 q 89 607 92 606 q 80 620 88 604 q 69 646 72 636 q 69 660 68 657 q 71 667 69 664 q 71 676 72 669 q 64 703 69 683 q 63 749 60 725 q 58 800 65 772 q 61 810 58 807 q 61 824 64 813 q 63 839 60 838 q 61 851 67 840 q 54 879 51 865 q 68 893 57 893 q 82 903 76 893 q 86 912 86 911 q 82 910 86 913 q 78 909 75 903 q 76 917 82 915 q 79 918 75 918 q 90 920 83 915 q 93 928 96 925 q 109 946 93 936 q 145 964 125 956 q 184 976 165 972 q 210 979 203 981 q 231 983 218 976 q 249 985 244 990 q 260 985 254 982 q 272 986 265 989 q 282 989 282 986 q 285 991 281 993 q 290 992 290 989 q 283 993 292 993 q 267 993 275 993 q 254 993 258 993 q 260 996 250 993 q 319 1003 292 1000 q 373 1007 346 1006 q 428 1009 400 1008 q 490 1008 456 1010 q 665 969 594 1006 q 776 850 735 932 q 780 848 778 851 q 783 842 782 844 q 785 838 785 839 q 786 843 786 838 q 789 849 786 849 q 794 846 792 849 q 799 839 797 843 q 797 835 800 835 q 792 833 792 835 q 795 828 793 831 q 798 823 797 825 q 794 822 799 821 q 789 818 789 825 q 794 814 789 811 q 799 810 799 814 q 802 808 797 803 q 807 808 807 813 q 810 806 807 806 q 818 796 814 807 q 819 782 822 785 q 819 770 814 779 q 822 756 824 761 q 825 747 822 747 q 825 729 828 746 q 828 710 822 713 q 831 703 832 707 q 828 694 831 699 q 826 685 826 689 q 828 678 825 681 q 833 661 836 669 q 825 647 831 653 q 817 638 819 642 q 822 636 814 635 q 826 635 828 638 q 831 621 826 629 q 829 606 835 613 q 824 606 826 603 q 817 603 821 611 q 813 593 813 596 q 800 581 813 581 q 782 572 788 581 q 774 565 778 565 q 767 558 772 563 q 756 547 763 553 q 743 537 750 542 q 732 532 736 532 q 721 526 729 533 q 710 518 713 518 q 703 515 708 518 q 693 507 699 511 q 683 500 688 503 q 676 497 678 497 q 672 494 669 497 q 667 492 674 492 q 653 483 661 492 q 639 474 646 474 q 622 464 632 475 q 610 455 615 456 q 599 450 606 454 q 597 451 594 447 q 593 451 599 454 q 583 445 590 447 q 583 442 576 443 q 569 427 586 439 q 534 403 553 415 q 502 381 515 390 q 497 369 489 371 q 501 368 501 371 q 499 362 500 365 q 498 357 499 358 q 501 358 497 356 q 507 367 507 361 q 515 381 508 381 q 513 371 521 381 q 514 367 510 365 q 524 373 518 368 q 535 383 529 378 q 540 393 540 389 q 545 401 546 407 q 543 390 544 394 q 552 399 547 393 q 558 408 557 404 q 563 410 561 414 q 572 414 565 407 q 583 418 578 418 q 590 424 588 418 q 626 451 604 438 q 664 476 647 465 q 677 486 675 481 q 685 485 679 492 q 681 474 686 474 q 671 467 675 474 q 661 463 671 461 q 651 464 651 465 q 649 449 657 453 q 632 439 640 446 q 619 431 622 431 q 607 422 617 431 q 597 415 601 415 q 589 410 592 414 q 585 403 589 408 q 576 394 581 399 q 565 385 571 389 q 558 382 560 382 q 533 363 550 376 q 506 342 517 349 q 482 323 490 331 q 458 304 474 315 q 406 263 429 276 q 360 226 382 250 q 346 213 360 219 q 331 203 332 207 q 326 199 329 199 q 321 194 324 199 q 317 190 318 189 q 317 192 317 190 q 316 197 317 194 q 313 200 315 200 q 307 201 310 197 q 306 201 303 207 q 303 196 308 194 q 299 188 297 196 q 304 183 300 179 q 323 184 304 183 q 369 185 342 185 q 430 185 397 185 q 491 185 463 185 q 539 184 519 185 q 561 182 558 183 q 610 185 597 185 q 634 184 622 185 q 667 183 646 183 q 743 185 689 182 q 772 185 763 185 q 785 185 781 186 q 794 182 790 185 q 804 175 797 179 q 781 149 790 164 q 758 132 772 135 q 769 128 757 128 q 796 129 781 129 q 824 126 811 129 q 840 114 838 124 q 844 104 844 106 q 840 103 844 103 q 831 97 838 104 q 826 89 824 89 q 829 88 826 90 q 835 83 832 86 q 840 76 838 79 q 842 75 842 74 q 850 79 844 81 q 854 71 856 78 q 850 62 856 64 q 846 65 844 60 q 844 67 847 68 q 842 59 842 64 q 847 51 843 54 q 849 45 853 49 q 840 38 846 42 q 827 33 833 35 q 822 29 821 31 q 816 19 822 24 q 804 18 810 15 q 792 14 800 19 q 782 11 785 8 m 736 117 q 733 119 738 119 q 729 117 728 119 q 731 114 729 114 q 736 117 733 114 m 729 90 q 723 96 729 94 q 721 90 717 97 q 729 90 729 85 m 817 718 q 812 721 817 721 q 813 718 807 721 q 817 718 821 711 m 803 800 q 802 781 803 794 q 803 765 801 767 q 808 767 806 765 q 810 781 815 768 q 803 800 806 793 m 790 829 q 786 832 790 832 q 785 829 782 832 q 790 829 789 824 m 703 857 q 696 856 700 860 q 700 854 692 851 q 703 857 706 854 m 132 624 q 131 618 129 618 q 137 620 133 618 q 143 626 140 622 q 146 631 146 629 q 140 636 144 639 q 132 624 135 633 m 493 364 q 490 365 493 367 q 488 361 486 363 q 491 359 488 357 q 493 364 494 361 m 465 353 q 460 344 454 347 q 468 346 465 342 q 476 352 467 349 q 478 358 485 356 q 479 361 472 361 q 485 365 486 361 q 476 364 482 374 q 465 353 471 354 m 426 311 q 426 313 429 313 q 420 314 424 314 q 414 313 417 314 q 415 311 411 313 q 426 311 421 308 m 364 274 q 360 276 365 276 q 357 274 356 276 q 360 271 357 271 q 364 274 363 271 m 68 96 q 57 94 57 96 q 61 90 57 92 q 71 88 65 88 q 78 92 76 88 q 68 96 78 97 m 278 261 q 272 263 282 272 q 272 256 269 256 q 278 261 275 257 m 282 276 q 285 276 281 274 q 290 279 290 278 q 285 279 289 279 q 282 276 281 279 m 308 157 q 303 160 311 164 q 293 157 296 156 q 292 154 290 156 q 298 152 294 153 q 305 153 301 151 q 308 157 308 154 m 363 151 q 364 149 358 149 q 368 151 369 149 l 368 150 q 363 151 367 151 m 382 153 q 383 149 376 147 q 388 154 389 151 q 382 153 385 156 m 472 149 q 476 145 474 146 q 479 147 479 144 q 475 150 481 149 q 472 149 469 151 m 592 140 q 596 137 592 138 q 601 139 600 136 q 597 142 601 140 q 592 140 592 143 m 221 628 q 220 635 221 632 q 222 639 219 638 q 224 635 224 639 q 224 628 225 632 q 222 624 222 625 q 221 628 221 622 m 222 656 q 223 650 225 653 q 221 653 221 647 q 222 656 221 657 m 817 156 q 808 153 814 157 q 801 154 801 150 q 806 162 801 160 q 815 163 811 164 q 821 160 819 163 q 817 156 822 158 m 815 169 q 818 172 815 172 q 823 170 821 171 q 826 168 825 169 q 822 167 826 167 q 815 169 815 167 m 719 506 q 711 501 719 503 q 704 503 703 500 q 747 531 724 514 q 785 556 769 547 q 778 546 785 551 q 765 535 772 540 q 750 524 757 529 q 742 518 743 519 q 731 510 740 513 q 719 506 722 508 m 700 492 q 704 498 703 497 q 703 492 706 499 q 698 485 700 486 q 700 492 696 485 m 572 418 q 575 425 572 419 q 578 424 578 431 q 576 418 578 421 q 572 418 574 415 z "},"3":{"ha":881,"x_min":28,"x_max":854,"o":"m 568 676 l 567 676 l 568 676 m 840 121 q 838 117 838 119 q 844 118 839 115 q 848 113 851 121 q 837 94 844 104 q 819 76 829 85 q 800 71 808 68 q 785 64 797 68 q 769 64 774 60 q 767 64 764 67 q 758 56 767 60 q 747 56 749 51 q 735 60 744 60 q 727 61 729 60 q 723 63 725 63 q 719 63 721 64 q 711 60 717 63 q 694 56 700 53 q 681 57 689 60 q 656 56 674 51 q 633 60 639 61 q 642 54 633 56 q 653 50 650 53 q 666 49 657 44 q 681 46 675 53 l 689 40 q 659 41 672 38 q 631 51 646 44 q 611 56 617 60 q 619 51 606 53 q 632 42 642 44 q 601 40 622 40 q 559 38 581 39 q 535 36 538 38 q 434 39 489 38 q 323 40 379 40 q 213 39 267 40 q 114 33 158 38 q 102 38 110 32 q 92 39 94 44 q 85 42 89 36 q 76 47 82 49 q 67 49 71 44 q 53 51 63 49 q 36 61 43 54 q 33 74 33 65 q 31 89 33 83 q 28 101 28 99 q 35 104 28 103 q 47 112 39 106 q 58 115 56 118 q 58 118 61 113 q 60 124 56 124 q 65 126 65 124 q 61 128 67 131 q 58 129 56 126 q 65 131 60 133 q 72 132 69 129 q 75 138 74 135 q 78 142 76 140 q 85 140 81 143 q 94 140 89 140 q 105 140 100 139 q 111 142 110 140 q 107 150 113 144 q 97 170 101 156 q 96 193 93 185 q 102 200 97 199 q 110 199 107 201 q 128 196 117 196 q 150 193 139 196 q 190 188 175 189 q 219 188 206 188 q 247 189 232 189 q 286 183 263 189 q 292 185 292 182 q 298 187 292 189 q 306 188 304 185 q 318 189 306 189 q 347 189 331 189 q 379 188 363 189 q 406 186 396 188 q 417 188 417 183 q 422 190 417 190 q 433 189 426 190 q 447 185 440 188 q 457 182 454 183 q 470 181 463 178 q 485 183 478 185 q 490 185 490 181 q 497 186 489 188 q 504 188 504 185 q 513 189 504 189 q 532 184 522 186 q 543 181 542 182 q 559 183 547 182 q 584 185 571 185 q 609 186 597 186 q 625 185 621 186 q 638 183 635 179 q 651 185 640 188 q 662 183 654 185 q 677 182 669 182 q 691 183 685 182 q 696 189 697 185 q 699 197 696 196 q 706 193 703 197 q 706 199 707 190 q 704 222 706 208 q 701 247 703 235 q 696 263 699 260 q 694 260 692 263 q 693 256 694 258 q 690 251 692 253 q 688 251 689 250 q 688 257 686 251 q 681 274 688 264 q 685 286 675 283 q 688 279 688 285 q 692 276 690 269 q 686 290 694 283 q 679 299 679 296 q 680 302 679 301 q 682 305 681 303 q 679 314 683 307 q 674 326 671 324 q 671 338 676 329 q 663 347 665 347 q 658 351 658 347 q 660 363 663 358 q 647 379 658 367 q 638 394 640 386 q 626 397 635 401 q 621 394 625 394 q 613 394 617 393 q 606 399 608 396 q 604 407 603 403 q 601 410 606 410 q 597 411 597 408 q 596 417 596 414 q 595 424 596 421 q 589 426 594 428 q 585 430 582 426 q 581 435 588 433 q 572 435 578 436 q 567 439 567 435 q 556 447 568 442 q 546 454 544 451 q 535 457 544 457 q 525 451 525 457 q 519 450 524 446 q 510 452 515 454 q 507 458 506 450 q 503 474 510 468 q 494 464 496 479 q 486 474 492 472 q 475 481 481 476 q 467 483 472 485 q 460 486 463 481 q 453 490 456 493 q 444 488 451 488 q 428 486 431 489 q 425 480 425 483 q 424 474 425 476 q 411 475 422 472 q 406 480 408 478 q 408 479 404 482 q 400 485 417 482 q 356 488 383 489 q 283 497 311 489 q 240 535 254 506 l 249 538 q 253 540 251 539 q 251 542 254 542 q 246 546 246 542 q 242 550 246 550 q 238 553 236 549 q 243 563 239 557 q 251 575 247 569 q 254 582 256 581 q 264 590 251 586 q 292 595 276 593 q 322 597 308 597 q 338 596 336 597 q 343 600 343 596 q 336 603 343 604 q 326 606 326 603 q 315 610 326 608 q 297 622 293 618 q 318 628 300 626 q 364 628 336 629 q 419 626 392 626 q 467 624 446 625 q 493 626 488 624 q 496 628 493 628 q 503 628 499 628 q 510 627 507 628 q 513 628 513 626 q 530 631 515 631 q 547 636 544 631 q 557 642 549 640 q 573 644 565 643 q 584 649 581 646 q 582 658 588 651 q 577 663 576 663 q 586 661 578 664 q 595 659 593 658 q 603 667 597 660 q 612 674 608 674 q 618 681 615 674 q 608 675 618 685 q 601 669 604 669 q 597 669 599 668 q 593 671 594 669 q 592 669 592 672 q 586 669 592 667 q 576 669 581 672 q 567 671 572 667 q 558 675 558 676 q 560 669 558 674 q 562 660 561 665 q 557 656 563 656 q 551 663 553 660 q 547 669 550 667 q 540 670 544 671 q 524 665 535 669 q 501 659 510 661 q 493 665 493 657 q 492 670 489 668 q 499 671 494 672 q 505 671 500 669 q 515 674 510 672 q 524 676 519 675 q 528 675 528 676 q 531 676 528 671 q 537 682 533 682 q 543 686 540 682 q 549 690 549 690 q 549 686 550 689 q 547 680 547 683 q 547 675 546 676 q 552 680 551 678 q 560 681 553 682 q 569 685 571 678 q 565 690 568 693 q 560 689 563 686 q 560 693 558 692 q 576 707 565 699 q 597 724 586 715 q 617 740 607 732 q 631 756 626 749 q 634 763 629 757 q 646 774 639 768 q 658 786 653 781 q 663 793 664 792 q 666 802 661 797 q 674 804 671 807 q 674 836 667 815 q 688 868 681 857 q 592 865 646 868 q 482 860 539 863 q 369 855 425 857 q 267 851 313 853 q 234 853 254 853 q 196 853 214 853 q 166 854 178 853 q 158 863 154 856 q 155 869 164 868 q 144 868 146 869 q 134 870 142 867 q 124 876 126 874 q 115 886 113 883 q 124 896 117 889 q 121 897 124 900 q 117 900 117 894 q 118 912 117 906 q 120 922 119 918 q 118 922 121 926 q 115 922 113 915 q 124 931 118 929 q 148 944 146 940 q 157 954 150 947 q 169 964 168 958 q 171 979 171 969 q 153 961 161 971 q 149 976 158 982 q 132 961 139 971 l 132 971 q 132 981 133 981 q 128 977 131 981 q 123 969 126 974 q 117 968 119 965 q 113 970 115 971 q 109 968 111 969 q 104 967 107 967 q 100 975 101 968 q 115 987 108 983 q 126 992 121 990 q 136 994 131 993 q 149 997 142 994 q 156 997 156 1003 q 163 994 156 990 q 188 1000 168 999 q 213 1006 207 1001 q 218 1008 214 1007 q 226 1009 222 1008 q 230 1009 229 1010 q 225 1006 231 1008 q 220 1001 219 1001 q 229 1003 221 1000 q 237 1002 235 1003 q 241 1001 239 1001 q 246 1000 243 1000 q 256 1003 249 1000 q 276 1008 274 1007 q 277 1007 279 1008 q 272 1003 275 1006 q 274 1000 268 1001 q 283 1000 279 997 q 290 1000 288 1003 q 297 1000 292 997 q 308 1006 303 1003 q 316 1010 313 1010 q 315 1006 319 1011 q 315 1001 313 1003 q 320 1000 317 1000 q 328 1000 324 1000 q 332 999 332 1000 q 341 1003 335 996 q 346 1006 347 1010 q 349 1000 343 1000 q 352 999 353 1000 q 350 997 351 999 q 348 995 349 996 q 351 996 347 994 q 365 1000 363 1000 q 367 997 368 1000 q 369 997 365 994 q 379 1001 374 999 q 389 1003 385 1003 q 392 997 393 1003 q 393 992 392 992 q 397 995 394 993 q 401 999 399 997 q 407 999 404 1001 q 413 1001 415 997 q 417 1003 410 1004 q 442 1001 435 1000 q 463 1000 450 1003 q 466 1005 472 1003 q 449 1006 460 1007 q 436 1006 442 1004 q 428 1008 431 1007 q 431 1011 426 1010 q 449 1011 435 1013 q 481 1007 468 1010 q 490 1000 493 1004 q 494 1000 490 997 q 496 997 499 1001 q 494 992 493 993 q 497 993 496 992 q 499 998 499 994 q 496 1004 500 1001 q 496 1008 492 1008 q 508 1008 500 1008 q 523 1005 515 1007 q 532 1003 531 1003 q 535 1005 535 1003 q 535 1008 535 1007 q 538 1010 535 1010 q 549 1010 540 1011 q 572 1004 560 1010 q 589 1007 583 999 q 594 1009 588 1010 q 610 1006 601 1008 q 614 1007 617 1000 q 617 1010 611 1010 q 629 1008 622 1010 q 650 1006 638 1007 q 656 1007 657 1003 q 664 1008 656 1011 q 708 1007 682 1010 q 754 1003 735 1004 q 779 997 767 1000 q 801 991 792 994 q 813 985 810 988 q 811 983 817 983 q 796 974 800 979 q 779 981 792 969 q 794 969 782 974 q 806 974 807 965 q 807 976 803 978 q 811 972 811 976 q 817 965 810 968 q 824 958 824 961 q 829 942 826 951 q 832 926 832 933 q 832 917 835 921 q 833 908 829 913 q 833 903 838 906 q 831 897 828 900 q 828 894 833 893 q 822 893 824 896 q 824 892 818 889 q 827 890 828 893 q 833 888 826 886 q 840 881 840 890 q 832 875 840 872 q 828 872 825 878 q 832 869 828 865 q 836 864 836 869 q 839 856 836 858 q 839 847 844 850 q 835 840 833 843 q 828 820 833 833 q 826 792 824 807 q 824 782 828 786 q 817 774 821 778 q 812 765 814 769 q 813 756 810 761 q 811 744 815 746 q 808 732 807 743 q 805 715 807 719 q 796 713 803 711 q 792 713 790 714 q 795 708 793 711 q 799 701 797 704 q 797 699 801 699 q 790 697 794 699 q 782 691 785 694 q 778 684 779 688 q 783 678 778 681 q 785 673 788 675 q 779 669 783 671 q 772 664 775 667 q 771 658 768 661 q 769 653 771 653 q 764 654 767 654 q 760 651 761 654 q 760 639 758 649 q 757 638 760 633 q 751 640 753 642 q 749 633 750 638 q 747 626 749 629 q 742 624 746 622 q 731 620 735 624 q 729 614 726 617 q 728 611 732 611 q 724 601 725 608 q 715 596 724 594 q 706 592 713 597 q 704 590 699 588 q 703 585 707 592 q 690 573 697 578 q 679 569 682 568 q 675 563 675 569 q 668 553 675 556 q 663 547 663 549 q 666 543 663 544 q 674 539 669 542 q 683 532 679 536 q 706 508 699 521 q 728 494 714 494 q 740 476 731 489 q 751 461 749 464 q 756 455 753 460 q 763 444 760 450 q 768 434 765 439 q 769 426 771 429 q 774 421 768 422 q 786 406 782 418 q 792 388 790 393 q 803 369 799 382 q 813 342 808 357 q 820 314 817 328 q 826 290 824 300 q 830 280 828 283 q 834 271 832 276 q 838 256 836 265 q 843 228 840 246 q 844 206 844 218 q 849 185 844 193 q 850 175 854 179 q 847 166 847 172 q 850 157 847 160 q 853 149 853 156 q 851 137 853 143 q 846 126 849 131 q 840 121 843 121 m 829 926 q 826 929 829 928 q 824 928 824 931 q 826 924 824 925 q 829 926 829 924 m 792 878 q 788 879 789 882 q 787 872 786 876 q 790 867 788 868 q 794 871 792 865 q 792 878 794 875 m 760 733 q 753 737 761 739 q 751 735 744 735 q 758 728 757 733 q 760 733 758 724 m 764 728 q 764 735 767 731 q 763 733 763 739 q 764 728 763 726 m 757 988 q 753 988 753 989 q 754 984 753 986 q 758 979 756 982 q 760 975 760 976 q 768 972 758 972 q 776 975 778 972 q 769 975 774 978 q 763 980 764 974 q 757 988 763 986 m 750 975 q 751 972 747 972 q 754 975 754 972 q 753 978 754 978 q 750 975 751 978 m 731 979 q 726 981 726 983 q 728 976 726 979 q 733 972 731 974 q 736 974 736 969 q 731 979 736 976 m 471 986 q 475 983 468 983 q 481 985 482 983 q 476 988 481 988 q 471 986 472 989 m 475 1003 q 478 1001 471 1001 q 482 1003 485 1001 q 475 1003 478 1006 m 486 981 q 487 978 481 976 q 492 982 493 981 q 486 981 489 983 m 535 982 q 538 985 532 988 q 542 986 543 982 q 532 988 542 992 q 529 983 528 986 q 526 982 531 979 q 522 981 521 982 q 525 978 522 979 q 531 978 528 978 q 535 982 535 979 m 590 979 q 588 982 593 985 q 583 988 583 985 q 571 989 583 992 q 565 992 568 988 q 563 993 563 997 q 566 988 563 989 q 568 979 569 986 q 569 976 568 974 q 572 981 569 978 q 575 986 574 983 q 579 986 576 989 q 579 978 583 982 q 583 974 574 972 q 590 979 592 976 m 604 975 q 604 981 607 978 q 603 979 603 985 q 604 975 603 974 m 624 979 q 622 982 626 982 q 618 979 617 982 q 620 977 618 976 q 624 979 622 978 m 639 978 q 646 976 646 975 q 642 986 646 978 q 639 993 640 993 q 636 990 638 993 q 635 983 635 986 q 639 978 636 979 m 408 486 q 414 486 414 483 q 408 489 414 489 q 408 486 401 489 m 718 981 q 713 983 715 983 q 714 979 710 983 q 719 976 717 975 q 718 981 721 976 m 708 974 q 701 980 708 975 q 699 978 694 985 q 703 972 699 974 q 708 974 708 971 m 678 978 q 685 974 676 975 q 688 978 693 974 q 679 981 683 981 q 678 978 675 981 m 689 815 q 683 816 690 818 q 676 813 675 814 q 681 811 676 810 q 689 815 686 813 m 669 792 q 667 788 665 788 q 674 790 669 788 q 684 795 679 792 q 690 801 689 799 q 690 804 693 806 q 683 800 688 803 q 674 794 679 797 q 669 792 669 790 m 660 750 q 663 757 657 757 q 674 765 667 757 q 679 776 682 774 q 671 776 676 781 q 668 768 665 771 q 668 767 669 765 q 652 758 665 769 q 624 733 639 747 q 595 708 608 719 q 579 697 582 696 q 574 690 569 696 q 583 685 579 685 q 585 679 594 682 q 568 676 575 676 l 567 676 l 568 676 q 582 676 574 676 q 592 678 590 675 q 597 682 592 682 q 602 686 604 685 q 596 688 600 688 q 587 689 592 689 q 582 692 582 689 q 590 694 581 694 q 599 696 600 693 q 594 697 597 699 q 593 700 590 694 q 603 703 599 706 q 613 707 608 700 q 620 712 615 713 q 621 707 625 711 q 621 697 617 703 q 625 701 625 692 q 630 708 622 706 q 638 714 638 711 q 646 717 638 717 q 651 721 654 715 q 654 732 647 726 q 656 739 657 736 q 657 742 654 742 q 660 750 661 742 m 117 144 q 119 136 114 144 q 124 138 129 126 q 117 144 119 144 m 114 125 q 117 124 110 124 q 122 125 125 124 q 114 125 117 128 m 114 106 q 117 103 111 103 q 121 106 122 103 l 114 106 m 89 76 q 93 90 96 78 q 85 97 90 101 q 81 86 81 94 q 76 75 81 78 q 78 72 72 71 q 89 76 85 72 m 76 128 q 84 126 78 128 q 97 124 90 125 q 106 124 103 124 q 106 128 110 125 q 92 130 103 131 q 76 128 82 129 m 103 82 q 103 76 100 78 q 113 74 107 74 q 124 75 119 74 q 128 79 129 76 q 126 85 126 86 q 124 82 125 85 q 121 78 122 79 q 118 81 119 76 q 114 81 117 83 q 108 85 111 79 q 103 82 104 89 m 129 122 q 132 121 125 121 q 136 122 139 121 q 129 122 132 125 m 135 99 q 139 90 131 96 q 144 90 147 85 q 142 100 142 93 q 135 99 142 107 m 151 86 q 148 85 147 86 q 151 82 149 83 q 155 81 153 81 q 156 83 157 81 q 151 86 156 86 m 154 100 q 151 99 149 104 q 158 96 153 93 q 154 100 158 97 m 206 94 q 210 94 211 88 q 204 97 208 97 q 206 94 200 97 m 226 74 q 227 78 229 78 q 222 75 225 79 q 221 71 218 71 q 226 74 224 71 m 233 94 q 243 96 249 86 q 240 98 243 97 q 234 98 238 99 q 230 97 231 97 q 233 94 229 96 m 331 65 q 332 62 329 63 q 336 64 335 61 q 333 67 336 65 q 331 65 329 68 m 354 67 q 359 63 353 64 q 365 64 365 63 q 360 67 365 67 q 354 67 356 68 m 382 93 q 385 92 378 92 q 389 93 392 92 q 382 93 385 96 m 410 86 q 411 83 407 83 q 414 86 415 83 q 413 89 414 89 q 410 86 411 89 m 424 71 q 421 67 418 71 q 428 62 424 64 q 438 60 433 60 q 439 68 442 61 q 431 72 436 75 q 424 71 426 68 m 464 60 q 463 63 468 60 q 453 64 449 68 q 464 60 457 60 m 468 86 q 466 90 472 93 q 463 83 460 86 q 468 86 465 83 m 482 61 q 485 60 476 60 q 490 61 493 60 q 482 61 488 64 m 500 58 q 501 65 506 54 q 499 67 499 75 q 500 58 499 60 m 511 60 q 517 58 511 58 q 527 57 522 57 q 534 58 532 57 q 531 61 536 58 q 517 63 525 64 q 511 60 508 63 m 561 86 q 565 91 567 89 q 560 89 563 93 q 553 88 558 85 q 553 85 549 90 q 561 86 557 79 m 633 82 q 640 86 640 75 q 643 95 639 90 q 644 100 647 100 q 637 92 642 100 q 633 82 632 85 m 646 83 q 647 80 643 79 q 650 83 650 81 q 649 86 650 86 q 646 83 647 86 m 686 89 q 684 85 683 88 q 686 80 685 82 q 690 78 688 78 q 690 85 692 79 q 686 89 690 93 m 694 74 q 697 75 696 74 l 699 76 q 697 80 699 81 q 693 78 694 79 q 691 74 692 76 q 694 74 690 72 m 724 83 q 723 87 726 86 q 718 85 719 88 q 719 81 717 82 q 724 83 721 81 m 725 71 q 728 70 725 68 q 731 75 732 72 q 727 76 731 78 q 725 71 724 74 m 731 99 q 730 93 722 97 q 736 96 738 89 q 731 99 733 99 m 744 68 q 748 74 749 74 q 744 72 747 74 q 739 67 742 69 q 736 63 736 64 q 744 68 739 63 m 767 83 q 768 80 764 79 q 772 83 772 81 q 767 83 771 88 m 650 319 q 657 322 650 324 q 666 317 669 322 q 661 314 663 311 q 654 316 660 318 q 650 319 649 314 m 571 658 q 569 656 571 656 q 567 658 568 656 q 568 661 564 661 q 571 658 572 661 m 514 643 q 513 645 513 644 q 517 644 514 646 q 520 641 524 642 q 514 643 517 640 m 533 661 q 533 658 540 657 q 526 661 526 658 q 526 664 524 664 q 533 661 529 664 m 479 669 q 484 666 486 669 q 476 658 482 663 q 467 653 471 654 q 465 656 463 651 q 471 658 465 658 q 475 665 475 658 q 479 669 475 671 m 522 646 q 521 649 517 650 q 526 646 525 649 q 522 646 528 642 m 464 663 q 460 660 463 660 q 458 664 457 661 q 460 665 457 667 q 464 663 464 664 m 386 644 q 395 649 393 649 q 394 644 397 649 q 385 640 392 642 q 386 644 379 639 m 644 365 q 651 361 650 365 q 649 353 651 357 q 643 348 647 350 q 636 350 639 346 q 638 355 631 356 q 642 360 644 354 q 644 365 639 365 m 447 653 q 440 649 447 650 q 440 653 433 649 q 447 656 444 656 q 447 653 450 656 m 682 196 q 685 202 681 203 q 690 196 690 201 q 686 190 690 190 q 682 196 682 190 m 644 375 q 649 372 651 375 q 642 367 647 369 q 631 364 636 364 q 626 368 626 364 q 631 380 629 378 q 635 381 633 382 q 638 377 636 379 q 644 375 640 375 m 679 247 q 681 249 679 251 q 681 243 682 246 q 679 247 679 240 m 663 304 q 669 294 667 304 q 675 286 671 285 q 678 279 681 286 q 678 271 675 272 q 680 265 681 269 q 678 258 679 261 q 674 253 676 254 q 669 258 671 253 q 672 263 669 263 q 676 265 675 263 q 672 267 676 271 q 665 276 668 264 q 665 294 661 288 q 664 296 668 299 q 657 297 660 293 q 656 308 653 303 q 660 307 660 313 q 663 304 657 304 m 674 306 q 669 308 669 303 q 675 312 669 315 q 674 306 681 308 m 651 344 q 655 342 656 346 q 652 335 654 339 q 647 330 650 332 q 644 332 644 328 q 651 344 644 344 m 426 663 q 419 659 426 660 q 410 661 411 658 q 417 664 408 664 q 426 663 426 664 m 400 642 q 402 645 400 643 q 406 649 404 647 q 410 651 408 651 q 408 646 411 650 q 403 639 406 640 q 400 642 400 638 m 439 661 q 444 665 435 668 q 457 661 453 663 q 447 660 454 661 q 439 661 440 658 m 699 213 q 694 208 699 208 q 690 213 690 208 q 694 217 690 217 q 699 213 699 217 m 297 647 q 289 640 294 642 q 281 642 283 639 q 279 648 278 647 q 284 647 281 649 q 290 645 288 646 q 296 647 293 644 q 297 647 299 650 m 364 647 q 367 644 368 647 q 363 640 365 642 q 359 638 361 639 q 360 642 357 638 q 358 644 363 649 q 351 642 353 639 q 354 647 349 644 q 364 647 360 650 m 339 647 q 344 649 344 650 q 341 645 343 647 q 336 641 339 643 q 333 642 333 639 q 339 647 333 642 m 683 233 q 681 238 681 235 q 685 238 682 242 q 687 233 688 235 q 683 233 686 231 m 661 332 q 661 329 657 332 q 661 326 665 326 q 657 329 657 326 q 660 334 654 335 q 661 332 667 333 m 504 449 q 513 445 515 449 q 499 446 510 442 q 504 449 494 449 m 553 429 q 553 426 554 426 q 546 429 553 426 q 545 432 539 432 q 553 429 551 432 m 585 410 q 578 411 581 408 q 581 413 578 413 q 585 414 583 414 q 588 413 588 414 q 585 410 589 411 m 538 435 q 533 435 542 428 q 532 438 528 438 q 538 435 536 438 m 479 446 q 480 449 476 450 q 486 446 483 449 q 484 443 488 443 q 479 446 481 443 m 439 479 q 440 483 444 478 q 443 483 432 492 q 449 473 447 479 q 454 464 450 467 q 456 467 460 461 q 456 475 453 474 q 465 463 468 468 q 447 465 463 458 q 442 470 440 468 q 440 471 444 472 q 435 474 435 467 q 439 479 435 482 m 468 451 q 471 456 465 454 q 474 463 476 458 q 474 466 471 468 q 481 460 478 464 q 486 453 485 456 q 483 454 488 450 q 476 456 478 458 q 474 452 475 454 q 473 449 474 450 q 468 451 472 447 z "},"4":{"ha":903,"x_min":28,"x_max":875,"o":"m 401 317 q 394 317 392 314 q 393 319 396 319 q 389 317 390 319 q 383 315 389 315 q 369 314 376 314 q 356 314 363 314 q 350 314 350 314 q 340 311 349 311 q 322 312 332 311 q 303 313 313 313 q 292 314 294 314 q 272 310 292 311 q 222 310 253 310 q 167 311 181 310 q 147 315 154 313 q 139 313 144 315 q 128 310 133 311 q 118 308 122 308 q 114 311 114 308 q 113 316 114 317 q 108 314 111 315 q 104 312 106 313 q 103 315 103 311 q 108 321 103 322 q 122 323 118 319 q 140 325 126 326 q 160 327 151 322 q 175 325 169 332 q 181 325 178 322 q 187 328 186 329 q 188 326 188 328 q 188 323 188 325 q 194 324 189 321 q 224 326 204 326 q 247 324 244 326 q 254 318 250 319 q 261 319 258 317 q 270 321 264 324 q 281 324 276 318 q 288 326 289 332 q 290 322 285 322 q 294 325 294 322 q 299 328 293 326 q 310 329 304 329 q 318 328 315 329 q 315 324 321 328 q 315 319 308 318 q 322 324 321 321 q 330 326 324 325 q 343 327 336 328 q 356 325 350 326 q 363 322 363 324 q 369 324 364 321 q 378 329 374 326 q 385 333 383 332 q 383 331 388 335 q 379 327 378 328 q 385 326 381 326 q 393 326 389 326 q 397 322 397 325 q 401 322 397 315 q 415 326 406 326 q 424 321 424 325 q 415 317 422 314 q 401 317 407 319 m 438 326 q 438 321 440 329 q 432 321 436 313 q 433 324 431 326 q 438 326 436 322 m 857 382 q 858 379 851 379 q 864 375 865 379 q 854 369 864 369 q 838 363 847 369 q 831 353 828 356 q 828 343 832 351 q 822 336 825 335 q 819 336 819 342 q 813 333 818 332 q 810 325 808 333 q 807 317 810 317 q 810 306 807 313 q 813 292 814 300 q 814 258 815 274 q 818 226 813 242 q 831 204 821 219 q 838 179 840 189 q 853 155 843 168 q 865 128 864 142 q 869 103 864 117 q 868 76 875 89 q 868 65 865 68 q 867 53 874 63 q 867 40 861 43 q 864 39 869 38 q 858 35 858 40 q 851 21 858 28 q 844 10 844 14 q 837 -2 843 3 q 828 -4 831 -7 q 817 -1 824 -1 q 808 -4 811 -1 q 805 -6 807 -7 q 803 -3 803 -6 q 798 -1 803 -1 q 787 0 793 0 q 776 -1 781 0 q 771 -1 771 -1 q 751 6 764 -6 q 724 34 738 18 q 701 65 711 50 q 694 85 692 81 q 687 106 693 93 q 674 131 681 118 q 664 156 668 143 q 663 176 660 168 q 660 190 665 181 q 653 204 657 190 q 648 236 650 218 q 645 270 646 254 q 644 289 644 286 q 646 308 646 297 q 639 321 646 318 q 628 326 633 318 q 623 332 625 332 q 619 330 621 332 q 614 326 617 328 q 610 326 611 324 q 600 329 607 329 q 590 333 593 329 q 588 333 588 339 q 581 329 588 329 q 571 332 574 329 q 557 335 568 335 q 543 339 546 336 q 511 341 539 340 q 451 342 483 342 q 393 341 419 342 q 364 338 367 340 q 353 340 363 339 q 333 342 344 342 q 313 340 322 342 q 304 336 304 339 q 297 335 296 332 q 292 338 300 339 q 283 340 282 336 q 274 340 283 343 q 228 338 246 333 q 189 336 210 343 q 181 336 183 331 q 174 335 179 342 q 171 336 169 332 q 169 341 172 342 q 160 338 165 340 q 151 335 156 336 q 143 336 146 333 q 119 339 133 338 q 90 343 104 340 q 65 353 76 346 q 50 372 53 360 q 45 380 47 379 q 40 381 43 381 q 34 383 33 379 q 37 392 35 386 q 38 406 39 399 q 28 418 38 413 q 48 435 36 428 q 67 451 60 443 q 77 463 67 457 q 86 472 88 468 q 90 477 86 474 q 99 483 94 481 q 105 489 103 486 q 103 493 107 492 q 101 501 96 500 q 107 504 106 501 q 108 512 107 508 q 110 513 108 515 q 125 519 118 513 q 139 533 132 525 q 153 549 146 542 q 169 558 160 556 q 177 567 178 560 q 181 578 176 575 q 187 587 182 578 q 186 590 192 596 q 178 592 179 585 q 186 601 176 600 q 203 617 194 607 q 201 636 213 626 q 201 642 197 639 q 212 649 206 646 q 224 656 218 653 q 231 661 231 660 q 226 661 229 663 q 219 658 222 660 q 213 656 215 656 q 214 661 211 656 q 229 671 217 664 q 243 681 242 678 q 233 677 238 679 q 228 676 229 675 q 231 682 226 676 q 247 701 235 688 q 253 713 254 708 q 246 710 253 717 q 236 708 236 701 q 243 717 236 714 q 248 722 244 717 q 255 732 251 726 q 260 742 258 738 q 257 744 261 746 q 252 749 250 746 q 260 756 254 751 q 269 765 265 760 q 271 774 274 769 q 272 783 268 778 q 278 791 275 788 q 282 797 281 794 q 279 803 283 800 q 281 807 276 803 q 284 811 285 811 q 281 811 283 811 q 278 812 279 811 q 279 817 276 813 q 287 829 279 824 q 286 842 294 835 q 285 846 282 846 q 291 854 290 846 q 297 865 292 863 q 303 873 303 871 q 299 882 303 875 q 300 892 294 886 q 304 901 306 897 q 306 907 301 904 q 310 915 311 910 q 308 920 311 922 q 306 921 306 918 q 310 926 306 924 q 313 932 315 928 q 321 938 313 938 q 328 941 328 938 q 329 948 329 944 q 331 954 329 951 q 342 957 333 957 q 351 960 350 958 q 352 963 353 961 q 351 965 351 964 q 357 969 351 967 q 368 969 367 974 q 377 965 371 964 q 382 954 383 965 q 390 944 390 946 q 386 941 389 942 q 382 939 383 940 q 388 929 381 938 q 404 876 404 904 q 396 829 404 849 q 393 817 390 824 q 392 799 399 810 q 388 783 385 789 q 390 781 389 779 q 392 785 390 783 q 394 789 393 788 q 396 785 394 790 q 397 775 399 779 q 392 772 394 771 q 388 769 388 775 q 392 767 388 764 q 397 763 397 769 q 394 749 397 757 q 390 735 392 742 q 393 732 389 729 q 396 728 396 733 q 394 716 396 724 q 388 700 392 708 q 381 688 385 692 q 374 680 374 682 q 377 676 375 678 q 380 674 379 675 q 375 668 381 672 q 367 651 368 667 q 360 635 367 636 q 358 626 353 639 q 359 619 364 619 q 356 611 354 618 q 351 603 356 608 q 342 591 347 597 q 333 579 338 585 q 331 571 329 574 q 318 546 328 558 q 301 521 308 533 q 292 506 299 515 q 279 487 286 496 q 267 469 272 478 q 260 460 261 461 q 331 463 283 463 q 435 463 379 463 q 544 464 490 463 q 633 471 597 465 q 641 473 640 469 q 640 481 642 476 q 637 490 639 485 q 636 496 635 494 q 638 531 642 511 q 640 561 635 550 q 644 574 644 564 q 642 595 643 585 q 641 614 642 606 q 643 622 640 622 q 646 631 646 625 q 643 636 646 636 q 642 642 642 636 q 644 653 643 647 q 646 664 646 658 q 644 669 646 669 q 646 675 643 674 q 648 692 649 681 q 650 711 647 704 q 652 729 653 722 q 661 742 651 736 q 663 752 668 744 q 658 764 657 760 q 658 779 658 769 q 664 790 657 789 q 669 795 669 789 q 672 803 669 801 q 672 813 676 804 q 674 824 669 819 q 675 836 678 826 q 673 847 672 843 q 672 858 674 851 q 673 867 669 863 q 674 874 676 871 q 678 888 671 876 q 689 900 685 900 q 690 911 692 900 q 691 919 688 919 q 693 926 694 919 q 696 931 692 932 q 703 938 701 929 q 713 958 706 949 q 735 965 721 967 q 747 963 742 964 q 753 961 751 963 q 743 960 753 958 q 735 957 733 961 q 737 949 729 950 q 742 951 744 947 q 749 953 739 956 q 756 944 758 951 q 761 938 754 938 q 764 943 768 938 q 764 947 761 946 q 771 946 767 947 q 779 944 775 944 q 783 943 783 943 q 786 939 786 943 q 779 937 783 933 q 781 931 775 940 q 785 926 782 919 q 792 929 789 933 q 790 925 793 925 q 790 922 783 925 q 790 918 797 918 q 788 910 788 918 q 793 901 789 901 q 797 894 800 900 q 795 888 793 892 q 793 886 797 885 q 790 884 790 888 q 790 877 789 881 q 792 871 790 874 q 796 872 793 868 q 799 869 800 875 q 799 861 796 863 q 800 853 803 860 q 797 844 797 846 q 800 846 797 842 q 803 846 803 854 q 801 827 803 836 q 797 815 800 818 q 799 807 794 811 q 799 797 801 801 q 796 778 796 790 q 801 761 796 767 q 806 756 806 758 q 803 751 806 753 q 799 746 801 749 q 799 740 797 743 q 797 728 799 731 q 799 718 792 721 q 804 707 807 715 q 803 696 801 701 q 797 688 804 690 q 793 680 789 686 q 801 674 797 674 q 804 670 806 674 q 800 669 803 667 q 796 668 796 669 q 799 663 793 664 q 800 657 804 661 q 801 651 796 651 q 804 651 806 651 q 794 647 803 650 q 794 642 789 646 q 800 638 796 638 q 803 633 803 640 q 800 622 803 625 q 800 615 797 618 q 803 604 804 608 q 801 594 803 600 q 796 583 799 589 q 794 567 793 576 q 795 549 794 553 q 799 547 796 546 q 801 544 800 549 q 803 531 803 539 q 803 517 803 524 q 803 510 803 510 q 798 506 804 506 q 794 500 792 507 q 796 497 793 494 q 800 494 799 499 q 804 497 800 490 q 808 500 808 503 q 806 494 808 499 q 799 484 803 489 q 794 476 796 479 q 797 476 793 474 q 799 479 799 481 q 800 476 800 478 q 800 474 800 475 q 803 478 800 474 q 805 479 806 486 q 801 469 804 472 q 799 467 799 468 q 801 468 799 467 q 809 467 807 469 q 821 467 811 464 q 835 465 828 468 q 849 458 843 463 q 858 449 856 454 q 856 438 860 443 q 856 436 858 436 q 845 431 854 439 q 839 424 836 424 q 843 417 843 422 q 838 415 843 413 q 830 415 829 417 q 833 410 831 413 q 840 407 836 408 q 844 408 844 406 q 853 408 842 411 q 863 410 865 406 q 865 417 860 413 q 874 419 871 421 q 874 412 875 418 q 872 399 874 406 q 868 388 869 393 q 865 383 867 383 q 857 382 860 383 m 803 704 q 798 701 803 703 q 794 701 793 699 q 797 705 793 704 q 803 704 801 706 m 382 754 q 376 751 381 756 q 369 742 372 746 q 367 736 367 738 q 375 743 368 735 q 380 749 378 746 q 382 754 382 751 m 728 119 q 733 119 732 114 q 729 122 733 122 q 728 119 725 122 m 757 54 q 756 61 757 60 q 753 53 753 63 q 757 54 754 44 m 760 917 q 764 914 763 911 q 760 921 765 917 q 756 935 754 931 q 742 942 757 939 q 733 942 735 943 q 733 935 732 942 q 737 928 733 931 q 744 924 740 925 q 753 921 749 922 q 760 917 758 919 m 861 79 q 858 85 861 85 q 854 79 854 85 q 858 75 854 75 q 861 79 861 75 m 854 90 q 848 100 854 96 q 844 92 842 104 q 850 88 846 89 q 854 90 854 88 m 282 868 q 292 874 292 876 q 290 864 293 871 q 284 849 288 857 q 282 839 281 840 q 283 833 285 838 q 277 825 281 829 q 270 817 274 821 q 269 814 267 814 q 272 812 274 817 q 267 799 269 807 q 262 785 264 792 q 263 781 260 779 q 263 775 264 779 q 251 760 258 772 q 246 746 244 749 q 243 740 249 743 q 240 731 239 733 q 233 719 240 728 q 220 699 226 711 q 206 681 214 686 q 214 694 204 681 q 224 715 225 706 q 233 735 222 724 q 240 747 238 738 q 240 757 243 756 q 240 761 238 758 q 256 789 251 768 q 265 825 261 810 q 272 836 264 828 q 274 846 281 844 q 272 849 267 850 q 275 854 278 849 q 277 858 274 860 q 283 861 281 856 q 287 865 288 865 q 284 863 286 864 q 281 863 282 863 q 282 868 279 863 m 800 554 q 803 560 800 558 q 806 558 806 560 q 804 553 806 556 q 801 551 803 551 q 800 554 800 550 m 400 811 q 398 817 397 814 q 401 821 399 821 q 403 813 404 821 q 400 811 403 804 m 768 950 q 763 954 760 951 q 766 955 763 956 q 772 953 769 954 q 775 951 775 951 q 768 950 775 950 m 268 793 q 272 797 268 793 q 276 797 276 799 q 273 793 275 796 q 269 790 271 790 q 268 793 267 789 m 292 881 q 288 878 292 878 q 288 881 285 878 q 290 883 289 883 q 292 881 292 883 m 804 574 q 805 568 807 571 q 803 572 803 565 q 804 574 803 576 z "},"5":{"ha":879,"x_min":26,"x_max":853,"o":"m 803 246 q 806 249 803 249 q 806 244 810 249 q 803 246 801 240 m 751 188 q 753 196 751 196 q 758 192 756 196 q 760 185 760 189 q 760 179 761 181 q 752 167 757 176 q 740 165 747 158 q 738 172 738 169 q 742 177 739 175 q 748 181 744 179 q 751 188 751 183 m 776 206 q 781 210 776 210 q 779 204 783 208 q 776 206 775 200 m 850 549 q 850 532 853 538 q 843 524 847 526 q 835 518 839 521 q 832 508 832 515 q 831 497 832 507 q 829 472 831 486 q 825 422 825 432 q 828 408 825 413 q 828 406 829 406 q 825 406 828 407 q 819 401 822 404 q 814 386 815 397 q 816 374 810 379 q 817 371 822 368 q 810 365 806 372 q 813 357 815 358 q 794 305 806 333 q 776 256 782 276 q 774 251 776 251 q 771 250 772 250 q 769 247 769 250 q 768 235 768 244 q 767 221 768 224 q 763 221 767 218 q 757 218 757 225 q 752 205 757 211 q 744 201 747 199 q 742 199 742 204 q 740 194 742 193 q 735 196 738 194 q 731 196 733 197 q 729 186 729 194 q 730 171 726 175 q 736 160 733 167 q 740 158 736 156 q 744 157 744 161 q 740 149 744 153 q 739 141 733 140 q 751 151 744 142 q 767 171 764 167 q 768 178 769 175 q 771 186 768 181 q 772 189 774 189 q 768 188 771 189 q 763 188 765 188 q 763 192 761 189 q 765 197 763 197 q 771 195 768 197 q 776 192 774 193 q 781 194 779 190 q 785 199 782 199 q 787 199 785 197 q 790 204 789 201 q 792 209 792 207 q 790 210 792 211 q 789 213 788 210 q 786 222 792 219 q 788 233 781 225 q 796 235 792 238 q 799 226 800 233 q 800 224 796 217 q 807 233 804 232 q 807 226 807 231 q 807 216 807 221 q 806 209 807 211 q 801 213 804 207 l 801 210 q 799 194 804 193 q 789 192 794 194 q 785 189 792 189 q 779 183 779 189 q 776 176 779 178 q 774 165 774 174 q 767 147 774 156 q 756 131 760 138 q 751 124 753 131 q 744 118 749 117 q 742 117 742 121 q 738 114 742 114 q 736 110 733 114 q 733 104 740 104 q 724 102 728 106 q 719 96 719 99 q 718 89 721 96 q 670 56 699 74 q 617 31 642 38 q 607 27 608 32 q 597 22 606 22 q 579 15 586 24 q 560 8 572 6 q 494 -1 531 1 q 426 -7 457 -3 q 289 8 353 -3 q 167 56 225 18 q 160 62 165 58 q 149 69 156 65 q 139 74 143 72 q 135 78 135 76 q 131 81 135 81 q 126 83 126 81 q 122 86 126 86 q 103 105 118 92 q 72 135 88 118 q 48 167 57 151 q 47 192 39 182 q 46 194 50 194 q 42 199 43 194 q 42 209 42 203 q 42 221 42 215 q 40 226 42 226 q 45 245 39 232 q 50 263 51 258 q 56 271 50 269 q 69 281 65 276 q 76 288 74 285 q 81 292 78 290 q 90 297 83 294 q 140 298 124 301 q 176 274 157 294 q 215 236 193 253 q 260 206 238 219 q 322 185 288 193 q 393 176 357 178 q 465 176 429 174 q 531 185 501 179 q 540 190 538 185 q 551 196 542 194 q 564 201 563 199 q 571 203 565 203 q 576 206 576 203 q 589 213 581 208 q 603 218 597 217 q 609 224 610 218 q 614 231 608 229 q 622 237 617 231 q 631 243 628 243 q 651 268 640 251 q 673 303 663 285 q 692 341 683 322 q 703 372 700 360 q 712 381 703 378 q 717 392 721 385 q 715 399 714 397 q 719 400 717 400 q 722 401 721 400 q 718 410 722 403 q 719 448 717 435 q 724 467 722 461 q 722 472 725 472 q 707 469 719 471 q 669 463 694 467 q 601 460 644 460 q 499 457 560 457 q 373 458 438 457 q 248 458 308 458 q 147 454 188 458 q 147 451 153 451 q 144 446 142 451 q 135 435 146 442 q 125 436 125 429 q 118 435 124 440 q 92 433 108 428 q 68 446 76 439 q 65 451 65 446 q 62 461 67 457 q 57 468 57 465 q 47 484 50 474 q 41 506 43 494 q 38 529 39 518 q 35 549 36 540 q 33 574 31 558 q 31 596 36 589 q 30 614 26 599 q 31 635 33 629 q 33 652 26 639 q 38 669 39 665 q 34 709 35 685 q 32 753 33 733 q 38 775 32 764 q 36 797 43 786 q 34 805 35 797 q 33 821 33 813 q 32 837 32 829 q 31 844 32 844 q 34 856 28 846 q 36 867 40 865 q 40 882 33 869 q 46 897 46 894 q 52 901 46 904 q 54 903 58 899 q 53 907 51 904 q 56 911 54 910 q 58 913 58 913 q 53 913 58 914 q 44 914 49 911 q 47 918 40 917 q 49 924 53 918 q 42 926 43 926 q 40 931 40 924 q 42 936 39 938 q 44 935 43 933 q 44 939 44 936 q 42 943 44 943 q 47 953 39 944 q 57 965 56 963 q 63 956 58 963 q 68 951 67 949 q 77 960 71 956 q 85 971 83 964 q 97 985 85 982 q 117 988 110 988 q 196 983 151 983 q 288 984 240 983 q 378 986 335 985 q 454 985 422 988 q 524 983 483 983 q 606 980 564 982 q 686 973 647 978 q 753 958 725 968 q 767 949 760 956 q 779 935 775 942 q 781 922 783 928 q 767 915 779 917 q 750 907 751 913 q 735 903 749 901 q 729 901 728 903 q 733 899 731 900 q 734 896 735 897 q 721 893 733 894 q 715 892 713 893 q 714 885 721 892 q 714 881 707 878 q 722 888 717 883 q 725 882 726 893 q 726 881 722 876 q 731 878 729 881 q 735 874 733 876 q 738 872 736 872 q 744 878 740 872 q 750 881 749 882 q 751 877 751 879 q 752 874 751 875 q 756 875 753 872 q 763 878 758 881 q 760 873 764 875 q 758 868 756 871 q 756 861 758 861 q 749 862 753 861 q 740 864 744 863 q 735 861 736 865 q 722 856 731 856 q 711 851 714 857 q 707 851 708 847 q 699 854 706 854 q 685 853 693 854 q 670 850 678 853 q 660 844 663 847 q 656 843 653 836 q 654 849 656 849 q 650 847 653 849 q 644 842 647 844 q 639 839 642 839 q 635 840 635 838 q 639 844 636 842 q 644 850 642 847 q 644 854 646 853 q 635 848 642 854 q 629 839 629 842 q 621 836 622 835 q 619 840 619 838 q 618 845 619 843 q 610 846 617 847 q 597 844 601 847 q 588 844 593 842 q 578 844 585 849 q 568 843 572 840 q 560 842 563 844 q 550 842 558 839 q 536 838 538 842 q 529 839 535 835 q 516 842 524 846 q 500 839 508 838 q 493 838 493 839 q 496 836 493 838 q 503 833 499 835 q 508 831 507 832 q 509 826 517 828 q 489 822 501 824 q 465 822 476 821 q 457 829 454 824 q 454 835 454 836 q 454 830 454 833 q 453 823 454 826 q 449 822 453 819 q 433 824 439 825 q 422 822 428 824 q 410 818 417 819 q 393 818 403 817 q 378 817 382 818 q 370 816 374 817 q 361 815 367 815 q 343 818 356 815 q 338 817 336 821 q 333 815 338 815 q 320 815 328 815 q 304 816 313 815 q 290 818 296 817 q 279 819 283 819 q 272 817 275 818 q 265 815 269 815 q 251 815 260 814 q 234 815 236 818 q 222 815 232 813 q 213 817 215 822 q 206 813 210 813 q 198 810 199 813 q 198 802 197 807 q 200 792 199 797 q 199 785 201 788 q 199 767 193 778 q 196 753 204 756 q 194 717 189 738 q 199 682 199 696 q 197 676 197 682 q 197 662 197 669 q 198 649 197 654 q 197 643 199 643 q 193 633 193 644 q 190 621 193 621 q 190 617 186 618 q 238 613 211 613 q 290 615 264 614 q 342 617 317 617 q 389 613 368 617 q 409 613 399 611 q 456 614 419 615 q 532 610 501 611 q 588 610 563 610 q 641 608 614 610 q 708 601 668 606 q 717 603 711 600 q 725 601 722 606 q 736 599 731 596 q 766 598 749 604 q 794 588 783 592 q 803 585 797 588 q 813 581 808 583 q 817 576 817 578 q 814 572 818 574 q 814 568 810 572 q 824 569 818 568 q 836 569 831 569 q 846 564 842 568 q 850 549 850 560 m 672 893 q 676 881 671 885 q 689 882 682 876 q 691 883 690 883 q 693 881 692 882 q 695 881 694 881 q 697 888 696 882 q 701 895 697 897 q 701 897 706 893 q 693 903 699 903 q 688 900 688 904 q 690 897 688 897 q 689 890 693 897 q 683 884 686 885 q 681 889 681 883 q 676 901 682 899 q 672 893 672 903 m 658 878 q 662 885 663 885 q 659 883 661 886 q 654 877 657 881 q 651 872 651 874 q 655 870 654 869 q 658 878 656 871 m 635 882 q 630 880 629 882 q 633 876 631 878 q 638 875 635 875 q 640 879 640 875 q 635 882 640 882 m 628 892 q 621 899 631 897 q 610 896 611 900 q 616 893 613 893 q 622 889 619 893 q 628 892 629 882 m 596 903 q 591 902 592 903 q 593 894 590 901 q 597 894 596 888 q 600 900 597 901 q 600 894 603 900 q 601 892 600 890 q 603 896 603 893 q 603 901 604 899 q 596 903 601 904 m 585 903 q 578 897 582 904 q 572 884 575 890 q 568 876 568 878 q 574 882 568 874 q 581 894 574 886 q 585 903 588 901 m 560 900 q 556 902 558 904 q 556 894 553 900 q 560 892 558 886 q 560 900 561 897 m 511 888 q 506 891 510 890 q 507 888 501 892 q 511 888 515 881 m 486 835 q 478 840 483 839 q 472 840 474 840 q 472 836 469 839 q 486 829 474 833 l 486 835 m 436 951 q 438 949 432 949 q 442 951 444 949 q 436 951 440 953 m 440 832 q 438 836 439 836 q 435 834 436 836 q 435 830 435 832 q 438 828 435 828 q 440 832 440 831 m 211 835 q 206 839 211 838 q 206 835 200 840 q 211 835 211 824 m 117 942 q 119 951 115 944 q 126 960 124 957 q 111 961 119 965 q 96 956 103 957 q 93 958 93 958 q 96 951 93 957 q 106 944 99 946 q 117 940 114 942 q 117 942 118 940 m 156 951 q 155 956 158 957 q 151 951 151 954 q 151 947 149 944 q 156 951 153 949 m 217 599 q 217 609 224 610 q 208 606 211 608 q 201 603 208 603 q 197 603 197 604 q 198 599 197 601 q 199 594 199 596 q 196 596 199 593 q 193 597 193 601 q 203 590 193 590 q 217 599 214 590 m 235 593 q 242 595 236 597 q 249 597 249 593 q 242 603 249 603 q 234 605 235 601 q 228 603 233 608 q 226 592 221 597 q 235 593 232 586 m 264 590 q 272 596 274 593 q 266 601 271 601 q 258 598 261 600 q 256 593 256 596 q 264 590 256 590 m 285 590 q 289 594 289 590 q 283 597 288 603 q 285 590 278 590 m 304 593 q 305 595 306 594 q 303 594 304 596 q 296 592 297 594 q 299 590 294 590 q 304 593 304 590 m 338 590 q 339 594 340 590 q 335 597 336 603 q 338 590 335 592 m 353 593 q 353 599 354 599 q 351 597 353 599 q 347 591 349 594 q 346 588 344 588 q 353 593 350 588 m 421 588 q 428 585 428 585 q 426 588 429 585 q 420 590 426 590 q 421 588 414 590 m 528 583 q 534 581 532 581 q 532 586 536 582 q 525 590 528 592 q 528 583 522 588 m 532 71 q 536 68 529 68 q 542 71 543 68 q 538 74 542 74 q 532 71 533 74 m 671 93 q 668 96 674 101 q 664 88 663 90 q 666 84 664 82 q 671 93 668 86 m 732 151 q 724 154 728 156 q 719 149 719 153 q 711 135 715 138 q 700 146 707 133 q 698 135 700 142 q 693 128 696 129 q 691 128 689 125 q 692 132 693 132 q 687 123 689 131 q 688 113 685 115 q 697 108 690 108 q 700 111 703 108 q 700 113 699 114 q 703 110 701 111 q 708 108 706 108 q 710 111 710 107 q 701 116 711 113 q 696 121 692 119 q 701 125 701 121 q 704 128 701 128 q 707 126 707 129 q 711 123 707 122 q 719 126 715 124 q 724 131 722 128 q 719 133 725 133 q 717 136 717 131 q 726 142 718 139 q 732 151 735 146 m 833 300 q 837 294 838 299 q 834 285 836 290 q 830 276 832 281 q 829 268 828 271 q 825 263 831 264 q 822 256 819 261 q 823 249 825 250 q 821 254 821 249 q 818 257 821 260 q 815 258 815 254 q 818 264 815 261 q 824 274 828 271 q 824 283 819 278 q 828 292 829 286 q 833 300 828 299 m 733 888 q 738 890 739 899 q 733 882 738 882 q 733 888 731 882 z "},"6":{"ha":881,"x_min":25,"x_max":853,"o":"m 85 42 q 83 44 88 40 q 75 46 78 49 q 70 48 74 44 q 63 56 67 51 q 55 67 58 61 q 50 78 51 74 q 50 150 50 101 q 51 247 50 199 q 51 333 51 296 q 50 371 51 369 q 45 369 50 368 q 42 364 40 369 q 40 358 44 360 q 32 353 35 356 q 43 340 42 344 q 43 334 44 336 q 40 331 42 332 q 40 326 38 329 q 40 317 50 317 q 35 322 38 317 q 30 335 32 328 q 28 347 28 342 q 31 354 28 353 q 31 376 28 372 q 39 380 33 379 q 49 384 44 381 q 54 406 54 388 q 53 419 54 417 q 50 424 53 422 q 51 431 44 425 q 55 441 53 432 q 58 460 57 450 q 59 478 60 469 q 56 490 58 488 q 54 495 53 494 q 58 497 56 496 q 64 501 61 499 q 65 507 67 503 q 66 517 65 508 q 67 532 67 525 q 66 540 67 539 q 64 528 65 540 q 58 517 65 521 q 56 510 51 514 q 54 507 61 507 q 44 506 51 507 q 39 508 36 504 q 39 515 40 511 q 42 526 36 518 q 53 535 49 535 q 58 538 57 535 q 58 543 58 540 q 55 547 57 546 q 53 543 53 547 q 47 540 54 540 q 44 544 39 539 q 44 553 47 547 q 46 566 40 560 q 53 579 51 572 q 57 585 53 582 q 67 590 61 588 q 76 594 72 592 q 79 600 79 597 q 81 605 79 603 q 83 610 82 607 q 87 615 88 614 q 85 615 86 615 q 83 616 83 615 q 85 619 82 617 q 86 626 89 626 q 81 624 83 626 q 76 617 78 621 q 79 613 75 613 q 78 606 82 611 q 71 600 74 600 q 68 596 68 600 q 63 592 68 592 q 54 588 57 593 q 47 588 51 583 q 49 598 43 594 q 51 613 54 601 q 58 636 49 622 q 61 651 67 650 q 55 651 56 650 q 56 656 54 653 q 59 661 57 658 q 61 667 61 664 q 63 672 60 668 q 68 680 65 676 q 72 685 71 683 q 68 686 72 688 q 63 688 60 683 q 71 700 65 693 q 81 713 76 707 q 79 717 85 718 q 79 723 75 714 q 89 736 83 732 q 90 742 94 742 q 88 749 85 742 q 99 760 92 757 q 107 765 106 763 q 107 775 108 768 q 108 786 104 782 q 113 794 113 790 q 115 798 113 796 q 122 802 118 800 q 130 806 126 804 q 132 811 133 808 q 134 817 131 817 q 136 821 138 818 q 141 831 133 824 q 151 839 149 839 q 205 888 169 864 q 268 931 240 911 q 285 938 278 936 q 300 943 293 940 q 315 949 307 946 q 338 960 324 953 q 372 968 357 967 q 407 976 386 969 q 425 980 421 979 q 421 968 429 981 q 417 956 414 961 q 424 960 421 951 q 432 976 426 974 q 461 975 438 978 q 470 976 464 974 q 476 975 476 978 q 477 970 474 971 q 483 972 481 969 q 492 977 486 976 q 497 975 497 978 q 503 973 497 974 q 515 973 508 972 q 529 975 522 974 q 539 978 536 976 q 549 977 546 983 q 558 975 551 971 q 567 975 564 979 q 581 971 568 971 q 626 969 614 972 q 650 961 639 967 q 669 963 656 964 q 686 954 682 961 q 694 949 692 950 q 701 951 696 949 q 711 956 708 956 q 716 956 714 957 q 720 953 718 954 q 728 950 722 951 q 769 934 750 944 q 789 908 788 924 q 788 896 792 900 q 788 885 783 892 q 785 875 790 879 q 771 867 774 869 q 765 862 768 864 q 754 860 763 860 q 725 861 746 860 q 603 867 656 865 q 506 863 550 869 q 421 835 461 856 q 335 775 381 815 q 319 763 328 765 q 308 753 311 760 q 304 747 307 747 q 294 742 301 747 q 288 735 288 738 q 289 733 288 733 q 289 729 290 732 q 278 719 288 726 q 274 712 272 714 q 269 703 276 710 q 262 692 261 696 q 254 679 263 688 q 238 658 239 664 q 232 642 238 653 q 226 628 225 636 q 219 613 228 619 q 210 591 208 601 q 222 592 213 581 q 329 599 279 599 q 426 596 379 599 q 519 589 474 593 q 614 583 565 585 q 666 580 643 581 q 710 577 689 579 q 752 569 732 575 q 796 551 772 564 q 798 544 803 546 q 796 540 793 543 q 799 533 799 540 q 799 522 796 525 q 806 519 801 519 q 816 518 811 518 q 825 515 821 518 q 824 513 829 510 q 821 508 814 518 q 825 501 826 503 q 831 494 824 499 q 838 491 838 490 q 835 495 838 492 q 830 502 832 499 q 831 508 828 506 q 833 516 835 511 q 833 518 831 521 q 846 465 842 499 q 851 395 850 431 q 851 328 853 360 q 846 283 850 297 q 845 269 847 276 q 840 264 843 263 q 835 256 836 267 q 840 247 833 244 q 840 242 842 246 q 835 236 838 239 q 831 231 832 233 q 835 228 831 228 q 835 225 838 231 q 829 221 833 221 q 826 215 825 221 q 822 208 825 208 q 818 201 819 208 q 808 192 815 194 q 803 182 801 190 q 799 173 803 176 q 792 167 796 169 q 783 160 788 164 q 779 153 779 157 q 762 135 772 143 q 746 111 751 128 q 734 92 740 94 q 722 89 728 90 q 715 72 725 83 q 699 58 706 60 q 692 60 692 58 q 699 69 692 63 q 703 78 703 75 q 699 78 703 81 q 692 69 697 78 q 682 52 688 61 q 672 35 676 43 q 665 28 667 28 q 653 19 660 24 q 639 13 646 15 q 633 13 633 8 q 622 15 632 17 q 608 11 614 14 q 597 6 603 8 q 583 3 590 4 q 564 6 576 3 q 557 4 553 8 q 551 -1 558 0 q 535 -3 544 -3 q 517 -2 525 -3 q 507 -1 508 -1 q 503 -3 503 3 q 495 -5 504 -4 q 475 -6 486 -6 q 455 -6 464 -7 q 447 -4 446 -6 q 453 -1 447 -3 q 465 1 460 0 q 474 3 471 1 q 471 6 476 4 q 453 4 449 -1 q 449 7 456 8 q 438 0 442 6 q 419 -4 431 -8 q 396 -3 407 0 q 383 -1 386 -3 q 376 2 379 0 q 369 6 372 4 q 356 6 365 7 q 342 5 347 3 q 335 9 338 7 q 329 13 332 11 q 321 11 326 14 q 310 8 317 8 q 304 11 303 7 q 276 17 293 14 q 249 22 260 19 q 233 24 247 22 q 202 27 219 26 q 166 26 185 28 q 135 18 147 25 q 119 12 124 13 q 110 14 115 11 q 103 19 104 14 q 101 28 101 24 q 99 36 100 33 q 96 38 99 39 q 88 38 94 33 q 85 42 81 42 m 799 471 q 801 467 794 468 q 804 469 807 467 q 799 471 803 471 m 361 946 q 363 943 356 940 q 369 949 371 946 q 367 951 369 951 q 361 946 364 950 m 328 925 q 317 924 324 928 q 307 915 311 919 q 303 907 303 910 q 311 911 303 904 q 317 917 314 915 q 321 918 321 919 q 324 920 324 917 q 328 924 324 924 q 332 919 332 922 q 338 917 332 917 q 343 920 339 915 q 350 930 347 925 q 353 938 353 935 q 350 938 354 942 q 344 932 344 935 l 344 929 q 343 926 344 928 q 340 927 340 919 q 338 933 340 935 q 337 926 335 929 q 328 925 339 922 m 297 908 q 292 911 297 911 q 290 908 286 911 q 292 904 296 908 q 294 903 289 901 q 297 908 299 906 m 279 888 q 275 890 282 894 q 268 883 268 886 q 275 881 269 881 q 279 888 281 882 m 269 899 q 268 897 267 897 q 272 896 269 896 q 277 897 275 896 q 278 899 279 897 l 269 899 m 258 883 q 260 879 256 876 q 265 885 265 882 q 263 891 267 888 q 260 892 258 894 q 258 883 263 889 m 571 171 q 568 172 571 172 q 563 171 565 172 q 560 168 561 169 q 564 167 560 167 q 571 171 571 167 m 604 22 q 603 26 608 25 q 594 24 599 28 q 590 15 589 17 q 593 15 590 14 q 599 19 596 17 q 604 22 603 22 m 640 24 q 646 28 646 26 q 643 33 646 33 q 638 29 640 32 q 635 24 636 26 q 640 24 635 22 m 644 42 q 645 46 651 49 q 638 40 639 43 q 644 42 636 33 m 724 500 q 731 504 731 503 q 724 506 729 507 q 716 502 719 504 q 713 499 713 500 q 724 500 714 497 m 663 528 q 649 524 663 525 q 622 524 636 524 q 597 522 607 524 q 592 519 586 521 q 597 518 594 517 q 606 517 600 519 q 615 516 613 514 q 622 519 617 518 q 623 515 626 519 q 626 515 619 511 q 654 517 636 521 q 683 518 672 513 q 688 518 688 519 q 687 515 688 517 q 686 513 686 514 q 689 515 686 513 q 697 517 690 517 q 712 516 704 517 q 726 515 719 515 q 733 517 732 514 q 727 521 736 519 q 706 522 718 522 q 683 523 693 522 q 672 526 672 524 q 663 528 669 531 m 689 503 q 692 501 685 501 q 696 503 699 501 q 689 503 692 506 m 614 504 q 613 507 614 507 q 610 504 611 507 q 610 501 607 501 q 614 504 614 501 m 585 524 q 577 525 579 531 q 583 519 575 519 q 585 524 588 519 m 557 522 q 558 520 554 521 q 565 519 561 519 q 569 520 568 519 q 565 522 571 521 q 557 522 561 526 m 543 522 q 544 519 540 519 q 547 522 547 519 q 546 525 547 525 q 543 522 544 525 m 535 521 q 533 524 535 524 q 529 522 531 524 q 528 518 528 519 q 531 518 528 517 q 532 519 532 518 q 533 519 532 519 l 535 521 m 518 524 q 515 527 518 529 q 513 522 511 525 q 515 519 513 519 q 518 524 518 519 m 469 519 q 464 522 468 522 q 465 519 460 522 q 469 519 474 513 m 438 456 q 433 458 438 461 q 435 453 428 456 l 438 456 m 267 460 q 266 456 260 454 q 275 460 272 457 q 276 465 282 467 q 267 460 269 463 m 539 464 q 469 453 513 457 q 375 448 425 450 q 276 446 325 446 q 192 447 226 446 q 188 398 189 419 q 188 355 188 376 q 188 308 188 333 q 188 249 188 283 q 188 198 188 215 q 192 174 189 181 q 201 167 194 167 q 221 168 207 168 q 260 170 253 171 q 271 167 268 169 q 285 165 275 163 q 301 163 294 168 q 313 160 308 156 q 325 161 318 164 q 332 158 328 154 q 337 156 335 160 q 344 156 339 153 q 360 153 353 154 q 379 158 368 151 q 387 156 383 158 q 393 151 390 154 q 400 147 396 149 q 411 150 404 146 q 422 153 415 151 q 435 157 429 154 q 444 156 443 161 q 448 153 447 153 q 456 156 449 153 q 469 158 467 163 q 478 151 471 153 q 491 156 482 150 q 499 165 500 163 q 500 165 497 167 q 503 159 503 164 q 507 156 504 154 q 519 158 510 158 q 531 161 528 158 q 535 161 532 165 q 544 163 536 157 q 542 167 551 168 q 539 170 535 168 q 551 174 543 172 q 567 176 560 175 q 578 175 575 176 q 588 176 588 174 q 589 183 585 181 q 599 186 593 185 q 611 188 606 188 q 619 190 617 189 q 629 197 622 193 q 644 203 636 200 q 660 209 653 206 q 668 215 667 213 q 669 218 665 218 q 672 222 674 218 q 676 226 672 228 q 678 229 679 225 q 689 252 681 240 q 700 275 697 264 q 703 287 700 282 q 710 296 707 292 q 715 304 714 300 q 713 315 717 308 q 711 321 710 317 q 715 340 715 328 q 708 349 714 351 q 708 351 706 347 q 713 351 711 354 q 717 378 715 363 q 718 404 718 393 q 721 417 718 414 q 722 430 726 421 q 721 442 717 439 q 724 458 725 447 q 722 475 724 468 q 715 483 719 482 q 707 471 711 485 q 693 479 700 471 q 681 481 686 488 q 665 469 671 468 q 654 473 658 469 q 648 476 650 476 q 646 464 646 476 q 638 470 643 467 q 629 476 632 474 q 624 465 626 467 q 617 467 621 464 q 610 472 614 469 q 603 474 607 475 q 595 472 600 469 q 586 472 590 475 q 569 467 579 465 q 556 474 560 469 q 550 461 558 468 q 539 464 542 454 m 197 458 q 199 456 194 456 q 204 457 204 456 q 201 460 204 460 q 197 458 199 461 m 208 840 q 204 829 199 833 q 203 818 207 828 q 201 809 199 810 q 206 815 203 808 q 217 835 210 831 q 231 847 224 840 q 230 856 235 854 q 226 861 225 857 q 217 855 219 864 q 208 840 215 846 m 183 819 q 183 817 178 811 q 186 812 188 819 q 192 808 185 804 q 196 813 196 808 q 197 822 194 815 q 199 834 199 828 q 200 844 200 840 q 194 843 200 847 q 188 832 188 840 q 183 819 188 824 m 169 781 q 165 783 169 785 q 161 778 160 781 q 165 776 161 775 q 169 781 169 776 m 157 757 q 159 762 161 761 q 153 762 157 763 q 147 758 150 761 q 144 754 144 756 q 157 757 150 747 m 133 768 q 128 760 126 761 q 138 767 129 760 q 143 774 146 774 q 133 768 140 775 m 118 718 q 123 715 117 714 q 131 718 129 715 q 125 721 131 721 q 118 718 119 721 m 107 707 q 106 703 100 703 q 115 703 113 700 q 115 709 119 706 q 107 707 110 713 m 96 668 q 91 661 90 667 q 99 660 92 656 q 96 668 107 671 m 86 643 q 85 637 79 636 q 93 642 92 638 q 86 643 99 656 m 69 549 q 72 558 69 551 q 75 570 74 565 q 76 577 76 575 q 69 571 75 579 q 57 556 65 561 q 55 551 53 554 q 61 547 57 549 q 68 544 65 544 q 69 549 71 544 m 71 582 q 76 586 76 582 q 71 588 76 592 q 71 582 65 583 m 532 168 q 527 165 533 167 q 521 167 521 164 q 526 169 519 169 q 532 168 532 169 m 43 163 q 46 153 47 158 q 41 144 44 149 q 34 140 38 140 q 31 144 31 139 q 31 149 29 146 q 35 153 33 151 q 38 158 38 156 q 33 161 38 160 q 29 169 25 164 q 32 181 33 174 q 39 178 38 189 q 43 163 40 167 m 43 231 q 45 219 47 226 q 36 221 43 211 q 32 228 31 226 q 32 236 36 232 q 33 249 28 240 q 40 266 38 265 q 46 250 42 267 q 44 240 49 246 q 43 231 40 233 m 33 276 q 38 283 31 286 q 46 276 44 281 q 40 272 44 272 q 33 276 36 272 m 32 210 q 37 216 33 217 q 40 208 40 215 q 42 200 39 200 q 44 193 44 200 q 40 188 46 189 q 36 192 35 186 q 33 200 38 197 q 32 210 29 203 m 42 411 q 42 406 44 408 q 38 403 40 404 q 33 403 35 401 q 32 408 31 404 q 35 422 32 421 q 42 411 38 422 m 40 394 q 40 390 47 389 q 33 394 32 390 q 40 394 33 401 m 46 450 q 49 453 49 453 q 47 446 50 453 q 42 440 44 443 q 37 435 39 436 q 33 436 35 433 q 33 447 32 439 q 39 469 32 468 q 42 457 46 469 q 41 448 40 449 q 46 450 42 447 m 39 478 q 39 486 36 482 q 39 497 42 490 q 44 500 38 501 q 51 500 50 497 q 57 504 53 503 q 52 494 58 501 q 53 486 46 486 q 56 481 57 483 q 51 476 54 478 q 44 474 47 474 q 39 478 40 474 z "},"7":{"ha":810,"x_min":28,"x_max":783,"o":"m 419 42 q 408 26 413 39 q 392 15 403 14 q 382 13 389 14 q 369 10 375 11 q 358 8 363 10 q 356 3 353 6 q 353 -1 356 1 q 349 -5 351 -3 q 345 -7 346 -7 q 347 -3 344 -7 q 344 3 351 3 q 327 3 338 4 q 308 3 317 3 q 299 7 299 3 q 292 15 292 11 q 286 21 293 19 q 282 29 281 25 q 292 43 289 38 q 306 60 294 49 q 319 79 319 71 q 324 97 318 88 q 325 107 332 104 q 315 106 318 110 q 313 104 315 103 q 308 101 310 106 q 299 97 310 97 q 288 94 288 97 q 290 92 288 90 q 297 90 293 93 q 299 89 301 89 q 292 89 296 89 q 283 89 288 89 q 279 88 279 89 q 284 85 278 85 q 290 82 290 85 q 280 76 292 75 q 265 69 268 76 q 265 63 260 64 q 267 55 269 60 q 260 45 264 50 q 251 39 256 40 q 246 42 247 38 q 240 51 239 47 q 246 57 242 54 q 253 62 250 60 q 250 68 256 64 q 249 74 244 72 q 251 90 253 75 q 253 107 250 107 q 265 106 257 107 q 254 115 261 108 q 256 125 247 122 q 258 133 258 125 q 264 146 258 142 q 303 180 282 161 q 340 214 325 199 q 351 232 339 219 q 369 254 363 244 q 379 267 379 261 q 389 280 378 269 q 403 297 400 290 q 412 306 403 300 q 418 315 421 313 q 422 323 417 317 q 435 332 428 329 q 439 341 442 335 q 442 351 436 347 q 453 367 444 356 q 465 385 463 379 q 467 389 463 388 q 468 393 471 390 q 469 396 465 396 q 471 399 474 396 q 476 409 469 400 q 479 418 482 418 q 492 436 482 424 q 504 454 501 449 q 509 469 511 460 q 514 483 507 478 q 519 497 518 492 q 526 510 519 501 q 533 527 529 517 q 540 540 536 538 q 549 561 543 553 q 558 588 556 569 q 594 698 576 644 q 631 811 611 751 q 633 817 628 814 q 636 824 638 819 q 625 831 636 829 q 598 832 614 832 q 565 831 582 832 q 535 832 547 831 q 479 831 479 835 q 478 826 482 828 q 474 829 475 825 q 469 832 475 831 q 456 834 463 833 q 444 833 449 835 q 447 831 440 832 q 460 827 450 829 q 478 823 469 825 q 489 819 486 821 q 481 818 492 818 q 497 815 483 815 q 517 811 511 815 q 516 807 522 807 q 499 809 510 807 q 479 814 489 811 q 468 817 469 817 q 453 815 456 815 q 454 811 451 814 q 449 806 458 807 q 432 808 439 804 q 424 811 426 814 q 417 814 421 810 q 407 815 413 818 q 406 813 401 813 q 408 806 408 813 q 399 800 410 801 q 374 799 389 799 q 347 800 360 799 q 332 801 335 801 q 312 800 317 804 q 293 800 307 796 q 281 800 281 801 q 276 798 281 797 q 266 799 271 799 q 256 801 261 800 q 251 800 251 801 q 234 799 246 799 q 210 801 222 800 q 186 801 197 801 q 171 800 175 801 q 160 802 161 797 q 147 800 158 807 q 135 797 138 794 q 126 793 133 799 q 119 792 119 788 q 114 794 119 797 q 106 797 111 792 q 99 800 101 801 q 90 800 97 797 q 82 800 83 803 q 75 801 76 797 q 42 833 56 813 q 29 876 28 853 q 31 885 28 885 q 38 879 33 886 q 46 874 43 872 q 54 869 49 876 q 58 863 61 863 q 56 860 54 863 q 54 853 57 856 q 61 850 51 850 q 67 851 65 850 q 67 851 68 851 q 64 857 65 851 q 61 869 63 863 q 60 878 60 875 q 64 874 61 881 q 69 869 68 868 q 72 869 71 871 q 75 865 74 867 q 77 863 76 863 q 78 869 78 863 q 81 881 75 876 q 79 886 86 886 q 74 889 75 886 q 72 896 72 892 q 74 904 72 900 q 76 910 75 908 q 78 915 75 910 q 84 924 81 919 q 91 933 88 929 q 93 938 94 938 q 71 938 79 943 q 57 924 63 932 q 48 913 51 917 q 43 921 44 910 q 44 921 43 922 q 49 919 47 914 q 49 925 51 925 q 48 948 40 938 q 70 964 56 958 q 101 970 85 969 q 131 965 118 971 q 219 968 179 964 q 313 974 260 972 q 419 972 367 972 q 526 970 472 972 q 634 962 579 968 q 747 942 689 956 q 760 936 753 942 q 772 924 767 931 q 781 908 778 917 q 779 893 783 900 q 775 887 775 890 q 771 885 775 883 q 764 877 768 886 q 757 864 760 868 l 765 869 q 773 872 774 874 q 770 865 772 869 q 767 859 768 861 q 774 863 767 857 q 778 862 779 867 q 772 856 776 857 q 761 848 764 851 q 739 838 758 844 q 732 834 732 835 q 734 832 732 833 q 738 830 736 831 q 736 826 739 829 q 730 812 731 824 q 736 806 729 800 q 745 812 738 808 q 757 818 753 815 q 755 803 756 815 q 757 792 754 792 q 760 782 761 789 q 761 768 758 775 q 763 725 768 744 q 760 694 757 706 q 757 685 765 689 q 754 672 751 679 q 754 650 757 665 q 747 628 751 635 q 744 617 746 625 q 742 599 743 608 q 738 580 740 589 q 732 567 736 571 q 727 547 729 561 q 717 526 725 533 q 714 518 710 522 q 710 494 719 510 q 699 471 704 485 q 690 446 694 457 q 685 434 692 439 q 679 422 679 429 q 671 415 675 415 q 669 399 667 414 q 667 391 671 396 q 660 381 664 386 q 653 372 656 376 q 653 367 650 368 q 649 353 656 360 q 639 339 642 347 q 632 327 633 332 q 628 318 631 322 q 624 308 626 314 q 614 293 621 301 q 607 281 607 285 q 600 271 607 276 q 593 263 594 269 q 588 253 592 256 q 581 238 582 250 q 572 225 579 226 q 564 214 564 222 q 556 206 563 207 q 551 196 550 204 q 549 190 551 190 q 545 190 547 189 q 541 190 543 190 q 540 183 539 189 q 531 161 542 169 q 514 144 519 153 q 505 130 514 138 q 492 121 496 122 q 488 111 488 118 q 483 103 489 104 q 477 97 479 103 q 471 90 475 90 q 467 88 467 92 q 464 86 467 83 q 449 67 458 82 q 429 50 439 53 q 424 46 424 49 q 419 42 424 43 m 743 801 q 735 797 740 797 q 724 794 729 796 q 740 792 728 779 q 749 803 749 797 q 748 806 749 806 q 743 801 747 806 m 81 854 q 82 852 76 853 q 86 854 88 851 q 81 854 83 857 m 108 883 q 106 889 110 889 q 97 886 103 889 q 86 878 92 883 q 81 869 81 874 q 91 878 83 872 q 103 882 99 883 q 108 883 104 879 m 124 878 q 121 886 126 881 q 115 891 115 892 q 115 887 114 890 q 119 881 117 883 q 124 878 121 878 m 132 882 q 135 881 128 881 q 139 882 142 881 q 132 882 135 885 m 457 874 q 461 880 463 881 q 455 876 460 879 q 445 867 450 872 q 440 860 440 861 q 457 874 440 854 m 528 338 q 526 334 525 336 q 531 331 528 332 q 535 330 533 329 q 536 333 538 331 q 542 343 536 335 q 544 347 546 347 q 540 345 543 347 q 532 340 536 343 q 528 338 528 338 m 513 307 q 505 300 511 310 q 500 290 499 290 q 508 297 504 290 q 513 307 514 306 m 501 278 q 502 284 504 283 q 497 283 500 285 q 494 277 494 281 q 497 272 493 274 l 499 274 q 501 278 499 275 m 467 257 q 469 244 461 246 q 482 257 478 242 q 484 273 492 278 q 467 257 476 268 m 458 232 q 440 221 444 228 q 437 210 436 214 q 443 208 438 207 q 453 219 449 208 l 458 232 m 307 36 q 315 44 318 40 q 300 36 313 49 q 293 29 293 31 q 296 28 293 28 q 303 32 299 29 q 307 36 307 35 m 424 194 q 419 192 424 194 q 409 185 414 189 q 401 176 404 181 q 401 169 397 172 q 407 172 404 167 q 413 176 410 176 q 419 183 415 176 q 424 194 424 190 m 357 207 q 358 213 360 211 q 353 210 356 214 q 351 201 349 203 q 357 207 354 200 m 378 138 q 384 150 383 144 q 378 153 385 156 q 368 144 372 150 q 363 133 364 138 q 365 128 361 128 q 378 138 368 128 m 379 238 q 382 234 379 235 q 386 236 385 233 q 383 239 386 238 q 379 238 379 240 m 396 250 q 392 253 397 257 q 390 247 386 249 q 396 250 393 247 m 58 921 q 63 922 61 924 q 67 922 65 919 q 63 925 67 925 q 62 928 60 925 q 69 932 64 931 q 73 931 74 935 q 69 924 72 928 q 62 917 65 919 q 58 921 58 915 m 758 796 q 760 801 758 797 q 763 806 761 804 q 765 809 764 808 q 767 804 767 810 q 764 796 767 799 q 758 796 761 793 z "},"8":{"ha":915,"x_min":28,"x_max":888,"o":"m 690 757 q 687 753 688 756 q 685 747 686 750 q 683 742 685 743 q 678 744 682 742 q 682 753 675 747 q 686 763 689 760 q 690 781 683 769 q 694 796 696 793 q 696 796 693 797 q 704 794 699 793 q 711 792 710 794 q 701 785 704 789 q 697 775 699 781 q 695 765 696 769 q 690 757 694 760 m 708 817 q 714 809 724 814 q 699 811 704 804 q 698 820 696 814 q 706 826 700 826 q 709 823 708 826 q 707 817 710 819 q 708 817 704 815 m 719 826 q 715 824 719 824 q 711 826 710 824 q 715 830 713 829 q 719 826 718 831 m 888 76 q 877 67 876 72 q 877 56 878 61 q 867 44 876 50 q 825 29 857 38 q 821 24 817 28 q 821 14 824 19 q 813 11 818 8 q 794 17 806 17 q 772 16 783 17 q 752 15 761 15 q 739 22 743 15 q 733 17 736 26 q 724 11 731 7 q 642 4 689 6 q 563 0 596 3 q 526 -1 539 -4 q 492 -3 514 3 q 473 -1 481 -1 q 451 -3 465 -1 q 438 -3 443 0 q 426 -4 433 -7 q 419 -4 422 -1 q 391 -3 408 -4 q 356 -3 374 -3 q 324 -3 339 -3 q 304 -6 310 -4 q 285 -4 289 1 q 271 -6 281 -10 q 203 -1 244 0 q 124 1 163 -3 q 60 22 86 6 q 36 81 33 39 q 40 69 40 81 q 41 60 40 60 q 42 65 42 61 q 44 75 43 69 q 46 82 46 81 q 42 90 46 83 q 34 102 38 96 q 29 113 31 108 q 35 115 28 117 q 40 124 40 114 q 40 130 39 129 q 43 131 42 131 q 45 130 44 131 q 43 132 46 129 q 40 142 38 136 q 45 154 42 149 q 51 165 49 160 q 51 172 54 169 q 47 168 49 172 q 46 171 46 167 q 47 180 46 175 q 49 189 47 185 q 53 193 50 193 q 53 210 57 200 q 54 231 50 219 q 57 242 58 233 q 60 243 56 250 q 62 246 64 238 q 67 256 60 254 q 75 259 74 257 q 76 265 76 261 q 76 273 76 268 q 79 282 76 278 q 81 289 83 289 q 78 292 79 289 q 83 294 78 296 q 90 292 88 292 q 80 306 83 296 q 83 325 76 317 q 88 334 86 328 q 88 326 89 340 q 88 313 85 313 q 97 320 92 314 q 103 335 101 326 q 100 343 106 343 q 93 353 93 344 q 96 364 93 361 q 98 365 97 365 q 97 363 99 364 q 103 359 94 360 q 110 361 113 358 q 110 385 104 372 q 124 408 115 399 q 128 414 126 414 q 133 411 131 414 q 136 406 135 408 q 140 408 138 404 l 140 419 q 142 427 138 422 q 149 429 146 432 q 149 432 150 429 q 153 437 146 436 q 158 443 161 438 q 162 449 158 449 q 164 453 165 449 q 176 469 167 464 q 196 482 185 475 q 207 488 204 490 q 217 496 210 486 q 219 506 229 510 q 215 510 217 504 q 215 518 213 515 q 221 514 218 521 q 225 515 228 507 q 215 526 222 524 q 208 534 207 532 q 203 539 210 536 q 197 535 197 543 q 194 530 196 529 q 190 535 192 531 q 188 543 189 539 q 185 547 186 547 q 183 554 181 547 q 183 563 186 560 q 179 560 181 567 q 176 558 179 556 q 171 567 174 561 q 165 577 168 572 q 163 585 163 582 q 153 606 163 594 q 151 625 144 618 q 154 640 158 631 q 140 649 150 649 q 136 660 136 649 q 138 669 135 669 q 142 676 140 669 q 146 678 142 681 q 147 681 150 675 q 139 687 146 688 q 129 689 132 686 q 128 697 129 690 q 128 711 128 704 q 128 724 128 718 q 131 731 128 731 q 135 738 135 733 q 132 742 136 742 q 132 744 126 742 q 132 765 135 750 q 132 785 129 781 q 131 801 139 790 q 122 817 124 811 q 131 815 128 828 q 133 825 133 814 q 139 835 133 836 q 142 838 147 838 q 137 844 138 839 q 138 856 136 850 q 142 867 139 863 q 146 872 144 872 q 147 878 149 874 q 147 882 144 882 q 153 893 157 882 q 153 903 149 900 q 156 911 158 906 q 156 923 153 915 q 164 931 160 931 q 176 940 174 929 q 186 954 179 951 q 192 958 192 956 q 197 967 192 961 q 207 974 199 971 q 225 976 215 976 q 243 975 235 976 q 254 971 251 974 q 263 974 263 971 q 272 980 263 976 q 292 986 281 983 q 315 990 304 989 q 329 989 326 990 q 368 989 347 986 q 431 990 389 992 q 522 991 472 990 q 620 992 572 992 q 708 990 668 992 q 771 982 749 988 q 809 955 792 974 q 831 917 826 936 q 835 899 832 910 q 840 876 838 888 q 844 855 843 865 q 844 840 846 844 q 844 822 844 829 q 844 800 843 815 q 843 782 847 785 q 842 775 836 779 q 842 768 847 771 q 839 755 839 764 q 835 743 839 746 q 828 733 831 740 q 831 724 826 726 q 833 714 833 721 q 831 707 833 707 q 829 701 826 707 q 825 693 831 694 q 821 682 819 692 q 819 672 821 672 q 811 668 818 672 q 806 655 808 665 q 802 633 804 644 q 797 614 800 622 q 789 606 793 606 q 785 594 788 606 q 782 585 783 588 q 779 581 781 583 q 776 576 778 579 q 771 567 774 574 q 760 551 767 556 q 751 540 754 547 q 735 513 744 522 q 711 488 726 503 q 696 471 697 476 q 699 461 694 465 q 715 453 704 457 q 736 440 725 449 q 752 428 747 433 q 760 420 757 424 q 765 413 763 417 q 775 406 768 410 q 801 383 792 399 q 821 357 810 368 q 826 345 825 347 q 829 342 828 343 q 833 340 831 342 q 839 332 835 339 q 845 317 847 325 q 847 307 843 310 q 853 306 850 310 q 857 294 856 301 q 863 263 864 283 q 868 232 863 242 q 874 215 871 231 q 878 182 876 200 q 881 148 881 164 q 879 131 881 132 q 879 122 876 119 q 881 113 882 125 q 878 97 881 100 q 878 88 871 94 q 888 76 885 81 m 176 589 q 171 594 172 594 q 170 592 169 594 q 174 586 171 589 q 179 582 176 583 q 178 583 178 582 q 177 585 178 585 q 176 589 176 586 m 90 275 q 88 278 92 278 q 83 275 83 278 q 86 272 83 271 q 90 275 89 272 m 85 260 q 81 261 79 269 q 82 249 82 253 q 87 247 85 239 q 85 260 89 256 m 58 224 q 57 227 61 229 q 54 222 53 225 q 58 224 54 215 m 44 118 q 49 117 46 115 q 53 122 53 118 q 48 124 54 128 q 44 118 42 119 m 54 150 q 51 145 50 147 q 55 142 53 143 q 59 140 57 140 q 58 143 61 140 q 56 150 54 144 q 54 150 58 156 m 58 192 q 60 188 57 188 q 63 192 64 188 q 58 192 63 200 m 63 203 q 69 201 68 197 q 67 208 69 206 q 61 210 63 213 q 63 203 60 207 m 75 229 q 78 233 76 229 q 80 242 79 238 q 80 249 81 246 q 78 249 79 251 q 75 247 75 242 q 74 256 75 253 q 71 246 72 250 q 65 238 69 242 q 60 231 60 232 q 65 233 60 231 q 67 231 69 235 q 66 223 63 225 q 75 229 69 221 m 89 69 q 91 76 92 74 q 88 75 90 79 q 81 72 86 72 q 79 68 76 71 q 89 69 82 63 m 122 324 q 123 328 125 328 q 118 325 121 329 q 117 321 114 321 q 122 324 119 321 m 122 392 q 126 391 125 383 q 124 400 126 399 q 120 401 121 403 q 122 392 119 399 m 154 379 q 156 376 151 376 q 158 379 160 376 q 154 379 158 383 m 188 419 q 190 417 183 417 q 193 418 196 417 q 188 419 192 419 m 736 946 q 734 949 738 949 q 731 946 731 949 q 736 946 731 940 m 674 944 q 671 950 674 947 q 665 953 668 953 q 661 953 663 954 q 663 949 660 953 q 669 943 665 944 q 674 944 674 942 m 600 951 q 599 947 597 950 q 603 942 601 944 q 607 940 606 940 q 607 946 608 940 q 600 951 601 951 m 507 942 q 500 943 501 949 q 506 936 499 938 q 507 942 513 936 m 492 946 q 491 947 493 950 q 488 942 489 944 q 486 938 486 939 q 493 940 486 936 q 494 942 499 943 q 492 946 489 942 m 317 831 q 299 835 301 835 q 299 831 297 835 q 292 808 296 817 q 293 772 288 800 q 292 757 294 757 q 317 655 286 700 q 403 586 347 610 q 451 564 431 571 q 500 546 472 557 q 520 536 511 543 q 540 536 529 529 q 553 549 547 539 q 568 563 560 560 q 576 576 571 564 q 588 589 582 588 q 596 597 592 592 q 605 609 600 603 q 615 619 610 615 q 626 624 619 624 q 632 626 632 624 q 626 629 632 629 q 621 633 619 629 q 624 638 621 638 q 629 635 628 638 q 639 638 631 632 q 644 647 646 644 q 638 644 643 650 q 631 642 633 639 q 631 650 628 644 q 638 656 633 656 q 639 660 640 656 q 643 669 638 663 q 654 675 649 675 q 666 683 658 675 q 672 694 674 692 q 674 697 671 697 q 676 699 676 694 q 672 707 675 703 q 667 703 667 710 q 663 694 668 696 q 660 689 658 693 q 658 682 661 688 q 653 681 653 675 q 656 696 653 688 q 665 712 660 704 q 674 715 669 719 q 681 716 678 713 q 682 721 685 719 q 679 724 679 721 q 685 726 682 726 q 692 732 689 726 q 697 739 694 739 q 698 749 700 742 q 700 760 696 757 q 708 774 703 772 q 717 790 713 775 q 724 837 725 821 q 717 846 722 853 q 715 838 725 838 q 709 834 710 838 q 701 831 708 831 q 696 828 693 831 q 689 826 694 822 q 690 833 683 831 q 690 840 693 836 q 681 839 686 843 q 653 833 669 835 q 620 831 638 832 q 587 830 603 831 q 558 826 571 829 q 553 826 556 821 q 547 828 551 831 q 431 823 496 822 q 317 831 365 824 m 650 671 q 649 665 653 668 q 649 658 646 661 q 653 658 651 653 q 658 664 656 663 q 656 669 663 664 q 650 671 649 674 m 603 385 q 606 382 599 382 q 610 385 613 382 l 603 385 m 565 400 q 563 403 565 403 q 560 400 560 403 q 563 397 560 397 q 565 400 565 397 m 539 414 q 538 417 539 417 q 535 414 536 417 q 536 411 532 411 q 539 414 540 411 m 518 422 q 515 424 519 426 q 511 419 510 422 q 514 418 511 417 q 518 422 517 419 m 511 432 q 506 427 504 432 q 514 429 507 422 q 511 432 519 432 m 486 433 q 490 439 483 436 q 500 443 497 442 q 489 442 496 443 q 478 438 482 440 q 474 434 474 436 q 482 432 474 432 q 486 433 488 432 m 472 442 q 466 444 472 444 q 463 447 460 443 q 460 451 464 453 q 453 444 456 449 q 453 438 450 440 q 472 442 456 436 m 429 461 q 428 465 425 463 q 431 468 432 467 q 428 470 431 469 q 422 470 425 471 q 418 468 418 469 q 418 460 418 464 q 425 457 418 457 q 429 461 433 457 m 293 535 q 286 543 292 539 q 281 540 281 547 q 283 538 281 535 q 288 535 286 540 q 293 535 289 529 m 224 65 q 227 65 222 63 q 229 69 232 67 q 226 70 228 72 q 224 65 224 68 m 231 92 q 232 99 235 92 q 228 104 232 101 q 226 104 224 107 q 228 97 229 103 q 231 92 228 92 m 249 69 q 253 63 249 63 q 251 69 257 64 q 249 69 249 72 m 274 100 q 276 102 278 97 q 268 103 274 107 q 263 99 263 101 q 267 95 264 97 q 272 93 269 93 q 271 97 274 93 l 271 96 q 274 100 269 100 m 297 108 q 300 106 294 106 q 304 107 306 106 q 297 108 301 108 m 311 103 q 314 100 313 100 q 315 103 315 100 q 313 106 317 106 q 311 103 308 106 m 328 63 q 329 59 326 60 q 333 61 332 58 q 330 64 333 63 q 328 63 326 65 m 406 54 q 406 52 399 50 q 410 56 413 54 q 406 54 408 57 m 432 60 q 435 56 432 57 q 438 58 438 56 q 435 61 438 60 q 432 60 432 63 m 447 103 q 447 100 440 100 q 454 103 453 100 q 453 106 456 106 q 447 103 450 106 m 451 93 q 452 89 449 89 q 456 93 456 89 q 454 97 456 97 q 451 93 453 97 m 469 57 q 470 51 465 56 q 474 54 475 47 q 469 57 471 57 m 496 53 q 503 54 499 54 q 507 57 507 54 q 501 57 507 58 q 495 56 499 54 q 488 58 492 57 q 483 60 485 60 q 482 56 481 60 q 481 49 481 47 q 496 53 481 50 m 521 83 q 526 81 518 81 q 532 83 533 81 q 526 86 529 86 q 521 83 522 86 m 535 150 q 532 152 538 156 q 531 147 526 149 q 535 150 532 147 m 538 107 q 538 101 531 104 q 547 103 544 99 q 547 108 553 106 q 538 107 540 110 m 546 90 q 542 94 549 96 q 535 89 535 92 q 538 87 532 86 q 546 90 544 88 m 565 51 q 564 54 565 51 q 556 57 561 57 q 547 56 550 57 q 556 53 550 56 q 565 51 563 51 m 569 106 q 565 103 567 107 q 563 94 564 99 q 563 88 563 89 q 567 94 564 86 l 569 106 m 624 46 q 632 44 629 42 q 635 50 635 46 q 633 56 635 54 q 629 53 631 58 q 627 48 629 47 q 622 51 625 49 q 617 54 619 53 q 613 51 614 56 q 610 50 610 46 q 601 54 608 54 q 592 57 594 54 q 588 57 588 61 q 593 49 589 53 q 618 46 600 39 q 624 46 624 51 m 607 92 q 602 88 606 90 q 596 85 599 86 q 592 80 590 82 q 600 77 594 78 q 610 78 606 76 q 615 82 615 79 q 613 86 618 86 q 607 92 607 86 m 604 101 q 601 105 603 107 q 601 100 600 103 q 606 98 604 97 q 604 101 607 99 m 613 142 q 633 140 628 143 q 642 135 639 138 q 649 133 644 133 q 669 139 654 133 q 676 143 675 143 q 678 141 678 143 q 678 137 678 139 q 681 135 678 135 q 685 133 685 136 q 688 129 685 129 q 689 133 690 129 q 691 133 686 138 q 700 133 696 129 q 704 132 706 135 q 709 129 701 125 q 719 132 717 133 q 731 127 725 129 q 728 136 738 125 q 722 149 719 143 q 718 160 725 154 q 716 168 710 163 q 717 176 722 174 q 713 188 714 179 q 721 190 713 196 q 719 196 729 183 q 708 213 714 201 q 695 235 701 224 q 683 256 689 246 q 672 272 678 267 q 627 306 653 290 q 578 331 601 322 q 558 340 572 333 q 542 343 544 346 q 527 350 535 349 q 515 354 519 351 q 508 358 513 360 q 499 361 503 356 q 487 367 492 368 q 471 374 482 365 q 453 379 454 382 q 440 384 447 376 q 426 390 433 392 q 403 397 417 393 q 386 406 390 401 q 376 410 386 408 q 367 414 365 411 q 361 419 368 417 q 351 418 354 421 q 351 408 358 415 q 338 403 344 401 q 332 401 331 403 q 337 398 333 400 q 342 392 340 396 q 338 388 343 389 q 333 381 333 385 q 324 376 333 376 q 317 369 315 375 q 310 360 317 364 q 306 357 307 358 q 307 356 304 356 q 299 346 311 356 q 283 336 288 336 q 277 333 281 336 q 279 329 274 331 q 281 321 289 329 q 265 315 272 313 q 247 304 253 315 q 251 290 240 293 q 257 283 261 288 q 240 275 253 278 q 231 270 229 274 q 225 261 232 267 q 219 258 219 258 q 225 258 219 257 q 231 254 232 261 q 221 243 229 247 q 215 239 215 240 q 217 237 215 238 q 219 234 218 236 q 215 231 219 232 q 212 223 210 228 q 211 217 214 218 q 210 205 208 215 q 206 194 213 194 q 206 190 201 193 q 205 188 211 188 q 200 176 199 188 q 199 168 200 174 q 199 158 199 163 q 200 153 199 154 q 206 156 201 151 q 214 158 206 157 q 233 158 222 158 q 253 158 244 158 q 261 156 261 157 q 268 154 261 151 q 299 156 296 160 q 303 154 299 153 q 315 157 308 156 q 326 160 321 158 q 333 160 332 161 q 348 159 336 160 q 375 157 360 158 q 405 156 399 157 q 411 153 411 156 q 415 150 413 147 q 425 150 418 153 q 438 149 431 147 q 454 154 446 151 q 469 158 463 157 q 479 153 476 158 q 481 149 478 149 q 487 149 483 149 q 494 149 490 149 q 497 146 497 149 q 508 144 501 142 q 521 151 514 147 q 534 155 528 154 q 543 147 540 156 q 549 144 540 140 q 560 146 557 149 q 566 146 561 144 q 575 149 571 147 q 582 151 579 151 q 583 149 585 151 q 586 144 581 143 q 599 148 592 146 q 610 151 606 150 q 610 146 615 151 q 613 142 606 142 m 694 101 q 697 104 699 103 q 690 105 694 106 q 680 103 685 104 q 676 100 675 101 q 685 99 678 96 q 694 101 692 103 m 656 56 q 660 49 656 49 q 658 54 664 49 q 656 56 656 60 m 658 111 q 656 106 653 113 q 661 106 658 99 q 658 111 661 108 m 664 113 q 667 109 664 110 q 671 111 669 108 q 667 114 671 113 q 664 113 664 115 m 675 43 q 679 40 671 39 q 688 43 688 40 q 679 51 686 46 q 669 57 672 57 q 667 53 665 57 q 674 49 668 50 q 675 43 681 49 m 699 83 q 703 94 699 90 q 701 96 704 96 q 693 96 697 96 q 685 95 689 96 q 682 94 682 94 q 672 90 676 93 q 675 79 667 88 q 681 76 683 68 q 685 86 681 86 q 688 80 688 86 q 690 82 688 74 q 689 89 693 85 q 690 90 685 93 q 693 85 692 89 q 694 77 694 81 q 695 74 694 74 q 699 83 696 75 m 707 96 q 703 78 700 88 q 713 81 706 68 q 715 85 715 86 q 715 82 715 85 q 716 78 715 79 q 719 81 717 76 q 722 79 722 83 q 725 81 722 71 q 726 92 728 92 q 722 99 724 92 q 717 101 719 106 q 710 102 714 94 q 706 107 707 110 q 708 101 706 103 q 707 96 710 99 m 731 44 q 729 49 732 47 q 724 51 726 51 q 719 51 721 51 q 722 47 718 50 q 724 43 726 46 q 720 42 722 40 q 715 45 718 43 q 711 47 713 47 q 711 43 710 47 q 713 41 710 39 q 717 40 717 43 q 725 37 718 36 q 731 44 732 38 m 735 81 q 729 83 731 85 q 729 77 728 81 q 733 72 731 74 q 738 74 735 69 q 735 81 738 75 m 735 96 q 738 91 729 90 q 740 101 746 92 q 735 107 739 104 q 731 107 731 110 q 735 101 731 104 q 735 96 740 97 m 763 103 q 765 100 758 100 q 768 101 771 100 q 763 103 767 103 m 771 43 q 767 44 767 46 q 770 38 767 42 q 777 33 774 35 q 783 36 781 32 q 777 39 783 39 q 771 43 771 39 m 778 75 q 786 78 778 78 q 794 81 794 78 q 786 84 792 83 q 778 81 781 85 q 771 76 778 76 q 767 75 767 76 q 770 73 768 74 q 775 72 772 72 q 778 75 778 72 m 63 264 q 66 271 63 267 q 72 274 69 275 q 73 267 71 274 q 74 264 75 261 q 67 262 71 267 q 63 264 63 257 m 139 876 q 135 873 139 874 q 135 876 132 872 q 138 879 136 879 q 139 876 139 879 m 124 781 q 127 781 126 783 q 127 776 128 779 q 124 771 126 772 q 121 774 122 769 q 124 781 121 775 z "},"9":{"ha":881,"x_min":26,"x_max":854,"o":"m 838 733 q 837 744 842 742 q 836 757 832 746 q 845 753 838 758 q 849 744 853 747 q 849 738 844 740 q 848 724 853 735 q 844 710 843 714 q 843 706 846 707 q 839 707 840 704 q 836 720 839 713 q 838 733 833 728 m 831 497 q 842 492 844 500 q 842 476 840 483 q 836 472 843 471 q 832 472 835 474 q 827 470 829 471 q 824 469 825 469 q 826 474 824 469 q 831 482 832 479 q 827 487 829 485 q 824 491 825 489 q 831 497 824 493 m 849 693 q 844 689 849 689 q 836 693 840 689 q 840 700 831 700 q 849 693 850 700 m 849 681 q 847 677 849 678 q 842 679 844 676 q 842 685 836 683 q 849 681 849 688 m 839 810 q 837 822 833 815 q 844 830 840 828 q 851 830 849 832 q 846 818 853 828 q 847 812 839 813 q 851 806 854 811 q 849 794 849 803 q 844 790 849 785 q 842 799 842 794 q 839 810 842 804 m 840 760 q 840 767 838 763 q 840 772 843 771 q 837 780 836 774 q 842 785 838 786 q 844 781 847 785 q 847 774 842 776 q 850 768 850 772 q 849 760 850 764 q 844 756 847 757 q 840 760 842 754 m 847 525 q 842 504 849 504 q 839 517 836 504 q 839 525 840 525 q 835 523 838 525 q 832 520 833 521 q 833 526 831 519 q 838 533 835 529 q 844 538 842 538 q 847 537 846 539 q 847 525 849 535 m 849 579 q 840 579 849 568 q 841 583 833 583 q 849 579 849 582 m 839 561 q 844 570 836 568 q 850 564 851 572 q 848 553 849 560 q 842 551 847 546 q 839 561 842 556 m 844 888 q 844 892 842 890 q 849 890 846 893 q 850 885 853 886 q 844 888 847 883 m 746 953 q 771 960 761 964 q 781 940 781 956 q 784 934 779 929 q 794 933 789 939 q 796 931 797 931 q 798 928 792 932 q 806 926 804 924 q 818 915 808 928 q 831 894 828 903 q 831 822 832 871 q 831 725 831 774 q 830 640 831 676 q 831 601 829 603 q 837 604 832 604 q 839 608 842 604 q 841 615 836 613 q 849 619 846 617 q 839 631 844 624 q 840 642 833 639 q 842 645 843 643 q 838 649 840 647 q 836 653 836 651 q 840 656 836 656 q 846 650 843 656 q 851 638 849 644 q 853 625 853 631 q 850 618 853 619 q 850 597 853 600 q 842 592 847 593 q 831 588 836 592 q 826 567 826 585 q 831 549 826 550 q 829 543 836 547 q 825 532 826 540 q 823 513 824 524 q 822 494 822 503 q 825 482 822 485 q 826 478 828 479 q 822 475 825 476 q 817 472 819 474 q 815 467 815 471 q 815 456 815 464 q 814 441 814 447 q 814 433 814 435 q 817 444 814 432 q 823 456 815 451 q 825 463 831 460 q 826 465 821 465 q 838 467 829 465 q 842 464 847 469 q 842 458 840 460 q 838 447 844 456 q 828 439 832 439 q 823 436 824 439 q 824 431 822 433 q 826 426 825 428 q 828 429 828 425 q 835 433 828 432 q 836 429 842 433 q 836 416 833 422 q 832 403 839 410 q 818 386 829 390 q 801 374 807 382 q 798 365 804 371 q 796 357 792 358 q 796 353 799 357 q 794 346 792 346 q 799 349 796 346 q 804 356 803 351 q 801 360 806 360 q 803 367 799 361 q 810 372 807 374 q 814 378 814 374 q 818 382 814 382 q 827 385 824 381 q 835 385 831 390 q 832 376 838 379 q 829 361 826 372 q 828 350 831 357 q 823 338 826 343 q 818 327 819 332 q 819 322 817 322 q 824 318 831 325 q 819 306 818 311 q 818 300 821 304 q 813 292 815 296 q 809 287 810 289 q 813 288 808 285 q 819 285 822 290 q 810 272 817 279 q 799 260 804 265 q 801 257 794 254 q 801 250 806 260 q 793 238 797 240 q 789 231 783 231 q 792 224 796 231 q 782 213 789 217 q 774 199 772 210 q 773 188 776 192 q 768 179 769 183 q 760 172 769 178 q 751 164 750 169 q 746 156 751 158 q 746 153 743 156 q 738 142 747 149 q 726 132 729 135 q 717 119 724 126 q 700 105 710 113 q 681 91 690 97 q 668 81 672 85 q 624 51 649 67 q 575 28 599 35 q 566 26 574 29 q 549 18 558 22 q 529 10 539 14 q 514 8 519 7 q 484 0 503 6 q 454 -6 465 -6 q 459 6 451 -3 q 463 17 467 15 q 456 15 460 22 q 454 6 451 8 q 445 -2 457 0 q 419 -1 433 -4 q 410 -2 417 0 q 406 -1 404 -4 q 403 2 406 3 q 396 -1 400 1 q 388 -4 392 -3 q 383 -1 383 -6 q 366 0 383 1 q 343 -4 349 -1 q 332 -3 336 -7 q 322 -1 328 4 q 314 -1 317 -7 q 292 3 306 1 q 267 4 279 4 q 247 5 256 4 q 239 8 239 6 q 229 11 235 11 q 217 11 224 11 q 204 13 210 11 q 194 18 199 14 q 187 24 192 24 q 177 22 182 24 q 168 18 172 19 q 163 21 164 17 q 129 31 143 26 q 106 43 115 36 q 94 60 97 50 q 93 88 90 71 q 96 99 88 94 q 109 107 106 104 q 115 112 113 110 q 126 114 118 114 q 156 113 135 114 q 245 107 201 110 q 329 106 289 104 q 406 117 369 108 q 478 147 443 126 q 491 155 483 149 q 505 167 499 161 q 515 176 511 174 q 519 171 519 179 q 524 178 522 171 q 529 186 526 186 q 548 199 535 186 q 565 213 561 211 q 572 219 572 215 q 575 225 572 222 l 586 231 q 593 238 593 236 q 592 242 593 240 q 592 245 592 243 q 603 254 593 247 q 611 271 604 261 q 625 290 618 281 q 638 308 632 300 q 644 322 644 317 q 649 330 644 325 q 654 338 653 335 q 661 361 653 354 q 671 382 672 372 q 658 381 669 392 q 589 374 629 375 q 510 375 549 374 q 438 379 471 376 q 388 382 404 382 q 261 389 329 386 q 138 401 193 392 q 113 408 128 404 q 86 421 97 411 q 83 428 78 428 q 85 432 88 429 q 82 447 81 439 q 71 454 83 456 q 64 455 68 453 q 56 459 60 457 q 52 462 53 461 q 57 460 51 463 q 63 458 63 457 q 63 461 64 458 q 58 467 61 464 q 56 471 56 469 q 53 476 56 472 q 47 481 50 479 q 44 481 44 482 q 49 474 43 479 q 51 465 56 469 q 49 457 46 461 q 47 456 51 451 q 34 511 39 474 q 28 589 29 549 q 30 663 26 629 q 40 708 33 697 q 43 710 42 707 q 44 717 44 713 q 44 724 44 721 q 40 726 43 726 q 40 731 38 724 q 49 738 43 733 q 47 744 54 742 q 46 748 43 743 q 51 751 49 753 q 55 757 56 751 q 57 764 54 763 q 64 771 60 764 q 73 781 67 779 q 79 790 79 782 q 82 800 79 800 q 93 808 85 800 q 101 819 101 817 q 119 837 108 829 q 135 861 129 844 q 156 882 144 886 q 158 885 161 879 q 160 895 154 888 q 174 908 167 903 q 186 914 182 914 q 183 903 190 914 q 178 894 179 897 q 182 894 178 892 q 188 902 183 894 q 199 919 193 910 q 209 937 204 929 q 215 944 214 944 q 228 952 221 949 q 242 960 236 956 q 249 959 249 963 q 258 957 249 956 q 284 965 275 958 q 317 967 293 972 q 324 967 326 964 q 325 972 322 969 q 335 974 328 974 q 352 975 343 975 q 369 974 361 975 q 378 975 376 974 q 407 979 379 976 q 432 977 428 979 q 418 972 436 975 q 408 969 411 972 q 411 967 404 967 q 425 970 419 969 q 429 968 431 971 q 433 965 426 964 q 443 971 439 967 q 460 976 449 978 q 483 974 467 974 q 506 971 500 975 q 513 967 507 968 q 527 967 519 967 q 541 967 535 967 q 547 963 547 967 q 560 961 553 957 q 572 965 564 964 q 576 961 579 965 q 603 956 586 958 q 632 950 621 953 q 647 948 633 950 q 678 944 661 946 q 715 944 696 943 q 746 953 733 946 m 78 504 q 80 501 74 501 q 83 503 86 501 q 78 504 82 504 m 519 28 q 517 31 525 33 q 511 26 510 29 q 519 28 511 17 m 553 49 q 568 53 560 46 q 578 67 576 60 q 569 63 578 72 q 560 56 561 53 q 558 54 558 57 q 551 51 554 46 q 543 57 549 57 q 538 53 542 58 q 531 44 535 49 q 527 35 528 39 q 531 36 526 32 q 536 42 536 38 q 538 47 535 42 q 540 50 539 51 q 540 47 540 49 q 541 42 540 44 q 543 40 542 39 q 544 47 547 43 q 553 49 542 51 m 588 69 q 586 63 579 65 q 590 65 593 61 q 588 69 586 65 q 588 69 590 72 m 613 89 q 607 92 610 93 q 603 88 604 92 q 602 83 601 85 q 607 83 603 81 q 613 89 613 86 m 606 76 q 608 75 600 75 q 614 76 617 75 q 606 76 610 78 m 621 83 q 622 91 618 85 q 621 94 626 97 q 615 86 615 92 q 621 81 615 81 q 621 83 622 81 m 811 425 q 806 397 804 394 q 824 418 808 399 q 826 422 828 419 q 819 427 824 425 q 812 429 815 429 q 811 425 808 429 m 813 388 q 809 390 814 390 q 804 388 804 390 q 808 384 806 383 q 813 388 810 385 m 319 803 q 318 805 326 806 q 311 801 310 804 q 319 803 311 796 m 276 951 q 277 945 272 947 q 286 949 282 943 q 291 958 292 956 q 285 954 290 960 q 279 951 279 950 q 276 951 279 953 m 242 949 q 237 946 238 949 q 237 941 236 943 q 240 939 238 939 q 243 944 242 939 q 242 949 247 950 m 238 932 q 235 926 231 925 q 243 929 240 926 q 243 934 246 933 q 238 932 240 935 m 161 468 q 167 472 168 471 q 163 474 167 474 q 156 472 160 474 q 151 468 151 471 q 153 465 151 465 q 161 468 154 465 m 254 449 q 286 451 282 450 q 289 454 290 451 q 283 456 286 457 q 275 457 281 454 q 267 457 268 460 q 260 454 265 454 q 257 457 254 454 q 253 457 260 461 q 243 456 247 453 q 221 458 238 458 q 197 456 204 458 q 193 457 192 454 q 192 458 197 463 q 185 456 186 453 q 166 458 176 458 q 151 456 156 458 q 151 452 146 454 q 181 450 157 450 q 208 446 206 450 q 226 447 215 442 q 254 449 238 451 m 185 471 q 188 469 181 469 q 193 471 196 469 q 185 471 189 472 m 268 468 q 272 468 267 465 q 270 472 274 472 q 268 468 267 471 m 296 449 q 302 447 299 446 q 303 450 306 447 q 297 453 301 453 q 296 449 292 454 m 318 454 q 313 453 313 454 q 315 450 313 451 q 321 448 318 449 q 324 450 324 447 q 318 454 325 454 m 339 450 q 338 453 340 454 q 335 450 335 453 q 339 450 333 447 m 353 453 q 350 455 354 457 q 347 450 346 453 q 353 453 350 447 m 367 446 q 369 450 369 449 q 367 453 368 454 q 364 451 365 453 q 363 447 363 449 q 367 446 364 446 m 414 456 q 413 452 407 457 q 418 453 418 447 l 417 454 q 414 456 415 454 m 443 517 q 446 514 440 514 q 450 515 451 514 q 447 519 450 518 q 443 517 444 519 m 614 513 q 615 517 621 518 q 606 513 608 515 q 605 508 599 506 q 614 513 611 510 m 469 525 q 516 526 486 526 q 578 526 546 526 q 641 526 611 526 q 689 526 671 526 q 690 534 689 526 q 692 551 692 542 q 693 570 693 561 q 693 583 693 579 q 693 617 693 603 q 693 644 693 631 q 693 676 693 658 q 693 724 693 694 q 693 774 693 757 q 690 799 693 792 q 681 805 688 806 q 661 804 674 804 q 621 802 629 801 q 610 806 613 803 q 595 807 604 810 q 579 810 586 804 q 567 812 572 817 q 557 813 563 807 q 550 813 553 815 q 544 815 547 811 q 535 817 542 818 q 520 819 528 818 q 501 814 513 821 q 495 814 499 811 q 489 819 492 817 q 483 824 486 822 q 476 824 479 826 q 461 820 468 821 q 446 815 454 819 q 438 813 440 813 q 435 816 436 814 q 433 819 435 818 q 425 817 431 821 q 413 815 414 810 q 404 822 411 819 q 390 816 400 822 q 383 807 381 810 q 380 808 383 804 q 378 814 376 811 q 372 816 376 819 q 361 814 367 813 q 351 813 354 817 q 346 813 349 808 q 342 813 346 814 q 337 810 339 813 q 335 807 335 808 q 340 806 335 806 q 342 803 346 806 q 318 797 335 796 q 294 796 301 799 q 281 787 296 789 q 261 782 267 785 q 239 770 254 778 q 215 760 224 763 q 213 758 211 763 q 213 754 215 754 q 209 750 210 754 q 206 746 208 746 q 203 743 203 749 q 197 728 200 733 q 188 714 193 724 q 179 691 181 706 q 168 674 178 676 q 165 667 165 674 q 168 657 165 660 q 169 653 172 656 q 167 634 165 646 q 172 625 168 622 q 174 624 175 625 q 165 603 164 621 q 163 581 165 586 q 162 568 161 578 q 160 556 163 558 q 160 542 156 551 q 160 531 164 533 q 156 516 156 526 q 159 498 157 506 q 165 490 161 490 q 174 501 169 489 q 185 497 182 500 q 192 492 189 493 q 199 492 196 490 q 210 501 203 493 q 219 504 214 507 q 228 499 224 501 q 234 497 232 496 q 236 508 236 497 q 244 502 239 506 q 251 496 249 499 q 257 507 254 506 q 263 506 260 508 q 270 500 267 503 q 278 500 274 497 q 286 501 281 503 q 294 501 292 499 q 311 506 301 508 q 325 500 321 503 q 331 511 322 504 q 342 510 339 518 q 349 507 343 506 q 360 513 354 508 q 383 517 376 515 q 397 519 389 518 q 419 522 404 521 q 469 525 435 522 m 685 514 q 679 517 683 519 q 682 511 675 514 l 685 514 m 665 121 q 668 126 665 122 q 674 133 671 129 q 678 139 676 136 q 676 143 679 142 q 677 153 671 143 q 681 165 683 163 q 669 145 675 160 q 657 132 663 131 q 651 125 654 132 q 651 118 646 119 q 654 113 657 117 q 660 114 654 110 q 665 121 667 118 m 693 146 q 696 153 690 146 q 699 158 701 160 q 693 161 696 157 q 689 166 690 168 q 686 158 688 164 q 683 147 685 153 q 682 139 682 140 q 683 128 675 126 q 693 139 690 129 l 693 146 m 717 192 q 719 193 717 192 q 721 194 721 193 q 717 198 719 199 q 714 196 715 197 q 713 192 713 194 q 717 192 713 190 m 731 214 q 735 222 740 218 q 724 215 729 225 q 731 214 717 206 m 738 200 q 746 205 738 197 q 753 213 754 213 q 744 208 751 214 q 738 200 738 203 m 751 256 q 756 252 749 251 q 763 256 763 253 q 758 258 764 258 q 751 256 751 258 m 772 265 q 775 271 778 268 q 765 272 772 272 q 765 265 760 269 q 772 265 769 261 m 797 336 q 792 336 794 339 q 788 330 789 333 q 788 325 786 326 q 793 329 789 324 q 797 336 799 335 m 783 313 q 782 305 774 306 q 790 311 790 304 q 783 313 790 319 m 354 807 q 360 806 360 810 q 355 803 361 803 q 349 804 349 803 l 354 807 m 164 921 q 159 917 163 918 q 158 921 156 917 q 163 924 160 924 q 164 921 165 924 m 263 963 q 272 963 274 968 q 263 960 269 958 q 263 963 257 960 m 203 943 q 198 938 204 942 q 185 929 192 933 q 173 924 178 925 q 172 928 168 922 q 189 938 182 931 q 203 943 196 944 z "},"\u0000":{"ha":0,"x_min":0,"x_max":0,"o":""},"\r":{"ha":375,"x_min":0,"x_max":0,"o":""}," ":{"ha":486,"x_min":0,"x_max":0,"o":""},"A":{"ha":1047,"x_min":25,"x_max":1019,"o":"m 892 929 q 885 941 886 933 q 890 953 885 949 q 895 957 894 957 q 896 953 896 957 q 897 947 896 951 q 898 937 897 942 q 897 929 899 932 q 892 929 896 926 m 1006 157 q 1013 147 1010 154 q 1017 133 1015 139 q 1019 124 1019 126 q 1015 129 1018 122 q 1014 130 1015 138 q 1007 126 1013 122 q 1004 133 1006 125 q 1001 148 1003 140 q 1001 160 1000 156 q 1006 157 1001 164 m 996 92 q 1000 90 996 94 q 1001 85 1001 89 q 1000 76 1001 81 q 996 67 999 71 q 992 64 993 64 q 985 66 990 65 q 976 67 981 67 q 969 65 971 67 q 974 60 967 63 q 981 54 978 60 q 981 47 983 49 q 976 47 978 50 q 978 42 975 44 q 981 34 982 38 q 976 28 981 31 q 967 24 972 26 q 960 21 963 22 q 953 19 954 15 q 943 26 947 25 q 934 26 939 28 q 924 24 929 25 q 913 28 918 24 q 897 34 907 32 q 886 40 888 36 q 881 45 886 42 q 872 51 876 49 q 866 57 868 54 q 868 61 864 60 q 868 64 874 61 q 861 65 863 67 q 854 71 860 64 q 852 77 850 74 q 858 83 854 81 q 863 86 861 85 q 857 86 864 88 q 852 85 854 85 q 851 88 850 86 q 846 92 854 90 q 839 92 838 94 q 835 90 838 88 q 828 99 832 93 q 820 110 824 104 q 814 115 817 115 q 818 120 815 117 q 823 126 821 124 q 825 130 825 129 q 819 126 825 131 q 813 125 817 122 q 807 133 810 128 q 803 144 804 138 q 804 151 801 150 q 800 158 811 161 q 791 162 796 156 q 782 175 786 168 q 776 189 778 182 q 778 196 775 196 q 771 215 779 197 q 763 230 764 226 q 765 235 763 233 q 766 238 772 238 q 758 238 760 238 q 763 245 756 238 q 774 256 771 253 q 764 249 771 253 q 754 247 757 246 q 754 239 749 250 q 753 233 756 232 q 748 238 751 233 q 742 249 744 243 q 740 258 739 256 q 736 265 742 263 q 731 271 731 268 q 712 316 714 301 q 704 336 710 331 q 679 342 699 342 q 607 343 660 342 q 534 343 563 343 q 481 343 506 343 q 432 343 457 343 q 372 342 407 343 q 369 331 372 338 q 363 319 367 325 q 354 310 358 314 q 347 307 350 306 q 340 303 343 307 q 344 296 338 299 q 348 292 349 294 q 344 286 347 289 q 336 282 340 283 q 332 282 332 281 q 325 284 329 285 q 321 279 321 283 q 317 274 321 275 q 310 276 313 272 q 307 274 304 282 q 310 265 307 269 q 308 260 311 261 q 303 254 306 260 q 290 245 300 247 q 283 233 279 243 q 283 226 285 233 q 285 221 279 215 q 291 211 289 222 q 288 196 293 200 q 283 194 286 192 q 276 200 279 196 q 269 208 272 204 q 263 210 265 211 q 263 207 260 207 q 267 199 269 207 q 253 179 264 190 q 248 171 251 178 q 250 167 244 164 q 253 165 254 169 q 250 160 251 160 q 238 156 247 161 q 229 147 229 150 q 235 149 229 143 q 236 147 240 154 q 238 138 233 142 q 243 131 243 135 q 238 127 243 128 q 231 129 233 126 q 224 131 226 135 q 219 123 221 128 q 213 115 217 118 q 204 117 210 113 q 203 124 200 118 q 199 127 206 131 q 194 117 192 124 q 191 94 197 107 q 183 90 185 82 q 176 99 179 103 q 167 86 172 94 q 163 78 154 76 q 168 76 168 81 q 171 78 168 71 q 179 83 172 88 q 179 76 186 78 q 176 70 176 76 q 169 67 175 64 q 165 62 165 67 q 163 51 164 57 q 159 42 161 46 q 150 39 157 38 q 138 34 143 39 q 138 26 132 29 q 140 16 142 22 q 135 4 139 10 q 127 -3 132 -1 q 117 3 122 -4 q 117 8 115 3 q 121 19 119 14 q 122 26 122 24 q 117 24 121 29 q 110 19 114 18 q 103 13 106 19 q 80 8 96 1 q 56 22 64 15 q 43 38 46 31 q 33 50 40 46 q 36 53 36 49 q 32 81 36 58 q 35 99 31 96 q 40 103 39 101 q 38 104 40 104 q 36 108 35 106 q 35 111 38 111 q 33 121 32 111 q 31 129 35 131 q 35 143 25 129 q 74 197 56 172 q 110 246 93 222 q 142 294 126 269 q 174 349 158 319 q 178 357 174 350 q 180 363 182 363 q 174 363 178 364 q 169 363 171 363 q 174 369 167 364 q 179 375 179 374 q 176 376 179 376 q 168 377 172 376 q 161 381 164 378 q 160 387 158 382 q 164 396 163 392 q 165 403 165 400 q 160 404 165 406 q 158 400 154 403 q 156 390 164 397 q 146 385 149 382 q 139 382 144 385 q 128 383 133 374 q 129 396 122 393 q 131 400 133 400 q 127 406 126 400 q 131 417 128 413 q 133 421 135 421 q 130 421 132 421 q 127 422 128 421 q 131 431 126 424 q 136 438 133 438 q 142 438 139 439 q 148 435 144 436 q 156 436 151 433 q 156 440 158 438 q 151 446 154 443 q 146 452 147 449 q 150 460 144 456 q 178 461 160 464 q 201 461 196 458 q 215 465 214 468 q 222 463 215 463 q 240 479 231 464 q 257 514 249 494 q 272 554 265 533 q 285 588 279 575 q 310 660 296 622 q 333 733 325 697 q 342 765 339 744 q 353 794 344 786 q 359 806 360 799 q 365 814 358 814 q 370 817 371 815 q 367 819 369 818 q 361 823 364 821 q 360 828 358 825 q 356 828 364 833 q 342 824 349 822 q 325 828 336 826 q 303 831 311 829 q 290 835 296 833 q 278 838 285 836 q 263 840 272 839 q 253 843 261 842 q 234 847 244 844 q 213 850 224 849 q 193 853 201 851 q 189 860 188 853 q 189 865 190 864 q 185 865 188 865 q 179 867 182 865 q 175 875 176 868 q 172 888 171 882 q 167 893 172 893 q 162 909 158 900 q 174 925 165 918 q 192 935 182 932 q 210 935 203 939 q 232 940 217 938 q 256 942 247 942 q 262 944 264 940 q 254 946 260 947 q 248 947 250 946 q 247 949 246 949 q 260 949 250 951 q 271 953 271 947 q 285 958 271 956 q 355 970 313 967 q 440 976 397 974 q 473 978 460 974 q 488 979 486 982 q 496 979 486 972 q 500 979 501 981 q 503 977 499 978 q 513 976 507 976 q 525 977 519 976 q 533 979 531 978 q 538 978 539 981 q 540 970 535 969 q 551 974 544 971 q 562 980 557 978 q 564 978 567 982 q 617 972 592 968 q 644 978 643 975 q 649 978 650 981 q 647 974 649 976 q 645 969 646 971 q 651 968 644 967 q 653 974 656 969 q 657 976 651 978 q 665 978 660 975 q 671 975 671 982 q 671 972 669 971 q 675 974 672 972 q 681 976 678 975 q 685 975 683 978 q 695 970 689 969 q 708 973 701 971 q 719 976 714 975 q 725 974 724 978 q 721 974 724 971 q 719 972 718 976 q 726 971 721 969 q 735 974 731 972 q 740 977 739 976 q 738 972 742 978 q 735 967 732 967 q 757 973 747 965 q 778 974 767 981 q 791 969 788 968 q 796 974 794 971 q 800 978 797 976 q 813 972 803 979 q 819 969 817 968 q 825 972 822 969 q 831 975 828 974 q 836 972 833 976 q 846 969 838 969 q 863 967 854 968 q 875 963 871 965 q 874 954 879 960 q 875 953 874 951 q 878 950 876 953 q 881 944 881 947 q 882 938 882 940 q 879 936 882 935 q 888 925 874 936 q 901 901 899 917 q 894 878 903 886 q 872 865 886 869 q 863 868 858 861 q 858 870 864 869 q 847 871 853 871 q 838 869 842 871 q 840 864 835 868 q 842 853 849 851 q 833 849 835 854 q 844 844 833 844 q 854 838 853 846 q 853 823 856 831 q 847 813 851 815 q 838 822 842 810 q 830 828 839 829 q 819 818 821 826 q 809 807 814 803 q 801 822 804 811 q 798 813 800 819 q 794 810 796 807 q 792 808 794 814 q 783 806 789 804 q 778 814 778 808 q 775 822 776 824 q 770 815 774 819 q 762 808 767 810 q 749 815 757 806 q 738 822 740 822 q 736 816 736 821 q 738 805 736 811 q 739 794 739 799 q 741 780 742 793 q 743 765 740 767 q 749 735 749 757 q 754 703 749 714 q 756 697 757 697 q 758 689 754 696 q 763 672 764 682 q 765 656 761 663 q 768 644 768 651 q 771 636 768 638 q 781 616 775 631 q 785 594 786 601 q 785 591 782 590 q 786 588 789 592 q 790 579 786 582 q 792 568 793 576 q 794 553 792 557 q 801 547 797 549 q 808 541 806 544 q 810 528 811 538 q 813 523 808 522 q 817 519 818 524 q 819 510 815 517 q 818 503 822 504 q 817 494 811 500 q 822 483 822 488 q 825 481 822 481 q 830 469 829 478 q 833 457 831 460 q 840 448 839 450 q 854 446 842 446 q 872 442 865 447 q 885 440 878 438 q 888 440 888 443 q 890 431 889 436 q 890 424 890 426 q 893 425 890 421 q 899 423 897 429 q 901 408 900 417 q 902 392 903 400 q 901 382 901 383 q 897 370 899 372 q 890 368 896 368 q 883 364 883 367 q 876 358 883 361 q 872 354 871 357 q 876 349 874 351 q 880 342 878 346 q 879 335 882 339 q 878 326 876 328 q 886 322 879 325 q 899 309 894 318 q 900 296 904 300 q 901 289 899 292 q 913 279 910 286 q 924 261 917 272 q 930 246 926 256 q 942 239 933 236 q 944 228 939 236 q 949 218 946 222 q 953 213 947 215 q 957 207 958 210 q 961 199 957 203 q 967 199 965 196 q 971 197 968 200 q 977 189 974 193 q 984 181 981 185 q 989 179 988 178 q 991 177 990 181 q 992 169 992 174 q 990 162 992 165 q 988 160 989 158 q 983 154 982 157 q 968 154 983 151 q 942 154 951 154 q 928 154 932 154 q 922 153 924 154 q 919 147 921 151 q 917 142 917 146 q 924 143 917 138 q 935 150 932 150 q 940 147 938 150 q 944 140 942 144 q 953 133 947 135 q 954 139 956 138 q 951 141 953 140 q 947 143 949 142 q 947 149 944 144 q 955 147 951 151 q 963 146 958 143 q 967 128 968 147 q 969 126 967 124 q 974 133 971 129 q 982 138 978 136 q 990 135 986 140 q 996 125 999 131 q 989 124 993 122 q 983 122 985 125 q 974 117 982 117 q 974 108 965 117 q 978 108 979 103 q 983 110 976 114 q 990 111 988 108 q 996 114 992 114 q 998 108 1000 110 q 993 105 996 107 q 990 100 990 103 q 993 92 989 97 q 996 92 996 83 m 989 129 q 983 130 989 131 q 979 126 976 129 q 985 126 981 125 q 989 129 989 126 m 979 178 q 972 178 976 183 q 975 175 967 174 q 979 178 981 175 m 924 188 q 919 192 922 192 q 917 190 917 193 q 922 183 917 186 q 924 188 926 181 m 893 408 q 891 406 889 411 q 896 406 893 400 l 893 408 m 817 874 q 806 874 808 878 q 806 866 804 871 q 811 859 807 861 q 818 864 815 857 q 821 869 818 868 q 817 874 824 871 m 778 872 q 775 870 772 875 q 781 869 778 865 q 779 871 779 869 l 778 872 m 42 139 q 40 135 39 139 q 42 127 40 131 q 44 124 43 124 q 44 131 46 124 q 42 139 44 139 m 54 114 q 56 112 50 113 q 60 114 63 111 l 54 114 m 57 153 q 60 153 58 156 q 63 149 61 151 q 66 147 64 147 q 71 154 68 147 q 71 172 76 164 q 61 168 65 179 q 56 162 58 161 q 54 156 54 163 q 57 153 54 147 m 78 144 q 75 149 79 153 q 74 142 71 144 q 78 144 78 135 m 90 197 q 87 202 88 203 q 86 198 86 201 q 88 192 86 194 q 90 189 89 189 l 90 197 m 110 51 q 115 49 110 49 q 117 51 119 49 q 112 55 114 54 q 110 51 110 56 m 100 210 q 107 204 104 203 q 118 215 110 206 q 124 229 128 224 q 124 242 121 235 q 122 243 124 242 q 115 238 119 243 q 107 228 111 233 q 100 217 103 222 q 100 210 97 211 m 125 40 q 128 47 129 46 q 124 45 126 47 q 120 40 122 43 q 119 35 118 36 l 125 40 m 189 306 q 189 308 192 297 q 184 318 188 315 q 178 326 181 321 q 174 322 176 332 q 168 314 171 313 q 167 305 165 311 q 165 300 168 299 q 156 294 161 301 q 151 285 151 288 q 142 276 146 283 q 138 263 139 269 q 139 254 136 257 q 150 260 142 251 q 153 265 153 263 q 156 267 154 268 q 160 276 158 268 q 165 285 163 285 q 174 289 169 285 q 172 290 176 294 q 168 288 168 286 q 169 292 168 289 q 173 297 171 294 q 175 299 175 299 q 182 303 178 296 q 189 306 186 311 m 199 340 q 199 346 203 342 q 192 349 194 350 q 189 347 189 349 q 191 342 189 344 q 199 340 193 339 m 274 222 q 272 225 275 225 q 269 222 269 225 q 274 222 269 215 m 296 261 q 300 264 297 261 q 295 264 301 268 q 296 261 289 260 m 339 311 q 339 317 342 311 q 336 319 336 328 q 339 311 336 311 m 554 828 q 551 825 549 831 q 557 825 554 819 l 554 828 m 478 626 q 474 628 478 633 q 475 624 471 624 q 478 626 478 624 m 440 542 q 438 547 440 546 q 435 545 436 547 q 433 540 433 543 q 436 538 432 538 q 440 542 440 538 m 438 532 q 433 533 435 536 q 432 526 432 531 q 434 523 432 515 q 438 532 436 531 m 626 478 q 633 481 632 481 l 636 481 q 647 483 644 479 q 643 500 650 486 q 638 521 638 511 q 633 538 638 531 q 627 563 625 549 q 619 585 629 576 q 615 589 615 588 q 617 592 615 590 q 619 596 618 593 q 615 603 619 599 q 600 660 603 632 q 589 722 597 689 q 585 740 589 736 q 582 764 582 744 q 581 789 582 781 q 576 801 579 797 q 567 806 572 804 q 556 813 563 808 q 546 815 547 819 q 540 813 543 811 q 535 808 536 815 q 530 805 533 800 q 531 814 526 810 q 526 819 533 819 q 519 812 519 818 q 522 800 518 806 q 522 794 525 796 q 522 788 518 793 q 519 778 525 781 q 510 763 510 772 q 507 746 510 753 q 504 735 504 746 q 499 721 506 726 q 494 708 493 715 q 497 706 496 706 q 500 709 499 707 q 503 713 501 711 q 508 713 506 714 q 512 706 514 708 q 505 703 510 704 q 496 699 500 701 q 493 693 492 697 q 496 692 493 689 q 497 685 499 693 q 492 672 494 676 q 489 670 492 672 q 484 665 486 668 q 481 660 482 661 q 483 661 481 658 q 491 664 493 669 q 493 657 489 658 q 488 649 499 657 q 481 641 481 644 q 483 634 481 638 q 486 627 485 631 q 483 621 488 624 q 483 615 481 619 q 481 608 485 611 q 478 600 476 606 q 476 590 479 596 q 469 582 472 585 q 464 591 467 586 q 456 589 461 596 q 457 586 450 585 q 469 581 467 586 q 468 570 471 576 q 460 559 465 564 q 450 554 454 554 q 449 555 450 556 q 449 553 449 554 q 453 544 451 549 q 451 532 454 539 q 449 519 453 525 q 439 515 446 513 q 436 514 433 517 q 433 511 439 511 q 431 504 428 510 q 428 496 433 499 q 430 485 418 492 q 449 481 442 479 q 456 480 454 481 q 458 478 458 479 q 458 476 458 476 q 461 475 458 475 q 472 474 467 476 q 483 476 476 471 q 498 474 488 475 q 526 481 508 474 q 544 482 538 483 q 543 474 550 481 q 545 472 536 467 q 558 479 554 476 q 570 484 567 483 q 575 483 574 485 q 578 479 576 482 q 582 474 579 476 q 587 474 582 474 q 597 475 592 475 q 607 476 603 475 q 610 479 611 476 q 613 479 607 482 q 626 478 618 474 m 651 478 q 648 480 654 483 q 646 475 642 476 q 651 478 649 475 m 740 729 q 738 725 733 726 q 744 728 742 724 q 740 729 744 731 m 682 969 q 686 969 688 965 q 681 972 683 972 q 682 969 674 972 m 690 796 q 688 786 689 794 q 689 771 688 778 q 694 762 690 764 q 704 771 697 760 q 705 775 701 774 q 700 782 708 776 q 694 790 694 785 q 690 796 693 794 m 733 575 q 731 572 728 578 q 736 572 733 567 l 733 575 m 736 596 q 739 601 746 600 q 735 610 732 603 q 732 611 736 617 q 725 606 729 606 q 722 601 721 607 q 725 592 725 594 q 736 596 725 589 m 722 625 q 728 624 724 626 q 736 620 732 622 q 743 618 740 618 q 746 624 746 618 q 738 630 746 631 q 729 635 731 629 q 725 638 728 638 q 721 641 721 635 q 723 654 721 647 q 728 665 725 661 q 735 661 732 668 q 741 657 736 658 q 743 658 746 656 q 739 667 739 660 q 731 670 736 676 q 719 665 726 664 q 711 668 713 664 q 711 677 710 672 q 715 685 713 682 q 718 689 717 689 q 722 694 722 689 q 718 696 722 700 q 710 692 715 693 q 711 697 706 690 q 712 703 713 699 q 710 713 711 708 q 710 722 710 718 q 714 724 710 725 q 711 733 717 724 q 708 742 706 742 q 703 747 710 744 q 693 751 696 750 q 697 721 693 743 q 706 676 701 699 q 715 638 710 654 q 722 625 719 622 m 744 524 q 752 515 746 521 q 757 513 758 508 l 751 518 q 747 522 749 521 q 744 524 746 522 m 758 258 q 764 257 761 256 q 764 261 767 258 q 759 263 763 264 q 758 258 756 261 m 776 532 q 771 531 774 533 q 769 525 768 528 q 775 526 772 522 q 776 532 778 531 m 774 246 q 772 241 767 246 q 778 243 776 236 q 774 246 778 246 m 774 463 q 776 452 769 456 q 779 456 782 449 q 781 463 776 461 q 786 471 786 465 q 785 472 792 479 q 781 469 783 468 q 775 470 778 469 q 770 472 772 471 q 768 468 768 472 q 772 465 768 461 q 774 463 776 469 m 790 458 q 787 458 789 460 q 783 454 785 457 q 783 450 782 451 q 788 451 783 449 q 790 458 794 454 m 792 249 q 793 253 797 247 q 786 251 789 258 q 783 244 783 249 q 786 246 783 242 q 792 249 789 250 m 808 142 q 809 139 806 139 q 813 142 813 139 q 811 144 813 144 q 808 142 810 144 m 814 210 q 817 208 811 208 q 821 210 822 207 l 814 210 m 831 153 q 839 158 839 154 q 834 163 838 163 q 828 160 831 163 q 825 155 825 157 q 831 153 825 153 m 844 297 q 842 295 839 300 q 847 294 844 290 q 844 297 847 297 m 886 97 q 884 92 883 94 q 887 90 885 90 q 891 90 889 89 q 892 94 893 90 q 886 97 890 99 m 964 118 q 963 113 958 118 q 967 115 967 108 q 964 118 967 118 m 907 183 q 908 178 903 182 q 913 181 914 174 q 907 183 910 183 m 921 46 q 925 50 925 46 q 919 51 925 56 q 921 46 914 47 m 921 57 q 925 63 932 57 q 917 65 922 69 q 908 57 911 60 l 921 57 m 947 53 q 944 57 949 54 q 940 52 938 58 q 947 53 943 46 m 971 53 q 966 56 968 56 q 964 53 964 56 q 967 50 963 50 q 971 53 972 50 m 985 94 q 984 98 986 99 q 979 95 982 97 q 974 92 976 93 q 969 97 971 92 q 963 101 967 101 q 956 101 960 101 q 949 103 951 101 q 947 111 946 104 q 942 118 947 118 q 938 114 936 117 q 932 113 940 111 q 923 115 922 110 q 921 119 924 121 q 924 109 918 113 q 932 101 929 106 q 946 97 933 97 q 957 94 957 97 q 974 88 961 88 q 985 94 986 89 m 876 831 q 878 838 876 833 q 883 842 881 843 q 881 834 885 840 q 876 831 878 828 m 869 835 q 874 839 869 839 q 876 835 879 842 q 869 835 872 829 m 833 469 q 836 472 833 472 q 842 472 839 472 q 845 469 844 471 q 840 467 846 468 q 833 469 836 467 m 796 563 q 799 567 793 568 q 803 561 804 567 q 801 558 803 558 q 796 563 799 558 m 513 729 q 511 736 510 733 q 515 733 513 739 q 518 722 519 726 q 513 729 517 718 z "},"B":{"ha":979,"x_min":29,"x_max":951,"o":"m 33 857 q 37 851 36 857 q 38 840 38 846 q 35 830 38 833 q 31 829 33 826 q 30 835 31 829 q 29 846 29 840 q 30 856 29 851 q 33 857 31 860 m 788 642 q 785 638 779 638 q 790 633 793 638 q 779 625 786 629 q 766 619 772 621 q 763 624 760 618 q 767 628 764 628 q 768 635 769 628 q 769 643 767 643 q 773 646 769 643 q 780 651 776 649 q 786 655 783 654 q 788 651 789 656 q 790 646 786 646 q 788 642 794 646 m 942 340 q 935 340 938 342 q 936 332 932 338 q 941 328 940 328 q 939 333 942 328 q 939 338 938 339 q 942 335 940 338 q 946 328 944 332 q 947 322 947 324 q 947 315 947 315 q 944 315 946 314 q 942 318 943 317 q 940 315 940 319 l 940 303 q 940 298 939 300 q 942 297 940 296 q 942 289 944 297 q 936 270 940 281 q 929 249 932 260 q 928 236 926 239 q 925 224 929 231 q 917 213 921 218 q 910 203 913 208 q 913 194 908 199 q 913 190 914 194 q 908 181 911 186 q 903 171 906 175 q 903 167 901 167 q 890 157 899 164 q 885 143 882 150 q 872 126 882 140 q 860 111 863 113 q 838 92 851 103 q 808 72 824 82 q 779 52 793 61 q 757 38 765 43 q 743 31 754 33 q 728 25 732 29 q 724 25 724 21 q 719 19 722 28 q 713 14 715 11 q 705 10 707 13 q 696 10 703 8 q 677 2 682 8 q 654 -3 672 -4 q 640 -6 640 -3 q 626 -10 638 -7 q 601 -17 614 -14 q 577 -22 588 -21 q 567 -18 567 -22 q 565 -15 567 -14 q 562 -19 564 -17 q 558 -23 560 -22 q 558 -18 557 -24 q 556 -16 558 -11 q 551 -18 554 -21 q 549 -19 551 -14 q 532 -23 544 -24 q 521 -18 519 -22 q 518 -13 524 -14 q 508 -17 513 -12 q 500 -23 506 -22 q 475 -24 494 -24 q 426 -20 444 -22 q 378 -17 407 -18 q 348 -12 364 -14 q 322 -10 332 -11 q 310 -6 311 -8 q 321 6 308 -3 q 312 6 318 6 q 306 10 306 7 q 297 11 303 15 q 303 4 292 7 q 303 -3 313 0 q 293 -10 294 -6 q 292 -22 293 -11 q 292 -49 292 -33 q 289 -76 289 -65 q 288 -97 289 -87 q 283 -116 286 -107 q 271 -136 279 -125 q 268 -139 267 -139 q 272 -138 269 -139 q 275 -137 274 -137 q 274 -139 276 -137 q 268 -142 272 -142 q 260 -142 264 -142 q 255 -144 257 -143 q 257 -150 253 -146 q 260 -156 261 -153 q 254 -162 258 -160 q 245 -165 250 -164 q 238 -161 240 -165 q 228 -156 228 -154 q 228 -163 228 -158 q 227 -171 229 -168 q 211 -169 225 -174 q 197 -163 206 -172 q 186 -157 189 -154 q 182 -160 186 -161 q 176 -164 178 -160 q 172 -164 174 -167 q 165 -160 167 -161 q 160 -156 163 -158 q 151 -149 157 -154 q 133 -132 146 -144 q 126 -122 125 -125 q 131 -119 128 -119 q 137 -117 135 -118 q 131 -110 139 -115 q 124 -102 125 -108 q 131 -96 124 -96 q 132 -94 133 -96 q 127 -87 126 -92 q 130 -79 128 -83 q 133 -72 132 -75 q 132 -67 135 -69 q 129 -60 129 -67 q 132 -56 129 -54 q 132 -31 132 -40 q 132 -12 132 -21 q 132 8 132 -3 q 133 36 132 18 q 134 48 132 44 q 138 53 136 51 q 142 56 140 54 q 139 64 143 57 q 136 72 138 65 q 135 85 135 78 q 135 98 135 92 q 138 107 136 104 q 138 114 140 113 q 134 121 135 115 q 136 126 133 126 q 140 144 140 128 q 138 180 139 161 q 135 213 136 199 q 139 224 135 226 q 140 230 146 226 q 138 239 135 233 q 140 244 138 243 q 142 245 142 244 q 143 248 143 246 q 139 257 143 250 q 140 263 136 260 q 140 285 143 267 q 142 314 142 307 q 142 338 142 321 q 144 347 144 339 q 142 358 144 356 q 142 371 139 361 q 144 383 146 381 q 142 393 143 383 q 142 414 142 403 q 142 433 142 425 q 146 442 143 442 q 146 446 150 443 q 144 493 142 463 q 146 543 147 524 q 144 568 144 564 q 147 581 144 572 q 152 589 147 590 q 151 596 157 588 q 147 617 147 603 q 149 648 147 632 q 151 678 150 664 q 151 701 153 693 q 151 741 147 726 q 153 763 154 756 q 141 772 153 769 q 93 776 129 775 q 77 784 85 778 q 71 794 69 790 q 63 797 74 801 q 53 799 53 793 q 57 810 54 804 q 58 817 60 815 q 43 810 57 819 q 35 813 38 806 q 35 821 32 817 q 41 828 38 825 q 48 835 44 832 q 50 844 51 839 q 54 858 47 856 q 57 868 61 860 q 53 872 54 872 q 46 868 53 872 q 34 868 39 861 q 32 882 29 875 q 38 886 32 886 q 50 886 43 886 q 63 887 57 886 q 69 890 69 888 q 67 897 71 899 q 59 893 64 896 q 50 889 54 890 q 49 896 46 888 q 44 903 50 903 q 42 899 40 903 q 42 894 44 894 q 40 906 36 900 q 51 917 44 911 q 66 928 58 922 q 76 938 74 933 q 93 947 89 947 q 126 947 101 946 q 176 949 150 947 q 222 950 201 950 q 247 949 243 950 q 341 951 289 950 q 449 955 393 953 q 560 958 506 957 q 663 960 615 960 q 685 960 678 958 q 698 962 693 961 q 708 963 703 963 q 724 958 714 963 q 735 958 728 956 q 750 954 743 960 q 757 951 753 951 q 764 950 761 950 q 779 942 771 947 q 792 932 788 938 q 792 921 796 926 q 789 910 786 918 q 797 906 792 903 q 808 906 800 908 q 821 900 815 904 q 824 891 824 897 q 822 885 825 885 q 819 880 819 885 q 822 871 819 875 q 825 862 824 871 q 826 842 826 853 q 827 824 826 832 q 831 815 828 815 q 833 813 836 813 q 835 806 829 813 q 838 794 843 790 q 828 806 832 799 q 828 792 828 799 q 822 782 828 786 q 820 772 815 778 q 828 764 825 767 q 823 765 826 763 q 815 768 819 767 q 808 770 811 769 q 807 767 806 771 q 811 757 808 758 q 813 744 814 756 q 814 731 808 732 q 814 728 817 728 q 808 719 808 725 q 797 715 808 713 q 797 713 797 715 q 804 711 800 710 q 810 708 810 711 q 807 702 810 706 q 799 696 804 699 q 792 694 794 693 q 790 681 789 689 q 785 676 792 674 q 778 674 778 679 q 775 671 779 669 q 775 667 771 672 q 775 663 781 660 q 771 663 769 665 q 768 652 772 660 q 761 644 764 644 q 756 630 758 640 q 753 613 753 619 q 755 610 751 606 q 763 614 758 615 q 768 609 774 613 q 767 600 763 606 q 768 592 769 597 q 763 588 767 588 q 760 581 760 585 q 753 575 760 578 q 746 571 747 574 q 744 565 744 568 q 744 559 744 563 q 739 554 743 556 q 721 528 733 544 q 694 501 708 513 q 738 500 703 501 q 808 496 772 499 q 867 490 843 493 q 879 481 890 486 q 865 476 871 476 q 860 468 858 476 q 868 469 861 460 q 874 472 875 476 q 878 469 874 467 q 879 467 882 472 q 881 464 876 461 q 883 460 888 465 q 878 453 878 456 q 884 456 879 450 q 885 464 889 461 q 887 470 881 469 q 899 465 893 471 q 905 461 906 458 q 904 467 904 464 q 908 469 904 469 q 928 454 913 468 q 919 445 924 451 q 911 446 914 439 q 907 450 907 450 q 910 444 907 450 q 915 439 910 439 q 915 436 919 439 q 908 434 910 432 q 905 440 906 436 q 903 447 904 443 q 897 450 901 450 q 892 443 890 451 q 897 433 894 435 q 904 428 900 432 q 917 429 907 424 q 928 431 926 436 q 933 429 929 426 q 939 431 936 432 q 944 433 942 429 q 951 433 950 436 q 950 426 951 431 q 944 420 949 422 q 935 422 940 418 q 933 419 931 425 q 940 392 939 400 q 938 371 940 383 q 936 353 936 357 q 942 361 936 350 q 947 362 946 365 q 948 353 949 358 q 945 344 947 349 q 942 340 943 339 m 754 601 q 747 599 751 604 q 743 590 743 593 q 750 595 744 588 q 754 601 756 603 m 733 571 q 729 578 733 579 q 720 572 725 576 q 714 563 715 568 q 719 558 713 558 q 728 564 726 563 q 732 566 729 568 q 733 571 735 564 m 714 556 q 703 550 706 557 q 710 550 701 543 q 714 551 711 551 q 717 552 717 549 q 714 556 717 556 m 67 839 q 65 847 68 846 q 60 845 63 847 q 56 839 57 843 q 58 832 54 835 q 65 831 64 829 q 67 839 67 832 m 121 856 q 115 856 131 863 q 107 846 108 853 q 110 839 106 839 q 111 843 113 839 q 113 847 110 849 q 117 849 117 844 q 121 856 117 854 m 188 -133 q 190 -117 185 -121 q 198 -112 194 -112 q 201 -110 201 -111 q 190 -103 201 -110 q 186 -100 188 -97 q 184 -109 185 -103 q 183 -123 183 -115 q 182 -132 182 -131 q 183 -142 178 -143 q 188 -133 189 -140 m 214 -146 q 217 -149 215 -149 q 218 -146 218 -149 q 215 -143 218 -143 q 214 -146 211 -143 m 224 -96 q 231 -99 226 -99 q 229 -96 235 -100 q 222 -93 226 -94 q 224 -96 218 -92 m 211 -75 q 217 -81 213 -78 q 227 -87 222 -85 q 234 -90 232 -90 q 233 -86 236 -90 q 232 -79 229 -85 q 233 -76 235 -78 q 226 -75 231 -75 q 217 -75 222 -75 q 211 -75 213 -75 m 251 -125 q 249 -122 253 -122 q 242 -125 246 -122 q 242 -128 235 -129 q 251 -125 250 -128 m 256 -101 q 253 -98 257 -99 q 246 -97 250 -97 q 239 -98 242 -97 q 240 -100 236 -99 q 242 -106 243 -104 q 248 -106 240 -108 q 256 -101 256 -104 m 832 442 q 828 444 831 444 q 825 442 825 444 q 830 439 825 439 q 832 442 835 439 m 825 428 q 823 431 828 433 q 821 426 818 429 q 825 428 824 422 m 806 388 q 803 391 803 392 q 803 388 803 390 q 804 383 803 386 q 807 382 806 381 l 807 383 q 806 385 807 385 q 806 388 806 386 m 796 393 q 793 391 790 396 q 799 390 796 386 q 796 393 799 393 m 790 422 q 787 424 790 425 q 781 422 783 424 q 777 418 778 419 q 783 417 776 417 q 790 422 790 419 m 765 422 q 764 420 758 424 q 769 419 769 417 q 765 422 769 419 m 767 396 q 760 396 757 401 q 768 392 764 390 q 767 396 771 392 m 763 382 q 767 377 764 378 q 768 382 771 376 q 764 386 767 386 q 763 382 761 386 m 735 389 q 732 392 735 392 q 729 389 729 392 q 732 386 729 386 q 735 389 735 386 m 722 400 q 724 395 718 399 q 728 397 731 392 q 722 400 725 400 m 690 397 q 686 399 686 401 q 700 390 689 393 q 714 394 711 388 q 702 396 713 397 q 690 397 692 394 m 686 424 q 682 426 688 426 q 678 424 676 426 q 686 424 683 418 m 682 517 q 680 519 682 521 q 676 516 678 518 q 674 512 674 514 q 678 511 674 510 q 682 517 682 511 m 661 424 q 664 422 658 422 q 667 424 669 421 l 661 424 m 549 906 q 542 908 544 908 q 542 906 539 908 q 549 903 542 903 q 549 906 556 903 m 532 910 q 529 908 526 913 q 535 907 532 903 q 532 910 535 910 m 460 910 q 457 906 453 907 q 464 908 461 906 q 460 910 464 911 m 283 285 q 288 286 288 282 q 281 286 285 288 q 283 285 276 285 m 290 560 q 300 563 293 557 q 306 565 306 565 q 307 561 307 565 q 301 554 307 556 q 303 550 296 553 q 305 538 307 547 q 301 522 303 529 q 300 513 299 515 q 314 519 301 510 q 336 532 326 526 q 363 538 346 538 q 397 540 375 538 q 428 546 419 543 q 509 578 475 561 q 579 635 543 596 q 602 659 590 647 q 621 685 614 671 q 626 700 618 689 q 633 714 633 711 q 637 722 633 718 q 640 728 640 725 q 651 750 643 739 q 660 769 658 761 q 664 785 663 782 q 640 788 665 788 q 498 785 572 786 q 361 779 424 783 q 326 778 333 779 q 315 768 319 776 q 314 760 313 769 q 313 751 315 751 q 306 739 310 746 q 294 726 301 732 q 306 734 300 731 q 315 729 311 738 q 317 722 318 724 q 310 718 317 721 q 306 714 303 714 q 310 713 308 715 q 310 694 311 710 q 306 669 310 683 q 310 654 303 656 q 311 651 314 656 q 309 643 307 647 q 308 636 311 639 q 308 627 304 632 q 307 617 311 622 q 301 599 303 610 q 303 588 300 588 q 306 581 308 589 q 296 569 303 572 q 290 566 290 567 q 292 566 290 565 q 297 567 294 567 q 297 565 299 567 q 292 561 297 561 q 288 560 289 561 q 290 560 288 560 m 619 399 q 625 397 619 397 q 638 396 631 396 q 651 397 646 396 q 653 400 656 397 q 646 402 650 404 q 638 403 642 400 q 629 401 631 406 q 624 399 629 397 q 619 399 618 401 m 607 397 q 613 401 614 400 q 600 403 611 403 q 588 401 590 403 q 589 398 586 400 q 597 395 592 396 q 607 397 601 394 m 558 400 q 558 399 556 399 q 563 399 560 399 q 567 399 565 399 q 567 400 568 400 l 558 400 m 668 143 q 671 140 668 140 q 674 143 674 140 q 671 146 674 146 q 668 143 668 146 m 688 150 q 690 154 690 150 q 686 156 689 161 q 688 150 683 150 m 696 144 q 699 153 699 147 q 695 153 697 156 q 692 148 693 151 q 691 142 690 144 q 696 144 692 140 m 724 169 q 728 167 724 167 q 732 169 732 167 q 728 172 732 172 q 724 169 724 172 m 738 185 q 746 186 740 183 q 744 194 751 189 q 733 186 738 206 q 733 181 731 176 q 738 185 735 185 m 804 321 q 813 333 813 326 q 818 344 813 340 q 822 352 824 350 q 813 353 819 354 q 797 351 806 353 q 782 350 788 350 q 743 351 772 351 q 680 351 714 351 q 615 351 646 351 q 572 353 585 351 q 485 361 526 358 q 399 367 443 364 q 351 373 363 368 q 361 394 340 378 q 363 397 365 396 q 356 397 361 397 q 347 394 351 396 q 342 393 342 393 q 331 390 339 390 q 322 392 322 389 q 317 393 322 394 q 303 390 306 394 q 297 375 301 385 q 294 366 294 371 q 294 358 293 361 q 297 356 296 356 q 299 364 299 357 q 300 365 297 368 q 304 319 304 350 q 303 253 304 288 q 300 190 301 219 q 299 151 299 161 q 306 146 297 143 q 308 144 314 149 q 315 143 303 142 q 324 143 324 144 q 323 140 325 142 q 319 135 321 138 q 325 136 318 133 q 337 138 329 138 q 351 138 344 139 q 363 135 358 138 q 368 132 368 133 q 378 131 368 125 q 404 135 386 135 q 415 133 413 135 q 419 131 418 132 q 420 129 419 129 q 426 132 421 129 q 437 135 426 133 q 460 137 447 136 q 482 137 472 138 q 489 133 492 136 q 565 149 519 140 q 644 171 610 157 q 703 206 672 186 q 754 253 735 226 q 758 256 754 253 q 761 257 764 256 q 765 264 758 258 q 781 275 771 269 q 782 278 783 278 q 777 283 775 278 q 784 297 779 289 q 795 311 789 304 q 804 321 801 318 m 826 272 q 833 276 825 275 q 832 279 840 276 q 826 279 829 282 q 819 272 822 276 q 817 266 817 268 q 822 267 817 264 q 826 272 826 271 m 840 297 q 832 300 843 304 q 828 291 829 297 q 833 290 826 285 q 840 297 840 297 m 856 439 q 859 441 853 442 q 860 444 865 440 q 854 442 857 450 q 856 436 851 435 l 856 439 m 874 444 q 869 444 872 450 q 871 440 865 438 q 874 444 874 443 m 867 426 q 870 424 865 419 q 881 426 875 429 q 886 428 886 424 q 889 432 886 432 q 886 442 893 435 q 878 439 879 450 q 872 433 878 433 q 867 426 867 432 m 904 415 q 903 420 907 417 q 897 421 899 424 q 892 421 894 415 q 889 422 889 426 q 883 417 888 417 q 876 414 879 417 q 872 410 869 411 q 881 410 875 408 q 897 413 886 410 q 899 414 897 414 q 904 415 901 414 m 728 571 q 724 566 728 568 q 721 567 721 564 q 725 574 719 569 q 728 571 731 579 m 932 449 q 933 450 935 447 q 927 456 931 453 q 922 463 924 460 q 925 464 921 465 q 933 458 928 465 q 939 457 938 451 q 940 454 940 458 q 942 447 936 447 q 950 443 949 447 q 935 440 950 440 q 921 442 921 439 q 925 447 921 444 q 932 449 929 450 m 328 378 q 332 381 328 381 q 340 379 336 381 q 344 376 343 378 q 338 374 344 374 q 328 378 328 374 m 908 482 q 905 480 911 479 q 903 482 899 481 l 908 482 z "},"C":{"ha":1017,"x_min":22,"x_max":988,"o":"m 257 957 q 253 955 257 954 q 249 958 249 956 q 253 960 249 961 q 257 957 257 958 m 246 960 q 242 958 244 957 q 240 961 239 958 q 243 963 240 964 q 246 960 246 961 m 289 965 q 285 963 290 963 q 282 965 279 964 q 289 965 286 968 m 275 954 q 268 960 274 954 q 267 963 264 964 q 272 960 269 963 q 277 956 275 958 q 275 954 279 954 m 294 961 q 296 964 300 964 q 292 967 292 964 q 296 967 292 971 q 300 965 300 964 q 309 969 300 968 q 318 967 318 969 q 309 964 318 964 q 299 961 300 964 q 294 958 299 958 q 294 961 290 958 m 929 879 q 924 880 928 878 q 916 884 919 882 q 911 888 913 886 q 913 885 910 889 q 915 874 917 881 q 918 865 914 868 q 921 865 926 857 q 926 861 919 868 q 931 854 929 858 q 933 847 932 850 q 937 843 935 843 q 944 849 939 843 q 959 853 949 858 q 978 850 969 847 q 986 847 986 853 q 982 834 986 842 q 973 819 978 826 q 965 813 968 813 q 955 803 958 810 q 944 794 951 796 q 930 794 933 793 q 925 796 926 794 q 917 793 924 799 q 911 785 911 788 q 900 782 911 782 q 881 776 889 779 q 857 779 872 772 q 853 778 853 781 q 840 776 853 775 q 817 783 828 776 q 803 787 807 788 q 792 789 799 786 q 785 788 786 793 q 774 783 789 783 q 737 783 758 782 q 694 785 715 785 q 663 786 672 786 q 633 786 643 786 q 618 787 624 786 q 608 788 613 788 q 596 790 604 789 q 578 788 582 788 q 569 790 574 788 q 538 794 560 794 q 506 792 517 793 q 492 794 500 788 q 479 793 485 800 q 471 792 472 790 q 435 793 457 793 q 391 792 414 793 q 347 792 368 792 q 311 794 325 792 q 305 793 300 797 q 307 786 310 789 q 305 783 307 786 q 302 778 303 781 q 301 772 301 775 q 304 771 301 769 q 306 765 307 774 q 307 756 304 756 q 307 751 308 753 q 302 737 303 749 q 299 722 301 725 q 300 721 294 718 q 304 700 303 722 q 299 676 306 681 q 296 661 293 671 q 303 658 300 656 q 303 651 306 660 q 303 610 300 633 q 308 568 307 588 q 312 538 310 550 q 317 516 314 526 q 322 496 319 506 q 324 474 324 486 q 328 446 322 454 q 339 422 335 438 q 342 400 339 413 q 357 376 346 388 q 364 365 364 369 q 368 356 364 360 q 381 328 376 346 q 396 301 386 311 q 410 288 401 299 q 421 272 418 278 q 427 262 426 267 q 439 253 428 257 q 453 239 450 247 q 468 226 457 231 q 476 220 476 224 q 482 214 476 217 q 490 208 486 214 q 543 176 514 189 q 603 153 572 164 q 736 125 671 126 q 883 138 801 124 q 892 136 892 139 q 894 130 893 133 q 898 124 894 126 q 913 122 901 121 q 929 114 926 122 q 931 97 932 106 q 930 82 929 89 q 942 78 931 75 q 953 76 947 82 q 953 72 958 69 q 947 68 949 74 q 953 63 944 63 q 963 61 963 64 q 956 49 963 57 q 942 33 950 42 q 925 17 933 25 q 913 6 917 10 q 905 -3 911 0 q 890 -8 899 -7 q 874 -11 882 -10 q 861 -14 865 -12 q 846 -11 851 -17 q 833 -12 840 -6 q 822 -17 832 -15 q 800 -19 811 -18 q 779 -20 789 -19 q 769 -22 769 -21 q 751 -17 764 -19 q 722 -13 738 -15 q 688 -8 706 -11 q 654 -1 669 -6 q 616 8 631 4 q 589 17 601 13 q 564 27 576 22 q 532 39 551 32 q 524 43 524 39 q 516 46 517 49 q 516 40 515 43 q 517 35 517 36 q 511 42 517 33 q 508 48 508 47 q 508 43 507 49 q 508 38 511 36 q 503 46 506 39 q 495 54 499 54 q 494 44 492 54 l 496 36 q 489 47 493 39 q 488 58 485 56 q 486 61 492 58 q 482 63 483 64 q 474 67 481 61 q 453 78 464 69 q 439 96 442 88 q 433 99 439 99 q 425 101 426 97 q 418 103 424 104 q 406 112 413 104 q 401 124 400 119 q 397 127 403 128 q 393 132 390 126 q 389 135 396 139 q 381 136 382 132 q 382 139 379 139 q 383 144 385 139 q 374 147 381 156 q 368 135 367 139 q 385 122 382 128 q 396 110 388 115 q 408 101 400 110 q 419 94 415 93 q 426 89 424 96 q 435 80 429 82 q 444 71 442 78 q 451 67 453 53 q 451 71 450 71 q 457 64 451 71 q 466 49 465 54 q 479 40 467 43 q 465 66 463 60 q 488 43 467 72 q 502 31 492 36 q 524 22 513 26 q 547 13 536 18 q 565 4 558 8 q 573 1 572 1 q 574 4 574 1 q 581 5 571 10 q 593 -6 590 0 q 601 -13 596 -10 q 622 -19 607 -17 q 627 -19 628 -21 q 625 -17 626 -18 q 624 -15 624 -15 q 636 -19 625 -15 q 660 -26 647 -26 q 676 -35 674 -25 q 673 -35 671 -32 q 675 -40 675 -39 q 667 -39 671 -40 q 660 -36 665 -39 q 649 -31 654 -33 q 642 -27 644 -28 q 643 -32 639 -26 q 644 -35 647 -37 q 635 -30 640 -33 q 624 -24 629 -26 q 622 -26 619 -22 q 618 -28 624 -29 q 588 -20 603 -24 q 556 -8 572 -17 q 538 -3 544 -3 q 518 4 531 -3 q 504 10 508 11 q 493 13 500 8 q 362 92 425 39 q 260 207 299 144 q 196 325 219 260 q 160 461 172 390 q 165 466 160 465 q 163 472 171 467 q 158 485 150 482 q 157 496 161 486 q 155 508 154 504 q 154 519 156 513 q 151 532 151 525 q 153 542 150 539 q 155 547 154 542 q 153 550 156 551 q 147 553 151 549 q 147 557 143 557 q 150 572 150 560 q 147 586 150 585 q 146 589 144 586 q 149 594 147 592 q 152 597 151 596 q 149 596 153 597 q 146 597 142 593 q 146 624 151 608 q 149 639 143 628 q 150 652 153 647 q 149 665 147 657 q 146 676 149 675 q 149 686 143 678 q 150 707 157 694 q 147 717 147 710 q 144 728 147 725 q 143 735 139 731 q 146 733 147 739 q 147 729 140 726 q 151 737 151 732 q 154 746 151 742 q 154 751 156 750 q 151 751 153 751 q 147 750 149 750 q 147 753 146 750 q 144 767 150 760 q 146 779 139 774 q 149 783 150 783 q 146 781 149 783 q 140 777 143 779 q 138 774 138 775 q 133 767 138 768 q 123 767 129 765 q 110 771 117 768 q 101 775 104 774 q 88 778 94 779 q 79 777 83 775 q 70 784 75 779 q 62 794 65 789 q 57 801 58 799 q 50 806 54 807 q 44 811 46 806 q 31 831 39 819 q 33 854 22 843 q 38 869 39 858 q 40 886 38 879 q 63 895 44 896 q 93 897 82 894 q 89 917 90 908 q 106 924 88 925 q 117 926 117 926 q 123 928 117 928 q 137 927 129 928 q 151 926 144 926 q 161 926 158 926 q 183 928 161 928 q 230 928 204 928 q 277 928 256 928 q 299 926 299 928 q 304 924 301 924 q 304 926 307 924 q 306 927 304 928 q 312 925 308 926 q 317 923 315 924 q 319 925 319 922 q 329 928 321 928 q 348 926 338 928 q 367 924 358 925 q 378 922 376 922 q 384 924 379 924 q 394 924 389 924 q 403 924 400 924 q 407 926 407 924 q 407 928 406 929 q 411 926 408 928 q 415 924 414 925 q 415 928 417 924 q 418 931 413 933 q 421 926 424 929 q 424 925 419 925 q 428 924 428 926 q 438 922 428 921 q 450 926 447 922 q 453 928 451 929 q 458 925 456 926 q 460 924 460 924 q 461 928 461 924 q 461 931 458 932 q 467 928 464 931 q 472 922 469 925 q 475 919 475 919 q 480 919 479 913 q 483 925 481 926 q 486 928 490 921 q 474 947 482 936 q 464 961 465 958 q 467 964 463 964 q 495 965 474 964 q 540 965 517 965 q 584 964 564 965 q 611 961 604 963 q 617 958 611 958 q 625 961 622 958 q 665 961 636 963 q 724 958 693 960 q 784 953 756 956 q 825 950 813 951 q 832 940 829 949 q 839 939 835 931 q 847 943 842 943 q 853 946 851 943 q 857 949 853 949 q 861 947 861 949 q 872 947 864 943 q 885 944 881 950 q 890 942 889 940 q 890 946 890 943 q 891 951 890 949 q 896 949 892 953 q 899 947 899 946 q 898 949 899 947 q 897 951 897 950 q 900 949 897 951 q 904 946 904 942 q 911 946 904 950 q 924 941 917 942 q 931 943 931 940 q 942 941 935 946 q 956 928 949 936 q 969 910 963 919 q 979 896 976 900 q 988 882 988 886 q 984 876 988 878 q 976 872 981 874 q 968 865 971 871 q 961 858 965 857 q 951 863 957 858 q 940 872 946 867 q 929 879 935 878 m 160 769 q 162 778 167 772 q 156 782 157 785 q 151 774 156 778 q 149 764 144 767 q 160 769 154 761 m 943 68 q 936 69 942 69 q 931 67 931 69 q 937 65 931 64 q 943 68 943 67 m 929 58 q 926 60 925 68 q 929 51 926 53 l 929 58 m 422 110 q 418 113 422 113 q 414 110 414 113 q 418 107 414 107 q 422 110 422 107 m 324 904 q 321 902 318 907 q 326 901 324 897 l 324 904 m 401 897 q 387 901 400 901 q 371 900 374 901 q 374 898 369 899 q 383 897 378 897 q 394 895 389 896 q 399 894 399 894 l 401 897 m 414 899 q 415 897 410 897 q 419 899 421 896 q 414 899 417 901 m 433 897 q 436 899 438 899 q 431 900 435 900 q 425 899 428 900 q 422 897 422 899 q 433 897 422 893 m 451 894 q 460 897 460 894 q 457 899 461 900 q 449 898 453 899 q 444 896 444 897 q 451 894 443 894 m 510 919 q 505 929 503 928 q 511 931 507 931 q 519 935 515 932 q 522 946 524 938 q 518 944 521 950 q 515 940 518 942 q 509 937 513 938 q 503 937 506 936 q 503 940 501 938 q 499 947 503 943 q 488 947 496 954 q 489 940 481 940 q 493 943 496 938 q 497 943 492 947 q 501 934 503 936 q 496 932 499 932 q 492 931 493 932 q 497 924 490 929 q 510 915 504 917 q 510 919 515 913 m 525 890 q 524 892 528 894 q 521 888 521 890 q 522 885 521 885 q 525 890 524 886 m 529 926 q 530 929 526 929 q 533 932 533 929 q 527 930 532 938 q 529 922 522 922 q 529 926 529 922 m 547 929 q 553 932 547 932 q 560 928 560 932 q 557 935 567 929 q 540 938 547 942 q 539 932 532 938 q 547 929 546 926 m 553 885 q 556 888 556 885 q 553 890 557 894 q 553 885 549 886 m 554 911 q 563 914 557 910 q 567 921 568 918 q 560 919 565 924 q 557 919 554 915 q 554 922 558 922 q 551 917 551 922 q 554 911 550 913 m 568 933 q 567 943 571 939 q 563 945 567 944 q 556 946 560 946 q 552 945 553 946 q 556 944 551 944 q 560 942 558 946 q 563 935 561 939 q 565 931 564 932 q 568 933 567 929 m 574 921 q 580 930 575 924 q 582 938 585 936 q 577 933 579 940 q 574 921 575 925 m 592 933 q 590 937 594 942 q 590 929 586 932 l 590 931 q 592 933 590 931 m 613 917 q 616 928 617 925 q 610 925 615 931 q 603 925 604 918 q 599 926 600 929 q 600 921 596 922 q 603 913 604 919 q 613 917 603 894 m 632 921 q 631 929 633 929 q 628 925 628 929 q 628 917 628 921 q 631 914 629 914 q 632 921 632 914 m 679 915 q 684 912 678 913 q 690 913 690 911 q 685 916 690 915 q 679 915 681 917 m 717 901 q 722 900 722 896 q 716 904 722 901 q 717 901 710 907 m 729 919 q 735 915 735 915 q 733 918 736 915 q 726 922 729 922 q 729 919 724 922 m 869 840 q 878 835 875 835 q 881 839 882 835 q 871 849 881 850 q 854 853 861 849 q 849 854 850 856 q 858 847 849 849 q 869 840 867 846 m 946 824 q 945 819 942 824 q 949 821 949 815 q 946 824 949 824 m 344 954 q 336 956 340 953 q 329 962 332 958 q 327 966 326 965 q 335 961 328 967 q 342 955 338 957 q 340 960 346 953 q 336 965 333 963 q 354 967 335 965 q 397 969 374 968 q 438 968 419 969 q 454 960 457 967 q 445 956 451 954 q 435 958 439 957 q 441 944 436 953 q 435 947 446 936 q 427 953 435 951 q 409 955 419 954 q 388 956 399 956 q 372 958 378 956 q 359 958 367 961 q 344 954 351 954 m 371 935 q 374 936 371 938 q 376 933 376 935 q 372 931 375 931 q 371 935 369 932 m 450 943 q 456 951 454 944 q 465 954 458 957 q 465 938 469 944 q 450 939 461 932 q 450 943 446 943 m 428 931 q 425 938 425 933 q 428 943 425 943 q 431 935 431 944 q 428 931 432 925 m 408 938 q 411 940 408 940 q 415 938 414 940 q 413 935 418 935 q 408 938 408 935 m 857 954 q 854 952 860 951 q 851 954 849 953 l 857 954 m 647 -14 q 647 -10 644 -11 q 650 -12 649 -8 q 651 -17 653 -17 q 647 -14 650 -18 m 918 -15 q 920 -19 924 -15 q 915 -18 917 -24 q 918 -15 913 -15 m 896 -19 q 902 -18 903 -12 q 896 -24 901 -24 q 896 -19 893 -24 m 861 -19 q 864 -18 864 -18 q 861 -22 864 -18 q 856 -25 856 -28 l 861 -19 m 688 -18 q 694 -19 692 -21 q 701 -22 697 -18 q 702 -26 706 -26 q 699 -24 699 -26 q 693 -24 697 -18 q 686 -25 689 -31 q 682 -17 683 -22 q 688 -18 681 -12 m 714 -36 q 717 -33 713 -33 q 721 -36 722 -33 q 714 -36 717 -39 z "},"D":{"ha":1057,"x_min":28,"x_max":1029,"o":"m 294 10 q 301 10 297 13 q 297 8 306 8 q 294 10 289 8 m 178 686 q 178 681 182 685 q 175 683 175 676 q 178 686 175 686 m 1010 838 q 1026 778 1022 813 q 1027 707 1029 743 q 1018 636 1025 671 q 1003 576 1011 601 q 904 351 974 457 q 739 172 835 244 q 715 153 724 168 q 696 139 706 139 q 688 133 688 140 q 685 128 688 129 q 680 128 683 128 q 674 129 676 129 q 672 125 672 129 q 664 120 672 119 q 653 118 656 121 q 635 110 646 115 q 617 100 624 104 q 602 91 607 92 q 594 92 597 90 q 586 92 590 93 q 574 83 582 92 q 553 68 563 71 q 532 63 544 65 q 521 57 529 60 q 502 52 513 54 q 483 49 492 50 q 472 47 474 47 q 469 53 469 49 q 467 58 469 57 q 457 52 463 58 q 451 42 451 46 q 444 38 451 38 q 435 42 438 38 q 423 44 432 46 q 414 38 414 43 q 410 32 413 31 q 406 36 408 33 q 401 40 403 39 q 399 35 399 42 q 392 28 399 31 q 356 24 386 26 q 340 24 344 22 q 333 28 336 25 q 329 28 329 36 q 322 22 331 21 q 314 25 313 22 q 310 28 314 28 q 306 24 303 28 q 300 19 308 19 q 292 14 294 18 q 286 17 290 10 q 280 15 281 24 q 272 4 279 6 q 265 -3 265 1 q 254 -1 264 -8 q 254 3 250 1 q 259 8 261 7 q 251 10 257 10 q 238 10 244 10 q 231 11 232 10 q 198 19 215 19 q 167 22 181 18 q 159 23 165 29 q 150 13 153 17 q 125 26 135 28 q 100 18 115 24 q 76 26 99 31 q 47 38 64 29 q 28 64 31 47 q 35 75 31 75 q 46 72 40 75 q 56 65 51 68 q 63 67 60 61 q 67 72 63 69 q 75 71 72 74 q 83 61 79 72 q 90 56 86 50 q 96 54 94 60 q 101 49 99 49 q 103 54 103 49 q 93 68 104 60 q 82 81 82 76 q 78 83 82 86 q 72 88 74 81 q 66 96 71 93 q 63 106 61 99 q 66 108 64 110 q 69 103 68 106 q 72 98 71 100 q 75 101 74 96 q 80 113 75 106 q 75 119 85 121 q 65 115 71 119 q 54 106 60 110 q 44 99 49 101 q 35 100 39 96 q 33 108 32 106 q 40 117 33 110 q 42 125 50 129 q 35 128 33 122 q 35 142 36 133 q 42 160 32 160 q 61 171 51 161 q 95 179 71 179 q 131 176 119 179 q 135 178 133 174 q 143 178 138 183 q 169 179 156 179 q 190 194 183 179 q 199 213 192 208 q 194 231 206 218 q 188 244 188 238 q 196 254 189 251 q 194 260 200 254 q 192 277 188 267 q 194 296 196 288 q 191 315 192 301 q 189 368 190 328 q 188 407 188 399 q 192 417 189 415 q 196 422 197 421 q 190 425 194 424 q 183 429 186 426 q 185 440 181 432 q 193 452 185 450 q 196 461 201 454 q 185 481 185 468 q 181 504 185 494 q 180 515 178 510 q 189 521 182 521 q 196 527 194 522 q 192 531 197 532 q 186 533 188 528 q 186 558 185 539 q 185 575 186 571 q 181 583 183 579 q 177 590 179 586 q 176 603 175 593 q 187 611 179 610 q 193 621 194 613 q 188 628 194 629 q 175 625 181 626 q 178 651 176 632 q 182 672 179 669 q 183 685 185 675 q 176 694 181 694 q 172 714 172 694 q 176 778 172 769 q 176 785 179 781 q 169 792 174 789 q 161 794 165 794 q 157 789 157 794 q 155 784 158 785 q 133 785 151 783 q 113 788 118 785 q 101 792 108 790 q 95 792 97 789 q 89 793 93 796 q 83 795 82 792 q 78 799 83 799 q 63 807 71 801 q 49 818 54 813 q 51 827 47 822 q 57 831 54 832 q 60 832 60 828 q 65 833 60 835 q 73 835 72 832 q 68 842 74 838 q 63 853 63 842 q 58 863 64 864 q 54 865 54 860 q 49 867 54 872 q 44 873 43 863 q 53 890 46 883 q 54 897 64 901 q 47 899 47 896 q 51 914 47 901 q 81 942 61 933 q 125 953 101 951 q 161 954 140 956 q 203 951 182 953 q 244 950 225 950 q 276 957 264 950 q 301 955 282 957 q 326 950 319 953 q 437 954 385 954 q 540 953 489 954 q 643 951 590 951 q 757 950 696 950 q 819 949 785 947 q 888 950 854 951 q 953 938 922 949 q 1003 897 983 926 q 1006 890 1004 899 q 1007 869 1007 881 q 1008 847 1007 857 q 1010 838 1008 838 m 72 861 q 71 856 65 860 q 76 858 76 853 q 72 861 76 861 m 79 839 q 84 837 79 832 q 88 844 89 842 q 82 845 85 847 q 79 839 79 843 m 108 801 q 113 799 108 799 q 118 800 117 799 q 113 803 118 801 q 108 801 108 804 m 125 843 q 135 847 133 843 q 137 853 138 850 q 132 856 136 856 q 122 850 128 856 q 115 846 118 844 q 112 850 113 847 q 110 854 111 853 q 108 851 110 856 q 102 847 106 847 q 97 843 99 847 q 110 840 99 838 q 125 843 121 842 m 199 446 q 202 437 197 440 q 207 440 207 433 q 203 448 208 443 q 199 446 197 453 m 244 660 q 248 658 247 654 q 247 664 249 663 q 243 665 244 667 q 244 660 242 663 m 317 549 q 322 556 319 546 q 321 581 324 565 q 318 597 321 593 q 315 590 315 601 q 312 580 317 583 q 311 572 307 576 q 315 560 315 569 q 317 549 314 551 m 883 757 q 883 765 886 763 q 879 776 878 764 q 882 792 881 788 q 863 795 876 793 q 847 793 849 797 q 842 792 844 790 q 846 788 839 793 q 854 781 853 782 q 843 781 851 781 q 836 786 835 781 q 833 794 838 789 q 825 792 828 799 q 811 792 819 785 q 806 792 806 799 q 790 783 806 785 q 758 783 775 782 q 728 785 742 785 q 717 783 714 786 q 701 783 718 783 q 663 781 683 782 q 627 782 643 781 q 614 789 611 783 q 611 786 611 792 q 601 782 611 783 q 556 782 592 781 q 527 782 538 782 q 510 783 517 782 q 497 785 503 783 q 483 789 492 786 q 471 786 471 790 q 453 782 468 782 q 433 786 439 782 q 426 789 426 793 q 409 782 422 782 q 396 789 396 782 q 394 792 396 792 q 389 790 392 793 q 372 790 386 788 q 357 786 358 792 q 350 783 354 782 q 342 788 346 785 q 333 794 338 790 q 326 796 328 797 q 315 777 318 789 q 313 751 313 765 q 315 724 314 738 q 315 703 317 711 q 315 695 313 700 q 319 693 317 690 q 324 689 322 697 q 328 670 326 681 q 328 651 329 660 q 324 644 328 643 q 320 648 321 644 q 319 657 319 651 q 319 667 319 663 q 318 671 319 671 q 314 657 315 669 q 310 640 313 644 q 310 631 306 636 q 313 619 315 626 q 314 615 313 613 q 322 620 317 622 q 328 610 326 618 q 330 519 329 572 q 332 410 331 467 q 335 295 333 353 q 340 189 336 238 q 374 194 351 192 q 394 194 381 196 q 411 200 408 193 q 423 205 414 203 q 435 204 432 207 q 446 206 444 197 q 470 220 449 213 q 506 231 492 228 q 591 269 549 244 q 671 328 633 294 q 740 399 708 361 q 794 476 772 438 q 814 518 806 500 q 838 564 822 536 q 842 577 839 567 q 847 598 844 588 q 853 615 850 608 q 861 619 857 622 q 863 624 869 617 q 863 636 860 628 q 869 644 867 644 q 869 651 872 644 q 867 660 867 653 q 869 674 868 667 q 872 687 871 681 q 874 696 874 693 q 880 726 876 707 q 883 757 883 746 m 936 760 q 940 758 939 757 q 939 761 942 758 q 938 766 938 763 q 938 773 938 769 q 939 779 939 776 q 936 781 939 782 q 933 770 933 778 q 936 760 933 763 m 1000 781 q 1002 778 996 779 q 1006 781 1008 778 l 1000 781 z "},"E":{"ha":1018,"x_min":24,"x_max":990,"o":"m 715 -24 q 719 -21 714 -21 q 722 -24 724 -21 q 719 -26 719 -26 q 715 -24 718 -26 m 689 -7 q 696 -8 693 -10 q 703 -11 699 -6 q 703 -15 707 -15 q 700 -11 700 -15 q 694 -12 699 -7 q 686 -12 690 -18 q 683 -6 683 -10 q 689 -7 682 -1 m 649 -3 q 648 1 646 0 q 651 -1 650 3 q 652 -6 653 -6 q 649 -3 651 -7 m 857 -14 q 863 -8 857 -12 q 863 -10 869 -3 q 857 -14 857 -15 m 607 583 q 611 588 607 588 q 615 588 615 589 q 612 584 614 586 q 608 581 610 582 q 607 583 606 581 m 931 892 q 925 892 929 890 q 917 897 921 894 q 913 899 914 899 q 914 896 911 900 q 917 885 918 892 q 919 876 915 879 q 922 876 924 874 q 928 874 919 882 q 933 861 936 864 q 939 856 936 854 q 945 861 942 858 q 953 866 949 864 q 963 864 957 868 q 970 861 965 861 q 979 862 975 861 q 986 861 983 863 q 986 853 989 860 q 981 842 985 846 q 975 832 976 838 q 966 824 975 828 q 954 814 957 819 q 949 808 953 810 q 939 806 944 807 q 930 806 933 806 q 926 808 926 807 q 918 806 924 811 q 913 797 913 800 q 900 793 910 793 q 888 789 890 793 q 875 788 885 786 q 858 792 865 789 q 854 789 854 793 q 842 788 854 786 q 818 794 829 789 q 804 799 808 799 q 793 801 800 799 q 786 799 788 803 q 775 794 790 794 q 738 795 760 794 q 695 797 717 796 q 664 799 674 799 q 635 799 644 799 q 619 799 625 799 q 610 801 614 800 q 597 801 606 801 q 579 800 583 800 q 571 803 575 800 q 533 805 556 810 q 494 806 510 800 q 468 806 486 806 q 429 805 450 806 q 389 804 408 804 q 360 804 369 804 q 335 804 343 806 q 313 806 326 803 q 305 808 306 808 q 307 803 304 807 q 308 799 310 803 q 305 792 307 796 q 302 786 303 789 q 304 783 301 783 q 307 778 310 785 q 308 769 304 771 q 308 764 311 767 q 303 749 304 761 q 300 735 303 738 q 301 733 299 732 q 304 726 303 735 q 305 708 306 718 q 303 690 304 699 q 299 683 301 682 q 296 674 293 679 q 303 669 299 669 q 302 649 301 661 q 304 624 303 638 q 307 599 306 611 q 310 579 308 588 q 312 560 307 565 q 322 554 317 554 q 333 558 328 554 q 338 571 338 563 q 332 575 335 575 q 328 571 329 575 q 323 568 326 568 q 317 569 319 568 q 314 573 314 571 q 319 576 314 575 q 324 582 326 578 q 326 586 322 586 q 328 581 329 585 q 331 579 328 578 q 335 578 333 582 q 340 576 338 574 q 342 572 342 578 q 339 558 342 565 q 338 553 336 554 q 343 553 340 551 q 347 556 346 554 q 346 557 349 557 q 347 563 340 557 q 354 571 354 568 q 358 569 357 575 q 358 560 360 564 q 356 556 356 557 q 359 554 356 554 q 375 554 363 554 q 388 557 388 554 q 390 563 386 561 q 386 569 393 564 q 381 577 381 576 q 385 575 382 578 q 390 567 388 572 q 393 558 393 563 q 394 553 392 554 q 406 553 396 553 q 420 556 417 550 q 429 569 424 563 q 419 565 426 567 q 411 567 413 564 q 406 567 407 571 q 410 572 403 568 q 415 579 418 576 q 422 583 415 583 q 431 579 429 583 q 433 578 431 576 q 438 581 436 579 q 442 584 440 583 q 443 581 444 585 q 449 580 440 578 q 456 578 458 582 q 460 579 456 572 q 467 581 467 585 q 464 570 467 578 q 459 556 461 563 q 460 549 457 549 q 467 554 468 543 q 467 565 464 561 q 471 558 469 568 q 474 554 471 551 q 481 556 482 561 q 483 549 481 551 q 487 556 486 549 q 485 567 488 564 q 483 574 481 568 q 490 585 486 579 q 498 592 494 590 q 501 588 501 594 q 507 582 501 582 q 513 583 514 579 q 514 586 511 586 q 517 581 518 586 q 522 579 515 576 q 530 578 529 581 q 528 572 531 575 q 526 565 526 568 q 529 560 525 561 q 533 563 532 560 q 531 567 533 565 q 536 567 528 569 q 543 563 544 565 q 546 565 546 560 q 548 573 544 571 q 549 579 551 575 q 549 584 546 582 q 553 583 551 586 q 561 581 556 581 q 565 583 568 581 q 569 589 563 586 q 574 589 575 593 q 572 586 571 586 q 575 589 572 586 q 591 593 581 593 q 592 588 601 593 q 593 583 588 583 q 607 581 599 582 q 623 578 615 579 q 629 572 631 576 q 631 564 629 565 q 633 569 633 563 q 639 578 633 574 q 647 579 644 582 q 650 581 650 576 q 657 583 650 583 q 664 587 663 583 q 672 589 665 590 q 679 592 679 588 q 685 592 679 597 q 689 589 688 589 q 692 588 690 588 q 693 588 693 589 q 695 580 692 582 q 706 582 699 578 q 718 581 717 589 q 725 576 719 575 q 747 578 731 581 q 769 576 763 576 q 769 581 767 578 q 776 585 772 583 q 784 585 781 586 q 785 581 788 585 q 785 574 781 575 q 788 575 788 571 q 790 578 788 578 q 793 574 793 578 q 796 569 793 569 q 803 571 799 569 q 813 573 808 572 q 819 572 817 574 q 831 575 825 569 q 846 578 836 581 q 849 581 849 579 q 853 582 849 583 q 853 574 860 581 q 853 565 846 567 q 856 565 856 564 q 858 572 853 568 q 870 576 864 575 q 879 575 876 576 q 876 567 882 574 q 874 560 869 560 q 874 557 879 561 q 874 551 871 554 q 871 549 876 547 q 853 532 861 554 q 850 524 850 525 q 853 528 850 524 q 878 535 858 533 q 889 536 886 536 q 893 535 892 536 q 896 534 894 535 q 900 533 897 533 q 906 533 907 536 q 913 529 906 529 q 927 526 921 532 q 936 511 933 519 q 938 494 939 503 q 931 486 936 486 q 924 483 926 486 q 922 474 922 479 q 919 465 921 469 q 915 461 918 461 q 858 443 896 449 q 776 436 819 438 q 688 435 732 435 q 614 436 644 436 q 565 433 586 433 q 521 433 543 433 q 473 434 499 433 q 414 435 447 435 q 369 435 383 435 q 348 434 354 435 q 341 432 342 433 q 340 428 340 431 q 344 408 339 419 q 358 389 350 397 q 374 360 365 375 q 386 331 382 346 q 392 322 386 325 q 397 314 397 318 q 404 308 400 310 q 411 300 408 307 q 420 287 415 290 q 426 276 425 283 q 442 263 429 269 q 457 249 454 257 q 468 240 458 243 q 479 231 478 236 q 485 226 481 225 q 492 221 489 226 q 533 194 510 206 q 581 174 557 182 q 659 149 618 157 q 740 138 700 140 q 756 135 740 135 q 793 138 772 136 q 834 142 814 139 q 865 146 854 144 q 883 149 872 144 q 896 143 894 154 q 899 135 896 136 q 914 133 901 135 q 931 126 928 133 q 932 109 933 118 q 931 94 931 100 q 943 90 932 88 q 953 90 946 94 q 954 83 961 85 q 948 78 950 83 q 956 75 946 74 q 962 67 967 75 q 947 50 957 60 q 926 31 938 40 q 914 17 915 21 q 903 7 911 11 q 885 1 894 3 q 865 -1 875 -1 q 850 0 856 -1 q 835 -1 843 7 q 825 -5 835 -4 q 804 -6 815 -6 q 784 -6 793 -6 q 774 -10 775 -7 q 755 -6 768 -8 q 725 -2 742 -4 q 690 3 708 0 q 654 10 671 6 q 614 21 631 15 q 583 32 597 26 q 553 43 568 38 q 521 57 539 49 q 518 53 518 57 q 518 48 518 50 q 517 47 518 46 q 513 54 517 47 q 509 60 510 60 q 510 56 508 60 q 508 51 511 47 q 502 59 506 54 q 496 66 499 64 q 494 57 493 68 l 497 47 q 490 60 494 51 q 489 69 486 68 q 488 74 492 72 q 485 74 485 76 q 474 78 483 72 q 464 83 465 85 q 449 95 460 85 q 440 108 439 106 q 435 110 442 110 q 426 113 428 108 q 419 115 425 117 q 408 124 414 115 q 403 136 403 132 q 397 139 404 140 q 394 144 390 138 q 390 147 397 150 q 382 147 383 144 q 383 151 381 151 q 383 157 386 151 q 374 160 381 168 q 369 147 368 151 q 386 133 383 140 q 397 121 389 126 q 410 113 403 121 q 420 106 415 104 q 428 101 425 108 q 437 93 431 94 q 446 82 443 92 q 453 79 456 64 q 453 83 450 85 q 459 76 456 81 q 465 68 463 72 q 467 64 468 64 q 469 60 465 63 q 476 55 472 57 q 481 52 479 53 q 478 56 482 51 q 466 77 458 78 q 489 54 474 76 q 503 44 493 49 q 526 34 514 39 q 549 24 538 29 q 567 15 560 19 q 574 15 575 11 q 581 17 571 21 q 594 6 592 13 q 602 -1 597 1 q 622 -8 607 -4 q 628 -8 629 -10 q 626 -6 628 -7 q 626 -4 625 -4 q 638 -8 626 -4 q 663 -13 650 -14 q 679 -22 675 -12 q 674 -23 672 -19 q 676 -29 675 -26 q 673 -28 675 -29 q 668 -28 671 -28 q 661 -25 667 -28 q 651 -19 656 -22 q 643 -15 646 -15 q 644 -19 640 -14 q 645 -23 649 -25 q 635 -17 642 -21 q 624 -12 629 -14 q 622 -15 619 -10 q 619 -17 625 -19 q 588 -8 604 -11 q 557 3 572 -6 q 539 8 546 8 q 519 17 532 8 q 506 22 510 24 q 494 25 501 21 q 383 88 435 49 q 289 179 331 128 q 218 290 247 231 q 175 413 189 349 q 170 431 172 429 q 154 432 168 433 q 138 433 143 431 q 130 437 133 435 q 122 441 126 439 q 107 443 117 443 q 92 445 97 442 q 82 453 86 449 q 73 465 78 458 q 61 475 68 471 q 73 490 67 482 q 67 503 79 499 q 58 512 56 508 q 66 518 60 515 q 79 524 72 521 q 86 531 86 526 q 92 536 85 535 q 110 537 100 538 q 129 534 121 536 q 138 531 138 532 q 135 535 139 532 q 128 542 132 539 q 122 549 124 546 q 124 556 119 553 q 133 563 128 563 q 142 564 138 563 q 149 570 146 565 q 151 592 151 575 q 146 596 150 599 q 150 604 142 593 q 153 609 154 608 q 151 608 153 610 q 147 607 149 607 q 147 610 144 607 q 150 620 150 613 q 147 635 150 628 q 149 650 144 640 q 151 665 154 660 q 149 677 149 668 q 147 689 150 686 q 150 697 144 689 q 153 719 157 707 q 144 739 149 731 q 142 742 142 740 q 144 747 143 744 q 147 749 146 749 q 147 746 149 749 q 149 740 144 740 q 153 748 153 743 q 156 757 153 753 q 152 762 158 765 q 149 764 146 758 q 147 776 150 767 q 144 783 143 779 q 148 790 146 788 q 151 794 150 793 q 146 793 151 796 q 140 786 142 790 q 137 780 139 782 q 132 777 135 778 q 122 779 129 776 q 112 782 114 785 q 103 786 110 779 q 95 791 97 790 q 89 789 93 792 q 81 789 85 786 q 72 796 76 792 q 63 805 67 800 q 58 813 60 810 q 51 819 56 819 q 46 824 47 818 q 32 844 40 831 q 33 865 24 857 q 40 881 40 871 q 42 897 39 890 q 65 907 46 908 q 94 910 83 906 q 90 928 92 919 q 107 936 89 936 l 114 936 q 118 938 115 936 q 124 940 118 939 q 138 940 131 940 q 153 938 146 939 q 163 938 160 938 q 184 940 163 939 q 231 940 206 940 q 278 940 257 940 q 300 938 300 939 q 304 935 303 935 q 306 939 308 936 q 311 938 304 942 q 319 936 319 931 q 326 938 318 938 q 344 938 335 939 q 363 937 354 938 q 371 935 371 936 q 383 935 375 932 q 399 936 392 939 q 408 938 413 933 q 411 939 407 940 q 415 939 419 935 q 419 942 414 944 q 422 938 424 940 q 426 937 421 935 q 429 936 431 939 q 439 933 429 932 q 451 938 449 933 q 455 940 453 940 q 459 937 457 939 q 462 935 461 935 q 463 940 463 935 q 463 944 460 944 q 468 940 465 943 q 474 935 471 938 q 476 932 476 932 q 481 931 481 924 q 485 936 482 938 q 488 941 492 933 q 475 960 483 949 q 465 973 465 971 q 468 976 464 975 q 496 976 475 976 q 541 976 517 976 q 585 976 565 976 q 613 972 606 975 q 624 971 618 965 q 642 974 631 976 q 681 971 650 971 q 744 969 711 971 q 805 964 778 968 q 835 949 832 960 q 841 950 840 944 q 849 956 842 956 q 856 960 856 956 q 863 958 857 965 q 874 959 865 956 q 886 957 882 963 q 891 954 890 953 q 892 958 892 956 q 892 963 892 961 q 897 961 893 965 q 900 959 900 958 q 899 960 900 960 q 899 962 899 961 q 901 960 899 963 q 905 957 904 957 q 906 958 906 957 q 908 959 907 958 q 913 957 908 960 q 925 953 918 954 q 932 956 932 953 q 938 955 932 958 q 951 945 944 951 q 965 932 958 939 q 971 922 971 925 q 976 913 971 919 q 986 901 982 907 q 990 891 990 896 q 981 886 990 886 q 972 881 972 883 q 964 871 968 871 q 954 874 960 871 q 943 883 949 878 q 931 892 938 889 m 161 781 q 163 791 168 785 q 157 793 158 797 q 156 790 157 792 q 153 785 154 788 q 151 776 146 778 q 161 781 156 774 m 944 81 q 938 82 943 82 q 932 79 932 82 q 938 77 932 76 q 944 81 944 78 m 931 69 q 927 72 926 79 q 931 64 928 64 l 931 69 m 424 121 q 419 124 424 124 q 415 121 415 124 q 419 118 415 118 q 424 121 424 118 m 921 494 q 917 497 921 503 q 917 490 914 492 q 921 494 921 483 m 907 501 q 908 494 903 500 q 910 497 913 489 q 908 500 908 499 l 907 501 m 883 506 q 878 508 876 517 q 883 499 879 500 q 883 506 886 499 m 850 501 q 844 499 849 504 q 846 499 839 494 q 850 501 850 499 m 799 531 q 793 531 800 536 q 789 525 786 526 q 793 529 793 525 q 796 530 793 532 q 799 531 799 528 m 732 546 q 733 549 736 546 q 726 557 731 553 q 717 563 721 561 q 715 558 713 564 q 717 549 718 556 q 717 539 717 543 q 724 546 719 540 q 729 549 728 551 q 732 546 729 546 m 686 511 q 681 514 685 514 q 676 511 676 514 q 684 507 676 508 q 686 511 692 506 m 654 519 q 649 517 654 517 q 646 514 644 517 q 653 512 649 511 q 658 515 657 513 q 658 522 660 518 q 654 519 657 525 m 611 551 q 608 544 608 544 q 611 547 608 544 q 618 550 615 551 q 618 546 622 547 q 623 543 614 543 q 631 546 632 543 q 628 549 631 549 q 626 553 624 549 q 626 557 628 557 q 618 559 622 560 q 611 551 614 558 m 543 518 q 547 510 540 511 q 550 514 553 510 q 545 522 547 517 q 543 518 543 528 m 544 554 q 544 547 540 551 q 547 550 549 542 q 546 553 546 551 l 544 554 m 522 571 q 514 570 519 572 q 508 565 508 568 q 515 566 508 563 q 522 571 522 569 m 497 575 q 496 582 500 581 q 492 576 492 583 q 492 569 492 569 q 497 575 493 568 m 461 531 q 458 533 463 538 q 458 528 454 529 q 461 531 461 528 m 429 524 q 436 519 431 519 q 442 526 442 519 q 435 531 442 533 q 429 524 429 528 m 435 557 q 428 557 433 560 q 419 554 422 554 q 435 550 425 551 q 444 551 446 549 q 440 554 444 554 q 435 557 436 554 m 318 535 q 316 533 315 539 q 318 529 317 526 q 318 535 319 531 m 325 915 q 322 913 319 918 q 328 913 325 908 q 325 915 328 915 m 403 908 q 388 913 401 913 q 372 913 375 914 q 375 910 371 911 q 385 908 379 908 q 395 907 390 907 q 400 907 400 907 l 403 908 m 414 911 q 417 909 411 910 q 421 911 422 908 l 414 911 m 435 908 q 438 910 439 910 q 433 911 436 911 q 426 910 429 911 q 424 908 424 910 q 435 908 424 904 m 447 908 q 447 906 444 907 q 452 906 449 906 q 459 906 456 906 q 461 908 463 907 q 456 911 461 911 q 447 908 451 911 m 510 932 q 505 940 503 939 q 512 942 507 942 q 521 946 517 943 q 524 957 525 949 q 519 957 522 963 q 510 948 518 950 q 504 953 501 946 q 500 960 504 956 q 490 959 497 965 q 490 951 482 953 q 494 956 496 951 q 499 954 492 961 q 502 946 504 947 q 497 944 500 944 q 493 943 494 944 q 499 936 492 942 q 511 927 506 929 q 510 932 517 925 m 526 903 q 526 905 529 907 q 522 900 522 903 q 524 898 522 897 q 526 903 525 899 m 531 938 q 531 941 528 942 q 535 944 535 940 q 528 942 533 949 q 531 935 524 935 q 531 938 531 935 m 549 940 q 554 943 549 943 q 561 940 561 943 q 558 947 568 942 q 542 950 549 953 q 540 944 533 950 q 549 940 547 938 m 554 897 q 557 900 557 897 q 554 902 558 907 q 554 897 550 897 m 556 922 q 564 925 558 921 q 568 932 569 929 q 560 931 565 935 q 558 931 556 928 q 556 935 560 935 q 552 930 553 935 q 556 922 551 925 m 569 944 q 568 954 571 950 q 565 956 568 956 q 558 958 561 957 q 553 958 554 958 q 557 957 553 957 q 561 953 560 957 q 564 947 563 950 q 567 942 565 943 q 569 944 568 940 m 574 933 q 581 942 576 936 q 583 949 586 947 q 578 944 581 953 q 574 933 576 936 m 593 944 q 591 948 596 953 q 590 940 586 943 l 592 942 q 592 943 592 943 q 593 944 593 943 m 614 928 q 617 940 618 938 q 611 936 617 943 q 604 938 606 932 q 600 939 603 942 q 601 933 597 935 q 604 925 606 931 q 614 928 604 906 m 633 933 q 632 940 635 940 q 629 936 629 940 q 630 929 629 932 q 632 926 631 926 q 633 933 633 926 m 681 926 q 685 924 679 924 q 692 925 692 924 q 687 928 692 926 q 681 926 682 929 m 717 913 q 724 911 724 907 q 717 917 724 914 q 717 913 711 919 m 731 931 q 735 931 740 922 q 728 935 731 935 q 731 931 726 935 m 871 851 q 880 847 876 847 q 882 851 883 846 q 872 861 881 863 q 856 865 863 860 q 850 865 851 867 q 859 860 850 861 q 871 851 868 858 m 947 836 q 947 831 943 836 q 950 833 950 826 q 947 836 950 836 m 108 550 q 103 550 104 544 q 102 558 100 556 q 108 560 104 560 q 113 557 111 560 q 108 550 114 554 m 897 -8 q 903 -6 904 0 q 897 -12 903 -12 q 897 -8 893 -12 m 721 581 q 723 583 719 583 q 725 581 726 583 q 722 578 724 578 q 721 581 721 578 m 361 578 q 365 572 368 572 q 358 576 361 571 q 361 578 356 582 m 919 -3 q 922 -8 925 -3 q 917 -7 918 -12 q 919 -3 914 -3 m 378 576 q 376 570 378 574 q 370 564 374 567 q 365 560 367 561 q 365 564 363 560 q 370 575 368 567 q 378 576 372 583 m 631 581 q 633 583 631 583 q 635 581 636 583 q 632 578 633 578 q 631 581 631 578 m 538 578 q 542 581 538 581 q 547 578 546 581 q 542 575 549 575 q 538 578 536 575 m 469 583 q 470 586 467 586 q 474 583 474 586 q 472 581 474 581 q 469 583 471 581 m 247 971 q 243 969 246 968 q 240 974 240 971 q 244 974 242 976 q 247 971 247 972 m 429 943 q 426 951 426 946 q 429 956 426 956 q 432 952 431 956 q 433 946 433 949 q 432 942 433 943 q 429 943 431 940 m 858 967 q 855 964 861 964 q 853 967 849 964 l 858 967 m 258 968 q 254 967 258 967 q 250 969 250 967 q 254 971 250 972 q 258 968 258 969 m 296 972 q 297 976 301 976 q 293 979 292 975 q 297 978 293 982 q 301 978 301 975 q 310 981 301 981 q 319 978 319 981 q 310 975 319 975 q 300 972 301 975 q 296 969 300 969 q 296 972 292 969 m 290 978 q 285 976 292 975 q 283 978 279 976 l 290 978 m 276 967 q 269 972 272 967 q 268 976 265 976 q 274 973 271 975 q 278 969 276 971 q 276 967 281 967 m 451 956 q 458 963 456 956 q 467 967 460 969 q 467 950 471 957 q 451 951 463 943 q 451 956 446 956 m 372 947 q 375 948 372 950 q 378 944 378 946 q 374 944 376 943 q 372 947 371 944 m 346 967 q 337 967 342 964 q 330 974 332 971 q 328 978 328 976 q 335 974 329 979 q 342 967 338 969 q 342 971 347 965 q 338 978 335 975 q 356 979 336 978 q 398 981 375 981 q 440 981 421 982 q 456 972 458 979 q 447 967 453 965 q 436 969 440 968 q 438 963 436 967 q 442 956 440 960 q 442 953 443 953 q 436 958 442 953 q 428 964 436 963 q 410 967 421 965 q 390 968 400 968 q 374 971 379 968 q 360 969 367 972 q 346 967 353 965 m 410 949 q 413 952 410 953 q 417 949 415 951 q 414 946 418 946 q 410 949 410 946 z "},"F":{"ha":904,"x_min":28,"x_max":878,"o":"m 825 921 q 846 917 835 918 q 865 910 857 915 q 875 894 872 904 q 874 868 878 885 q 863 835 868 850 q 843 813 858 821 q 796 793 822 799 q 738 787 769 788 q 670 787 707 786 q 590 786 633 788 l 357 786 q 358 747 357 769 q 359 701 358 724 q 360 658 360 678 q 358 628 360 638 q 367 612 356 614 q 401 613 379 610 q 443 615 415 614 q 498 615 471 615 q 547 613 525 614 q 571 611 568 611 q 581 613 571 613 q 601 614 590 614 q 622 613 613 614 q 631 610 631 611 q 634 606 631 607 q 636 608 638 604 q 642 611 636 610 q 655 613 647 613 q 671 615 663 614 q 685 615 679 615 q 692 613 689 615 q 697 609 694 611 q 701 607 699 607 q 710 610 704 607 q 727 612 721 617 q 747 606 733 607 q 761 603 760 603 q 769 593 763 603 q 773 585 774 588 q 770 582 772 583 q 767 581 768 581 q 772 581 767 581 q 778 576 776 583 q 779 560 779 569 q 778 544 779 551 q 775 536 776 536 q 778 529 765 526 q 786 526 783 531 q 789 517 789 522 q 786 506 789 511 q 778 500 783 501 q 775 496 771 496 q 781 489 782 497 q 775 482 781 481 q 771 479 771 483 q 760 458 767 460 q 742 451 753 457 q 734 449 747 450 q 697 447 721 447 q 642 447 672 447 q 584 447 613 447 q 535 447 556 447 q 508 447 514 447 q 482 447 504 447 q 435 446 460 446 q 389 447 410 446 q 367 447 368 447 q 356 444 358 447 q 353 425 354 442 q 353 386 354 408 q 351 340 353 364 q 346 294 349 317 q 342 256 343 272 q 340 240 344 249 q 336 225 335 232 q 332 217 339 222 q 329 207 326 214 q 322 189 336 194 q 317 173 315 185 q 310 157 319 161 q 303 149 301 153 q 300 139 304 144 q 295 124 297 132 q 289 110 293 115 q 281 99 289 107 q 274 89 274 92 q 264 80 271 83 q 254 68 257 76 q 242 56 251 60 q 231 43 233 51 q 219 34 228 36 q 206 25 211 32 q 174 6 192 17 q 142 -6 156 -6 q 109 -10 129 -6 q 74 -4 89 -14 q 63 4 63 0 q 68 11 64 8 q 76 15 72 14 q 75 18 79 17 q 63 22 67 18 q 58 31 60 26 q 56 40 57 36 q 50 43 54 44 q 40 50 44 43 q 31 65 35 57 q 28 81 28 74 q 35 90 29 89 q 41 97 40 94 q 40 107 42 100 q 51 135 36 121 q 87 161 67 149 q 125 185 107 174 q 143 204 143 196 q 158 232 149 215 q 174 260 167 249 q 177 272 176 263 q 179 294 178 282 q 181 316 181 306 q 185 331 182 326 q 190 345 192 342 q 192 356 188 349 q 205 417 204 397 q 194 442 206 436 q 159 447 182 449 q 103 447 136 446 q 88 454 96 449 q 81 464 79 460 q 76 469 82 471 q 67 471 69 467 q 63 475 63 474 q 71 483 64 476 q 79 496 82 490 q 69 493 76 501 l 63 486 q 55 503 58 494 q 53 524 51 513 q 49 539 54 539 q 40 556 38 546 q 52 576 43 567 q 73 593 61 586 q 92 603 85 600 q 95 604 92 604 q 102 604 99 604 q 107 604 106 604 q 103 606 108 604 q 109 610 93 610 q 148 612 125 611 q 190 614 171 613 q 204 619 208 615 q 202 650 206 631 q 204 678 199 669 q 199 694 204 688 q 201 714 193 700 q 199 728 203 721 q 201 746 196 736 q 201 751 204 751 q 198 757 199 751 q 200 769 197 763 q 190 785 208 782 q 144 788 171 788 q 92 792 117 789 q 63 808 67 796 q 63 821 58 822 q 71 822 68 819 q 72 831 67 825 q 82 843 76 838 q 88 852 88 849 q 79 853 89 856 q 70 845 72 850 q 64 838 68 840 q 57 832 58 838 q 49 826 53 826 q 42 830 44 826 q 39 838 39 833 q 43 846 39 842 q 43 850 49 850 q 38 861 31 853 q 44 876 44 869 q 44 911 43 900 q 49 931 46 922 q 56 940 53 938 q 60 938 60 942 q 65 938 60 936 q 71 940 65 939 q 83 941 76 940 q 95 942 90 942 q 100 942 100 942 q 97 951 97 946 q 108 953 97 957 q 119 949 118 953 q 117 942 119 946 q 115 937 115 939 q 124 938 115 935 q 126 946 128 940 q 135 956 122 954 q 167 956 149 957 q 203 954 186 956 q 225 954 221 953 q 305 954 258 954 q 404 955 351 954 q 513 956 457 956 q 619 957 568 957 q 701 956 672 957 q 744 955 729 956 q 763 953 758 954 q 771 949 767 951 q 783 947 781 943 q 797 951 788 951 q 813 946 806 950 q 825 935 821 942 q 825 921 829 929 m 72 917 q 71 922 74 922 q 65 919 68 922 q 61 914 63 917 q 64 911 60 911 q 72 917 69 911 m 103 860 q 103 856 96 854 q 107 861 110 858 q 103 860 107 864 m 140 925 q 143 928 149 925 q 142 933 139 931 q 135 931 140 939 q 140 925 129 924 m 231 925 q 233 928 233 925 l 233 929 q 229 926 232 932 q 231 925 226 919 m 321 688 q 323 683 321 679 q 322 690 325 688 q 321 688 321 693 m 768 533 q 764 536 768 536 q 760 533 760 536 q 764 531 760 531 q 768 533 768 531 m 794 885 q 799 885 797 885 q 797 886 800 886 q 790 888 794 889 q 794 885 786 886 m 814 881 q 819 879 818 876 q 818 885 821 882 q 813 887 814 889 q 814 881 811 885 z "},"G":{"ha":1032,"x_min":22,"x_max":1004,"o":"m 333 451 q 331 460 331 451 q 333 460 331 469 q 336 452 336 456 q 333 451 336 449 m 325 493 q 327 497 325 501 q 326 489 329 492 q 326 489 326 488 q 325 493 325 490 m 450 488 q 448 495 447 493 q 453 490 449 497 q 455 483 456 483 q 450 488 454 482 m 465 472 q 460 479 461 474 q 458 489 458 485 q 461 494 458 493 q 468 490 464 496 q 472 488 469 486 q 476 493 474 490 q 480 498 478 496 q 485 496 482 500 q 488 489 486 494 q 489 478 489 483 q 487 472 489 474 q 481 474 485 469 q 474 478 475 478 q 471 477 472 479 q 469 474 469 475 q 465 472 468 472 m 464 510 q 467 503 468 506 q 461 506 465 501 q 460 513 458 511 q 464 510 461 514 m 460 539 q 471 541 469 544 q 470 533 472 538 q 464 526 468 529 q 458 529 460 524 q 461 533 458 533 q 464 536 464 533 q 459 538 465 540 q 460 539 453 535 m 453 513 q 457 501 457 510 q 451 504 457 493 q 453 513 447 514 m 961 861 q 958 858 961 858 q 957 861 954 858 q 960 864 958 864 q 961 861 961 864 m 322 514 q 324 517 322 521 q 324 510 326 513 q 322 514 322 507 m 665 450 q 661 453 661 450 q 665 455 658 458 q 665 450 671 451 m 319 531 q 321 532 319 533 q 322 526 324 529 q 319 531 319 524 m 715 456 q 718 451 721 454 q 713 453 715 447 q 715 456 710 456 m 86 811 q 83 809 89 808 q 81 811 76 810 l 86 811 m 982 435 q 979 437 979 439 q 981 431 979 435 q 984 422 982 426 q 988 417 986 418 q 990 403 994 407 q 990 389 986 400 q 990 366 990 372 q 989 335 990 360 q 988 303 986 324 q 981 276 989 283 q 985 254 971 267 q 989 238 992 250 q 983 219 986 225 q 985 190 983 210 q 976 161 986 171 q 975 154 974 156 q 976 149 978 151 q 981 142 975 146 q 982 128 986 133 q 981 110 978 122 q 974 89 979 97 q 964 74 968 81 q 956 70 961 75 q 950 61 950 65 q 942 55 950 57 q 936 46 933 53 q 933 35 940 38 q 915 31 925 32 q 896 27 904 29 q 890 19 888 25 q 863 17 879 19 q 828 14 846 15 q 793 12 810 13 q 765 13 776 11 q 628 28 696 15 q 497 66 560 40 q 381 131 435 92 q 288 229 326 171 q 276 244 281 235 q 264 261 272 253 q 248 281 257 271 q 242 301 239 290 q 234 312 239 301 q 226 321 229 322 q 221 330 224 322 q 216 346 218 338 q 211 360 214 354 q 206 365 208 365 q 205 369 204 365 q 206 378 206 374 q 205 385 206 382 q 200 385 204 388 q 191 394 193 382 q 192 411 189 407 q 190 415 196 415 q 186 419 186 415 q 189 425 186 422 q 192 426 192 425 q 189 426 192 426 q 185 433 185 429 q 179 442 185 438 q 176 451 172 446 q 178 460 181 457 q 176 467 175 463 q 174 473 178 474 q 171 478 171 472 q 168 474 169 482 q 167 465 167 467 q 165 482 168 471 q 159 505 163 493 q 155 526 156 517 q 160 538 154 535 q 161 541 163 536 q 164 549 160 546 q 168 553 168 553 q 163 551 168 554 q 157 552 158 549 q 156 561 156 556 q 156 573 156 567 q 157 582 157 579 q 152 573 154 579 q 147 564 150 567 q 146 590 147 581 q 144 608 144 600 q 142 626 143 617 q 140 653 140 636 q 140 683 140 664 q 138 722 139 701 q 137 758 138 742 q 138 783 136 775 q 140 791 140 789 q 138 799 140 793 q 119 808 132 807 q 100 817 106 808 q 88 821 96 821 q 68 818 74 822 q 61 817 63 813 q 51 830 58 824 q 44 846 43 836 q 36 860 44 857 q 38 885 22 868 q 45 904 43 896 q 51 918 47 913 q 63 927 54 924 q 90 932 71 931 q 115 935 108 932 q 142 932 122 938 q 147 936 147 931 q 139 943 147 942 q 119 944 131 944 q 98 944 108 944 q 85 946 88 943 q 83 958 78 958 q 94 965 88 958 q 103 965 90 969 q 106 965 107 963 q 123 966 104 969 q 157 964 142 963 q 224 960 206 961 q 246 957 242 960 q 259 959 253 954 q 276 957 265 964 q 281 954 279 954 q 281 956 282 954 q 288 958 279 957 q 308 958 297 958 q 329 956 319 957 q 342 953 339 954 q 346 953 346 950 q 356 954 346 954 q 379 954 367 954 q 403 953 392 954 q 414 951 414 953 q 422 950 414 950 q 439 951 429 950 q 456 951 449 951 q 463 950 463 951 q 476 950 464 947 q 492 950 489 953 q 494 948 489 947 q 501 951 499 949 q 506 951 506 956 q 508 950 506 949 q 519 953 511 953 q 531 950 526 953 q 533 951 533 949 q 537 956 531 956 q 542 950 543 956 q 544 947 540 949 q 551 945 547 946 q 557 945 554 944 q 558 947 560 946 q 560 951 557 951 q 565 947 564 950 q 577 944 568 943 q 593 951 586 946 q 601 957 601 963 q 613 953 601 953 q 623 948 622 954 q 632 942 624 942 q 642 940 638 943 q 649 944 646 938 q 644 950 649 950 q 646 956 639 950 q 647 962 656 965 q 635 956 639 958 q 642 963 638 958 q 649 967 646 968 q 653 970 657 968 q 629 972 649 972 q 617 974 621 971 q 613 979 613 976 q 616 985 613 982 q 625 989 619 989 q 693 990 663 990 q 724 989 724 990 q 731 985 728 985 q 737 987 733 985 q 746 991 740 989 q 760 992 751 993 q 778 992 772 989 q 786 986 785 996 q 787 982 785 982 q 792 982 789 982 q 796 981 794 982 q 793 974 797 981 q 785 967 790 964 q 778 963 781 969 q 774 947 775 957 q 776 936 774 936 l 776 939 q 777 942 776 940 q 778 946 778 943 q 780 955 776 951 q 788 960 783 958 q 797 965 793 963 q 799 969 800 967 q 797 975 796 972 q 802 981 799 978 q 809 985 806 983 q 813 990 813 988 q 826 992 815 996 q 843 988 838 988 q 847 989 847 985 q 850 990 847 993 q 861 992 856 993 q 875 981 867 990 q 888 986 881 982 q 906 983 896 990 q 932 979 915 983 q 956 968 949 975 q 956 965 957 968 q 952 957 954 961 q 948 950 950 953 q 944 950 946 947 q 942 957 947 953 q 939 964 938 961 q 938 969 942 967 q 934 964 935 969 q 931 953 933 958 q 927 947 929 949 q 921 953 925 946 q 911 957 917 960 q 904 957 903 951 q 895 960 904 961 q 883 961 886 958 q 878 961 875 964 q 878 957 881 958 q 875 954 878 957 q 869 948 872 951 q 866 943 867 944 q 869 944 865 942 q 874 942 874 949 q 876 934 872 935 q 885 933 881 933 q 896 933 890 933 q 903 929 901 933 q 907 931 906 928 q 909 935 908 933 q 911 938 910 938 q 917 933 913 939 q 928 929 919 926 q 933 928 936 932 q 936 928 932 924 q 940 929 940 929 q 943 924 942 924 q 946 928 944 925 q 948 934 947 931 q 949 940 949 938 q 953 933 950 938 q 954 925 956 928 q 962 915 951 918 q 971 904 972 913 q 975 895 974 894 q 978 899 976 896 q 982 906 979 903 q 989 906 985 910 q 994 886 996 899 q 985 876 992 874 q 979 875 979 878 q 973 865 979 869 q 964 864 967 860 q 957 865 964 865 q 951 856 949 863 q 949 849 953 850 q 943 846 943 849 q 947 843 943 843 q 944 838 950 842 q 940 831 939 833 q 933 831 939 825 q 929 831 928 838 q 928 826 929 826 q 925 828 926 826 q 922 832 924 831 q 919 832 921 833 q 914 831 915 828 q 906 830 910 832 q 899 824 903 828 q 891 819 894 821 q 883 819 888 817 q 878 819 876 824 q 865 816 871 813 q 843 815 858 819 q 825 816 829 813 q 810 819 821 819 q 803 819 806 824 q 757 814 789 815 q 690 813 725 813 q 625 813 656 813 q 583 814 594 814 q 554 813 567 818 q 518 814 542 807 q 510 813 517 817 q 490 809 501 806 q 472 813 478 813 q 456 810 471 811 q 425 810 442 810 q 394 810 408 810 q 376 813 379 811 q 366 811 369 813 q 358 808 363 810 q 346 807 354 807 q 321 810 338 807 q 305 810 308 811 q 300 807 301 810 q 296 804 297 803 q 294 801 293 806 q 299 781 294 796 q 299 770 299 778 q 300 754 300 763 q 299 740 300 746 q 299 733 299 733 q 299 722 296 728 q 300 706 301 717 q 297 685 303 689 q 296 671 292 681 q 299 640 297 658 q 303 605 301 622 q 306 574 306 588 q 307 554 307 560 q 313 528 310 543 q 318 499 315 513 q 322 477 319 489 q 328 455 325 465 q 335 437 332 444 q 342 429 339 429 q 348 408 346 426 q 356 386 350 389 q 359 378 358 383 q 363 371 360 372 q 369 366 364 371 q 380 354 374 361 q 392 340 386 347 q 403 328 399 332 q 395 316 400 322 q 399 306 390 310 q 406 304 404 299 q 414 310 408 310 q 424 303 418 310 q 428 294 431 297 q 438 290 428 290 q 447 286 449 292 q 451 278 444 281 q 465 272 458 276 q 465 258 471 268 q 464 249 463 250 q 468 251 465 249 q 474 256 471 253 q 481 258 478 258 q 488 262 488 257 q 493 261 489 267 q 494 258 499 258 q 490 256 489 258 q 494 252 492 254 q 501 249 497 250 q 506 250 506 247 q 507 250 507 253 q 510 247 508 247 q 519 240 513 249 q 522 231 526 232 q 522 225 517 228 q 524 219 526 222 q 535 221 522 210 q 547 227 540 228 q 574 217 554 226 q 588 208 589 213 q 589 197 586 204 q 592 203 593 199 q 600 204 592 207 q 609 203 600 204 q 631 200 618 201 q 656 197 643 199 q 672 192 668 194 q 690 192 685 193 q 698 188 696 190 q 702 183 700 185 q 708 182 704 181 q 716 183 708 182 q 732 185 724 185 q 747 185 740 186 q 751 182 753 185 q 756 177 751 178 q 763 181 760 176 q 774 185 765 185 q 783 182 783 185 q 794 179 783 178 q 811 184 813 181 q 813 196 810 188 q 814 208 817 197 q 812 238 808 228 q 813 265 815 247 q 813 276 811 269 q 815 290 814 283 q 817 301 817 296 q 815 307 817 306 q 815 315 813 307 q 813 322 817 322 q 811 325 811 322 q 816 356 815 339 q 816 390 817 372 q 816 424 815 407 q 821 456 817 442 q 819 459 824 458 q 807 460 814 460 q 794 461 800 460 q 788 467 788 463 q 787 478 782 472 q 786 485 792 483 q 778 472 779 483 q 771 463 776 461 q 759 460 767 461 q 745 459 751 458 q 734 463 739 460 q 731 472 729 465 q 729 476 733 472 q 722 479 725 479 q 709 462 721 464 q 689 453 697 460 q 685 451 689 450 q 676 452 681 451 q 671 453 672 453 q 676 454 669 454 q 681 454 681 451 q 680 462 682 457 q 674 471 678 467 q 669 474 671 475 q 670 470 665 471 q 674 467 675 469 q 669 465 674 464 q 665 464 664 467 q 644 463 658 461 q 622 460 631 465 q 629 458 625 460 q 636 453 633 456 q 639 449 639 450 q 633 450 639 447 q 629 451 631 453 q 626 448 628 450 q 622 446 624 446 q 615 451 619 446 q 606 459 613 454 q 607 457 600 464 q 603 458 613 449 q 596 463 599 463 q 589 463 593 464 q 574 459 586 460 q 556 458 563 458 q 566 447 561 454 q 558 447 571 439 q 550 448 556 449 q 539 446 544 447 q 528 444 533 444 q 522 449 524 444 q 517 450 518 453 q 518 443 514 444 q 511 442 517 440 q 500 447 506 443 q 490 453 494 450 q 488 458 486 457 q 495 460 488 461 q 503 463 503 460 q 508 460 503 464 q 514 456 511 456 q 519 459 517 457 q 525 463 522 461 q 532 461 528 465 q 544 460 539 457 q 548 461 549 460 q 544 464 547 463 q 540 467 542 465 q 539 469 538 468 q 540 475 543 469 q 542 481 539 481 q 551 479 546 481 q 560 477 556 478 q 564 481 564 476 q 564 489 568 490 q 547 490 554 493 q 529 492 540 486 q 525 489 525 494 q 529 481 525 483 q 531 468 539 469 q 517 472 522 467 q 513 476 517 474 q 506 480 510 478 q 499 483 501 482 q 501 488 497 485 q 513 483 504 493 q 528 472 522 472 q 525 478 533 471 q 518 486 522 476 q 511 499 514 496 q 529 498 522 492 q 529 514 536 504 q 524 513 521 521 q 529 503 526 506 q 517 514 522 511 q 504 522 511 517 q 494 524 497 529 q 489 522 490 518 q 492 531 486 524 q 489 532 497 538 q 481 524 483 531 q 475 522 479 518 q 470 531 469 526 q 475 532 471 535 q 478 533 479 532 q 479 539 476 533 q 481 547 483 544 q 475 549 479 549 q 466 550 471 550 q 461 553 461 550 q 465 556 461 556 q 472 556 468 556 q 478 557 476 556 q 479 563 481 558 q 481 565 479 569 q 485 567 485 558 q 481 575 485 575 q 482 578 479 575 q 488 585 485 582 q 495 590 492 588 q 500 590 499 592 q 501 594 504 586 q 508 604 499 601 q 522 614 517 607 q 540 620 533 618 q 555 622 547 622 q 574 622 563 622 q 604 619 585 621 q 642 624 626 618 q 662 624 644 626 q 682 624 679 621 q 711 626 694 629 q 739 626 728 624 q 747 628 742 631 q 756 629 753 626 q 776 628 756 633 q 791 630 783 628 q 810 628 799 632 q 815 631 814 628 q 822 632 817 635 q 834 632 829 629 q 846 632 839 635 q 856 632 857 629 q 867 635 856 635 q 876 635 869 635 q 892 636 883 636 q 907 636 900 636 q 915 633 914 636 q 921 632 917 628 q 933 635 926 636 q 944 629 939 633 q 954 621 949 625 q 965 615 960 617 q 985 597 981 613 q 997 567 990 581 q 1004 550 1004 557 q 1001 537 1004 543 q 994 525 999 531 q 990 511 990 519 q 988 499 993 503 q 985 490 982 496 q 987 483 988 485 q 983 485 986 482 q 982 479 978 488 q 989 464 983 472 q 994 449 994 456 q 990 433 993 442 q 988 426 988 424 q 982 435 988 429 m 539 511 q 539 517 542 514 q 537 515 536 521 q 539 511 538 508 m 607 483 q 608 488 610 488 q 603 487 606 488 q 599 483 601 486 q 600 479 597 481 q 607 483 603 479 m 618 483 q 620 481 614 482 q 624 483 626 481 q 618 483 621 486 m 643 474 q 644 470 640 469 q 647 474 647 471 q 642 480 647 478 q 633 482 638 482 q 628 481 629 482 q 635 479 626 481 q 643 474 644 479 m 907 910 q 903 909 901 918 q 911 901 906 900 l 914 904 q 913 906 917 908 q 907 910 910 904 m 924 968 q 921 964 921 968 q 922 957 921 960 q 924 955 922 954 q 928 963 926 956 q 924 968 928 968 m 857 967 q 858 963 856 965 q 863 960 860 961 q 867 959 865 958 q 864 964 868 960 q 860 965 861 964 q 858 965 860 965 q 857 967 857 965 m 825 910 q 813 912 815 914 q 813 907 811 910 q 817 903 814 904 q 818 907 819 901 q 817 910 815 910 q 821 907 818 910 q 828 905 822 904 q 838 908 833 906 q 842 910 842 910 q 836 910 843 911 q 825 910 829 907 m 775 907 q 772 911 775 911 q 767 910 769 911 q 764 906 764 908 q 769 904 764 904 q 775 907 775 904 m 768 963 q 767 967 776 963 q 758 963 758 971 q 762 961 758 957 q 768 963 765 965 m 758 910 q 751 913 758 913 q 751 910 744 914 q 758 910 758 906 m 749 967 q 747 965 744 969 q 751 964 749 960 l 749 967 m 717 963 q 715 960 713 963 q 719 955 717 957 q 725 951 722 953 q 725 953 728 950 q 727 958 722 954 q 732 964 732 963 q 729 966 732 964 q 722 970 726 968 q 716 973 718 972 q 717 968 714 974 q 717 963 721 965 m 699 953 q 692 953 696 956 q 688 954 689 951 q 678 952 685 958 q 668 947 672 946 q 662 944 661 947 q 669 942 663 942 q 683 940 676 939 q 689 936 689 942 q 694 938 688 933 q 699 942 701 942 q 700 948 696 944 q 699 953 704 951 m 669 965 q 665 963 667 965 q 662 957 663 960 q 662 953 661 954 q 667 957 663 953 q 670 960 667 960 q 672 957 674 960 q 674 957 671 956 q 683 961 678 958 q 691 966 688 964 q 694 968 694 968 q 681 970 690 972 q 669 965 672 968 m 660 963 q 653 963 657 969 q 656 958 650 957 q 660 963 660 963 m 606 917 q 603 915 603 921 q 606 911 604 908 q 606 917 607 913 m 158 592 q 157 594 160 594 q 154 592 154 594 q 158 592 154 588 m 161 532 q 160 526 158 533 q 163 510 161 518 q 167 501 165 503 q 167 515 168 500 q 161 532 164 529 m 172 488 q 171 490 174 490 q 168 488 168 490 q 169 485 168 485 q 172 488 171 485 m 571 128 q 574 124 572 125 q 575 128 575 124 q 572 131 575 131 q 571 128 568 131 m 631 149 q 630 144 628 146 q 635 142 632 143 q 642 142 639 142 q 646 144 646 142 q 641 149 647 147 q 631 149 635 150 m 664 99 q 667 95 667 94 q 665 100 668 96 q 663 103 664 104 q 664 99 661 101 m 683 96 q 688 93 682 93 q 694 96 694 93 q 689 99 693 99 q 683 96 685 99 m 808 132 q 809 136 817 136 q 801 133 801 136 q 795 132 801 131 q 786 133 789 133 q 795 129 789 132 q 801 122 801 126 q 799 119 801 119 q 794 121 797 118 q 786 122 793 124 q 776 118 779 121 q 783 117 776 118 q 796 115 789 115 q 807 117 803 115 q 807 122 811 118 q 808 132 804 129 m 931 68 q 930 72 932 74 q 926 67 928 71 q 922 60 924 64 q 925 57 921 57 q 929 60 929 57 q 930 63 929 61 q 931 68 931 65 m 963 85 q 966 85 960 76 q 969 96 972 93 q 967 101 968 101 q 965 97 965 100 q 963 90 964 94 q 963 85 963 86 m 978 311 q 979 318 981 314 q 975 322 976 324 q 973 318 974 321 q 974 312 972 315 q 978 311 975 308 m 978 325 q 981 329 981 325 q 976 331 979 336 q 978 325 974 325 m 981 386 q 978 384 978 390 q 981 381 979 378 q 981 386 983 383 m 960 624 q 960 629 957 626 q 963 622 963 629 q 960 624 964 614 m 961 854 q 968 858 964 857 q 967 854 972 858 q 960 852 964 853 q 961 854 956 851 m 418 985 q 415 983 422 983 q 411 985 407 983 q 418 985 415 988 m 475 986 q 481 985 481 986 q 478 983 481 985 q 472 982 475 982 q 468 983 468 982 q 475 986 468 986 m 514 979 q 513 982 517 982 q 511 985 510 982 q 532 986 513 985 q 572 988 551 988 q 604 985 592 988 q 607 976 617 983 q 600 972 603 972 q 600 975 597 971 q 583 975 604 979 q 556 977 564 972 q 533 981 549 982 q 522 976 532 978 q 514 979 513 974 m 982 944 q 987 941 988 944 q 984 935 986 938 q 978 931 982 932 q 975 935 975 931 q 978 939 975 939 q 981 942 982 939 q 982 944 978 944 m 963 936 q 967 940 964 940 q 969 938 969 940 q 965 933 969 935 q 963 936 960 932 m 957 974 q 954 977 953 978 q 958 974 956 976 q 963 970 961 972 q 963 968 965 968 l 957 974 m 926 938 q 929 942 926 942 q 935 940 932 942 q 938 936 938 939 q 933 933 939 933 q 926 938 926 933 m 886 951 q 891 957 885 957 q 897 951 897 957 q 891 947 897 947 q 886 951 885 947 m 900 940 q 904 944 900 944 q 906 938 911 944 q 900 940 901 932 z "}}}
